<?xml version="1.0" standalone="no"?>
<!DOCTYPE svg PUBLIC "-//W3C//DTD SVG 20010904//EN"
 "http://www.w3.org/TR/2001/REC-SVG-20010904/DTD/svg10.dtd">
<svg version="1.0" xmlns="http://www.w3.org/2000/svg"
 width="2480.000000pt" height="350.000000pt" viewBox="0 0 2480.000000 350.000000"
 preserveAspectRatio="xMidYMid meet">

<g transform="translate(0.000000,350.000000) scale(0.100000,-0.0600000)"
fill="#000000" stroke="none">
<path d="M18180 2940 l0 -2360 2955 0 2955 0 0 2360 0 2360 -2955 0 -2955 0 0
-2360z m5880 0 l0 -2330 -2925 0 -2925 0 0 2330 0 2330 2925 0 2925 0 0 -2330z"/>
<path d="M19000 3405 l0 -195 25 0 c25 0 25 1 25 90 l0 90 95 0 c88 0 95 1 95
20 0 19 -7 20 -95 20 l-95 0 0 60 0 60 105 0 105 0 0 25 0 25 -130 0 -130 0 0
-195z"/>
<path d="M19407 3473 c-27 -70 -59 -156 -72 -191 l-25 -63 27 3 c21 2 30 13
46 56 l20 52 78 0 78 0 17 -55 c16 -49 21 -55 46 -55 l27 0 -38 108 c-103 285
-95 267 -127 270 -29 3 -30 1 -77 -125z m104 -10 c12 -38 24 -74 27 -80 3 -10
-12 -13 -58 -13 -45 0 -61 3 -58 13 3 6 16 42 29 80 13 37 27 67 31 67 3 0 16
-30 29 -67z"/>
<path d="M19740 3405 l0 -195 25 0 25 0 1 158 0 157 56 -158 c53 -151 57 -158
81 -155 23 3 30 16 78 158 l52 155 1 -157 1 -158 25 0 25 0 0 196 0 195 -37
-3 -36 -3 -55 -165 -55 -165 -56 168 -56 167 -37 0 -38 0 0 -195z"/>
<path d="M20240 3405 l0 -195 25 0 25 0 0 195 0 195 -25 0 -25 0 0 -195z"/>
<path d="M20430 3410 l0 -190 125 0 c118 0 125 1 125 20 0 19 -7 20 -100 20
l-100 0 0 170 0 170 -25 0 -25 0 0 -190z"/>
<path d="M20712 3588 c3 -7 35 -60 72 -117 66 -104 66 -104 66 -178 0 -71 1
-73 25 -73 24 0 25 2 25 77 l0 76 70 109 c39 60 70 111 70 113 0 3 -12 5 -27
5 -24 0 -35 -12 -81 -90 -29 -50 -56 -90 -60 -90 -4 1 -30 40 -57 88 -43 74
-55 87 -79 90 -21 3 -27 0 -24 -10z"/>
<path d="M21330 3410 l0 -190 25 0 c25 0 25 1 25 80 l0 80 69 0 c118 0 161 29
161 110 0 86 -40 110 -185 110 l-95 0 0 -190z m208 134 c16 -11 22 -25 22 -54
0 -54 -25 -70 -112 -70 l-68 0 0 70 0 70 68 0 c45 0 75 -5 90 -16z"/>
<path d="M21730 3405 l0 -195 25 0 c25 0 25 1 25 90 l0 90 105 0 105 0 0 -90
c0 -89 0 -90 25 -90 l25 0 0 195 0 195 -25 0 c-25 0 -25 -1 -25 -85 l0 -85
-105 0 -105 0 0 85 c0 84 0 85 -25 85 l-25 0 0 -195z"/>
<path d="M22269 3591 c-79 -26 -123 -93 -123 -191 -1 -139 85 -216 219 -195
50 7 106 48 129 94 49 97 20 226 -61 274 -36 21 -125 31 -164 18z m151 -66
c33 -32 53 -101 44 -153 -16 -86 -61 -132 -131 -132 -88 0 -137 58 -137 160 1
104 58 165 147 157 35 -3 56 -12 77 -32z"/>
<path d="M22600 3580 c0 -18 7 -20 65 -20 l65 0 0 -170 0 -170 25 0 25 0 0
170 0 170 65 0 c58 0 65 2 65 20 0 19 -7 20 -155 20 -148 0 -155 -1 -155 -20z"/>
<path d="M23099 3591 c-79 -26 -123 -93 -123 -191 -1 -139 85 -216 219 -195
50 7 106 48 129 94 49 97 20 226 -61 274 -36 21 -125 31 -164 18z m151 -66
c33 -32 53 -101 44 -153 -16 -86 -61 -132 -131 -132 -88 0 -137 58 -137 160 1
104 58 165 147 157 35 -3 56 -12 77 -32z"/>
<path d="M20506 2855 l65 -95 -65 -94 c-36 -52 -66 -97 -66 -100 0 -3 12 -6
28 -6 23 0 35 13 81 82 l53 81 52 -81 c47 -76 54 -82 84 -82 l33 0 -66 94
c-36 52 -65 99 -65 105 0 7 24 46 53 89 75 107 73 102 39 102 -26 0 -36 -9
-77 -75 -25 -41 -48 -75 -49 -75 -2 0 -25 34 -52 75 -44 67 -52 75 -81 75
l-32 0 65 -95z"/>
<path d="M21695 2935 c-22 -8 -41 -15 -43 -15 -1 0 -16 -21 -32 -47 -27 -41
-30 -56 -30 -122 0 -121 48 -186 146 -197 39 -5 61 -2 97 14 70 31 118 122 64
122 -17 0 -26 -9 -36 -35 -21 -59 -98 -83 -160 -50 -45 23 -64 75 -59 162 3
72 5 76 41 109 30 28 45 34 81 34 47 0 90 -26 101 -60 8 -24 55 -28 55 -5 0
26 -60 84 -98 95 -49 13 -79 12 -127 -5z"/>
<path d="M22030 2755 l0 -195 25 0 25 0 1 158 0 157 56 -158 c53 -151 57 -158
81 -155 23 3 30 16 78 158 l52 155 1 -157 1 -158 25 0 25 0 0 196 0 195 -37
-3 -36 -3 -55 -165 -55 -165 -56 168 -56 167 -37 0 -38 0 0 -195z"/>
<path d="M19983 2820 c-52 -73 -83 -128 -83 -144 0 -26 1 -26 80 -26 l80 0 0
-45 c0 -38 3 -45 20 -45 17 0 20 7 20 45 0 43 1 45 30 45 23 0 30 4 30 20 0
16 -7 20 -30 20 l-30 0 0 125 c0 164 -7 164 -117 5z m74 -127 c-3 -2 -30 -3
-61 -1 l-57 3 58 84 58 84 3 -83 c2 -45 1 -84 -1 -87z"/>
<path d="M21080 2918 c0 -7 -6 -52 -14 -100 -13 -87 -12 -88 8 -88 12 0 30 7
40 15 25 19 76 19 103 0 40 -28 38 -109 -5 -141 -36 -28 -122 -6 -122 32 0 8
-10 14 -25 14 -30 0 -32 -18 -5 -53 42 -53 149 -59 196 -12 12 12 28 41 34 63
26 97 -64 177 -161 143 l-32 -11 7 38 c3 20 6 45 6 55 0 15 11 17 80 17 73 0
80 2 80 20 0 19 -7 20 -95 20 -69 0 -95 -3 -95 -12z"/>
<path d="M22540 2590 c0 -25 4 -30 25 -30 21 0 25 5 25 30 0 25 -4 30 -25 30
-21 0 -25 -5 -25 -30z"/>
<path d="M2515 5089 c-492 -38 -960 -321 -1237 -749 -227 -349 -313 -791 -233
-1205 80 -420 341 -813 703 -1057 476 -322 1103 -365 1627 -113 614 295 988
949 927 1617 -38 413 -190 737 -481 1029 -198 198 -386 315 -640 399 -147 49
-242 68 -395 80 -133 10 -128 10 -271 -1z m225 -79 l0 -50 34 0 c63 0 260 -39
355 -70 218 -71 426 -197 589 -358 235 -230 380 -507 439 -837 24 -137 22
-380 -6 -522 -59 -309 -200 -573 -421 -793 -260 -260 -573 -407 -940 -442
-128 -12 -130 -13 -130 -37 l0 -24 -97 6 c-631 39 -1188 468 -1387 1068 -92
276 -107 552 -45 837 60 277 210 554 412 760 142 145 346 281 536 357 126 50
307 95 414 102 l87 6 0 -25 c0 -24 -4 -26 -72 -32 -184 -18 -367 -74 -548
-167 -346 -179 -610 -489 -736 -864 -57 -171 -77 -319 -71 -525 5 -188 26
-305 82 -460 133 -368 393 -663 745 -845 162 -83 391 -146 588 -161 l92 -7 0
32 0 31 -57 0 c-82 0 -243 26 -345 55 -670 192 -1117 849 -1048 1540 65 649
538 1173 1171 1296 55 10 104 19 109 19 6 0 10 -25 10 -55 l0 -55 40 0 40 0 0
-130 0 -130 -44 0 c-70 0 -233 -47 -341 -99 -284 -136 -491 -381 -579 -684
-77 -266 -52 -527 75 -784 l60 -123 -27 -35 c-81 -107 -67 -275 35 -410 82
-109 178 -156 486 -238 166 -45 233 -70 296 -113 28 -19 53 -34 55 -34 8 0 4
43 -8 82 -15 50 -78 122 -143 163 -27 18 -97 53 -155 78 -141 62 -208 99 -264
148 -51 45 -61 79 -22 79 13 0 57 -20 97 -45 133 -82 316 -141 472 -152 l87
-6 0 -183 0 -184 43 0 c141 0 357 46 512 110 706 288 1071 1086 829 1810 -158
474 -559 842 -1038 955 -56 13 -120 27 -143 30 l-43 7 0 -56 0 -56 -40 0 -40
0 0 -128 0 -128 85 -12 c487 -71 862 -468 916 -971 22 -202 -14 -389 -112
-589 l-61 -123 20 -22 c86 -91 80 -263 -13 -403 -74 -112 -181 -169 -460 -245
-194 -52 -293 -90 -351 -134 -18 -14 -35 -25 -37 -25 -2 0 -1 20 3 44 15 103
107 194 257 256 135 56 270 129 317 174 51 47 55 60 26 76 -17 9 -31 5 -80
-25 -89 -54 -216 -111 -300 -134 -87 -24 -252 -46 -275 -37 -13 5 -15 24 -13
128 l3 123 346 0 c391 0 379 2 379 -73 0 -42 -4 -50 -50 -94 -39 -37 -91 -68
-218 -130 -92 -44 -187 -95 -212 -112 -45 -30 -100 -84 -100 -97 0 -4 26 6 58
22 32 16 148 58 257 95 206 68 285 103 348 155 83 68 132 179 125 280 -6 82
-43 134 -123 174 l-60 30 -375 5 -375 5 -3 99 c-3 103 4 126 39 126 17 0 19
-8 19 -75 l0 -75 50 0 50 0 1 58 c1 62 4 89 20 170 l10 52 176 0 176 0 -35
-42 c-75 -92 -161 -138 -257 -138 l-41 0 0 -45 0 -45 73 0 c136 0 254 48 341
140 57 60 82 102 112 190 24 71 25 240 2 322 -9 32 -13 60 -8 63 4 3 53 8 109
11 l101 7 0 92 c0 87 -1 94 -25 109 -16 10 -46 16 -88 16 -57 0 -65 -2 -77
-25 -8 -16 -11 -44 -7 -84 5 -57 4 -59 -20 -64 -21 -4 -28 3 -50 46 -36 72
-130 166 -248 249 -116 82 -209 168 -235 218 -21 41 -40 134 -40 197 l0 43
-50 0 -50 0 0 170 0 170 40 0 40 0 0 40 0 40 -40 0 -40 0 0 60 c0 57 -1 60
-25 60 -16 0 -25 6 -25 15 0 11 11 15 40 15 l40 0 0 -50z m-80 -544 l0 -554
43 -7 c86 -13 193 -47 261 -83 64 -33 176 -129 176 -149 0 -4 -28 -24 -62 -43
-85 -49 -184 -144 -243 -234 l-49 -76 -52 0 c-63 0 -76 13 -72 75 3 45 5 48
41 60 80 27 121 99 99 173 -14 47 -60 92 -104 101 l-33 7 -3 87 c-3 102 3 99
-132 67 -114 -28 -219 -81 -288 -147 l-57 -54 -75 25 c-41 15 -82 26 -90 26
-39 0 -43 16 -14 65 41 71 115 141 247 235 191 135 257 222 257 339 0 20 3 53
6 73 6 36 8 37 53 40 l46 3 3 168 2 167 -45 0 c-45 0 -45 0 -45 34 0 34 1 35
43 38 l42 3 3 58 c3 49 6 57 22 57 20 0 20 -11 20 -554z m408 326 c10 -7 9
-17 -3 -52 -18 -52 -13 -73 17 -68 17 2 26 15 37 51 15 47 24 54 51 38 12 -8
8 -29 -25 -135 -40 -125 -49 -139 -82 -118 -10 6 -9 20 4 61 15 45 15 53 3 61
-28 18 -39 10 -55 -46 -14 -49 -18 -54 -38 -48 -12 3 -24 8 -27 11 -3 3 44
159 71 231 9 23 25 28 47 14z m232 -92 c18 -10 16 -17 -38 -130 -56 -116 -69
-131 -100 -111 -11 6 0 35 47 130 34 66 64 121 67 121 3 0 14 -5 24 -10z m178
-106 c35 -25 46 -51 32 -85 -14 -32 -18 -34 -42 -16 -11 9 -14 22 -11 40 4 19
1 29 -11 33 -22 9 -52 -20 -95 -90 -27 -46 -31 -59 -21 -71 7 -8 18 -15 25
-15 18 0 46 45 35 56 -5 5 -5 15 -1 23 7 11 14 10 40 -5 17 -10 31 -22 31 -27
0 -10 -69 -107 -76 -107 -3 0 -23 9 -44 20 -49 25 -74 61 -66 94 7 28 70 124
98 149 25 21 76 22 106 1z m162 -139 c11 -14 7 -22 -29 -59 l-42 -42 21 -19
c20 -18 21 -18 60 20 39 38 40 38 60 20 21 -19 21 -19 -52 -93 -40 -40 -85
-82 -101 -93 -25 -19 -28 -19 -43 -4 -16 15 -14 20 26 60 43 44 43 45 25 65
l-19 21 -43 -43 -43 -42 -21 20 -20 21 97 91 c54 51 101 92 105 92 3 0 12 -7
19 -15z m232 -307 c50 -41 63 -107 26 -132 -29 -21 -35 -20 -48 4 -9 17 -7 24
11 39 20 16 20 18 5 34 -28 27 -56 6 -56 -42 0 -58 -18 -98 -50 -111 -42 -18
-72 -9 -97 29 -27 40 -29 77 -6 103 21 23 35 23 50 -1 10 -16 8 -22 -7 -36
-15 -13 -17 -22 -9 -36 24 -46 69 -8 69 60 0 49 11 71 45 89 27 15 48 15 67 0z
m-1964 -173 c18 -40 15 -68 -18 -137 -39 -81 -39 -98 -1 -98 47 0 160 -26 240
-56 145 -54 279 -164 366 -301 l40 -63 63 0 62 0 0 -110 0 -110 -30 0 -30 0 0
-75 0 -75 -40 0 c-33 0 -40 4 -44 23 -2 12 -12 65 -21 117 -31 177 -100 315
-211 424 -101 99 -278 167 -434 167 -82 0 -120 16 -120 49 0 16 7 20 38 20 49
0 53 5 35 41 -19 39 -13 63 37 128 22 30 40 61 40 68 0 22 16 15 28 -12z
m2058 -50 c28 -19 48 -69 40 -100 -3 -13 -19 -31 -35 -40 -28 -14 -29 -14 -35
11 -5 18 -1 30 14 42 14 12 17 21 10 32 -8 12 -16 13 -57 2 -84 -23 -135 -50
-131 -69 3 -13 12 -18 36 -17 26 2 33 -2 38 -22 7 -29 7 -29 -28 -38 -68 -16
-116 102 -58 145 23 17 152 68 175 69 6 0 20 -7 31 -15z m-476 -130 c0 -73 -1
-75 -25 -75 -24 0 -25 2 -25 75 0 73 1 75 25 75 24 0 25 -2 25 -75z m80 0 c0
-73 -1 -75 -25 -75 -24 0 -25 2 -25 75 0 73 1 75 25 75 24 0 25 -2 25 -75z
m-910 -205 c0 -157 -2 -160 -68 -120 -93 57 -94 192 -1 242 68 36 69 35 69
-122z m1383 88 c8 -31 4 -35 -53 -42 -46 -6 -50 -9 -50 -33 0 -26 0 -26 61
-20 l60 7 -3 -27 c-3 -27 -5 -28 -118 -45 -154 -22 -150 -22 -150 6 0 25 16
36 55 36 39 0 55 11 55 37 0 24 -2 24 -62 21 -58 -3 -63 -1 -66 19 -3 18 3 23
30 28 38 6 207 32 224 34 7 0 14 -9 17 -21z m-1993 -54 c62 -19 80 -29 76 -40
-21 -56 -36 -130 -38 -192 l-3 -74 157 2 157 1 16 -30 c8 -17 15 -35 15 -41 0
-6 -53 -10 -155 -10 -85 0 -155 -4 -155 -8 0 -5 25 -36 55 -69 70 -78 137
-113 217 -113 l58 0 0 -46 0 -47 -87 6 c-266 18 -434 185 -450 448 -5 75 8
207 23 231 8 13 28 10 114 -18z m1154 -72 c17 -51 36 -160 36 -204 l0 -28
-175 0 -176 0 43 61 c24 34 61 82 83 107 42 48 152 125 165 117 5 -3 15 -27
24 -53z m814 -128 c34 -7 54 -61 41 -108 -14 -51 -37 -60 -137 -53 -92 7 -128
23 -138 62 -8 34 14 95 40 105 20 8 143 5 194 -6z m-104 -244 c38 -11 77 -27
87 -36 37 -34 12 -128 -36 -140 -31 -8 -155 23 -197 49 -28 17 -30 21 -25 63
9 86 47 100 171 64z m-79 -237 c63 -32 115 -60 115 -63 0 -4 -6 -14 -13 -24
-12 -17 -20 -15 -115 33 -56 28 -103 51 -106 51 -2 0 -9 -13 -16 -30 -13 -32
-18 -34 -37 -22 -9 6 -5 21 14 60 14 29 29 52 34 52 5 0 61 -26 124 -57z
m-1175 -198 l0 -125 -337 0 c-391 0 -386 1 -391 -74 -3 -47 -1 -50 47 -97 38
-37 91 -69 209 -126 86 -42 180 -91 207 -108 50 -32 118 -95 111 -102 -2 -3
-28 8 -57 22 -28 15 -140 56 -247 92 -108 35 -223 78 -255 95 -229 115 -296
378 -127 498 61 43 114 49 488 49 l352 1 0 -125z"/>
<path d="M2183 4770 c-13 -5 -21 -15 -18 -22 4 -14 10 -69 21 -183 3 -38 9
-73 13 -76 3 -4 16 -3 29 2 20 7 23 14 17 37 -5 24 -2 30 22 41 16 7 29 9 31
3 10 -32 30 -44 54 -36 l26 9 -71 117 c-41 67 -78 117 -87 117 -8 0 -25 -4
-37 -9z m87 -152 c0 -5 -8 -8 -19 -8 -14 0 -20 10 -25 38 -10 64 -6 69 19 22
13 -25 24 -48 25 -52z"/>
<path d="M1943 4661 c-35 -22 -48 -50 -37 -83 13 -46 34 -58 95 -58 48 0 60
-4 73 -22 25 -36 -16 -67 -44 -33 -9 11 -17 12 -34 3 -31 -16 -31 -16 -6 -43
27 -29 60 -32 100 -8 52 31 62 79 26 128 -11 16 -30 21 -83 25 -61 5 -68 7
-71 28 -4 29 26 42 44 18 10 -15 15 -15 33 -4 26 16 27 30 3 51 -24 22 -60 21
-99 -2z"/>
<path d="M1780 4545 c-10 -13 -10 -18 2 -33 8 -9 39 -46 69 -82 59 -71 58 -70
-48 14 l-73 58 -29 -24 c-17 -12 -30 -26 -30 -30 -1 -10 169 -208 178 -208 5
0 14 6 20 13 9 11 -3 31 -54 90 -36 42 -65 79 -65 82 0 3 36 -24 79 -60 43
-36 83 -65 87 -65 5 0 22 12 37 25 l28 25 -87 103 c-47 56 -90 103 -94 105 -4
1 -13 -4 -20 -13z"/>
<path d="M1558 4320 c-14 -10 -31 -33 -38 -50 -18 -43 -5 -64 81 -127 84 -63
115 -67 152 -23 55 64 45 90 -60 170 -72 55 -97 60 -135 30z m113 -86 c56 -45
72 -75 48 -89 -22 -14 -162 97 -152 121 10 25 44 15 104 -32z"/>
<path d="M1422 4115 c-7 -14 -12 -27 -12 -29 0 -1 23 -13 50 -26 55 -26 56
-27 36 -53 -13 -16 -16 -16 -57 8 -54 31 -53 30 -67 0 -11 -23 -8 -26 102 -85
62 -33 118 -60 124 -60 10 0 32 30 32 43 0 2 -22 14 -50 27 -51 24 -57 33 -40
60 8 13 17 11 63 -12 l54 -27 12 26 c7 14 10 27 9 28 -2 2 -193 100 -239 123
-3 1 -11 -9 -17 -23z"/>
<path d="M1327 3862 c-20 -22 -49 -114 -39 -123 7 -7 255 -79 258 -76 2 1 5
14 9 28 6 25 4 27 -44 40 l-51 13 6 47 c6 46 5 49 -27 68 -42 26 -91 27 -112
3z m91 -75 c3 -25 1 -28 -17 -23 -12 3 -30 9 -41 12 -20 5 -26 24 -13 38 4 4
21 6 38 4 25 -2 31 -8 33 -31z"/>
<path d="M1498 3598 l-3 -33 -95 3 c-52 1 -105 5 -117 7 -20 5 -23 1 -23 -24
0 -33 7 -35 174 -47 103 -8 106 -6 106 74 0 45 -3 52 -19 52 -15 0 -21 -8 -23
-32z"/>
<path d="M1382 3412 l-123 -37 3 -35 c3 -34 5 -35 53 -42 28 -4 89 -13 138
-21 l87 -14 0 28 c0 25 -4 29 -29 29 -24 0 -29 5 -33 31 -3 20 0 32 9 35 7 2
20 6 28 9 18 5 20 55 3 54 -7 0 -68 -17 -136 -37z m52 -58 c9 -24 6 -24 -55
-17 l-54 7 40 12 c54 17 62 17 69 -2z"/>
<path d="M3824 3365 c-11 -27 18 -41 96 -48 76 -6 96 -3 103 17 12 30 -12 40
-102 44 -80 4 -92 2 -97 -13z"/>
<path d="M3786 3134 c-13 -33 -1 -40 108 -68 61 -16 86 -10 86 20 0 18 -12 24
-94 45 -87 23 -92 23 -100 3z"/>
<path d="M6831 4555 c-106 -33 -124 -87 -119 -368 3 -178 5 -207 23 -241 26
-52 57 -73 125 -88 110 -22 197 11 238 92 21 42 22 56 22 260 0 187 -3 220
-19 255 -10 22 -28 48 -39 58 -49 44 -148 58 -231 32z m117 -107 c9 -9 12 -76
12 -238 0 -162 -3 -229 -12 -238 -18 -18 -56 -14 -68 7 -6 12 -10 104 -10 231
0 127 4 219 10 231 12 21 50 25 68 7z"/>
<path d="M7865 4561 c-61 -16 -96 -42 -116 -84 -49 -110 -4 -212 144 -325 59
-45 87 -88 87 -134 0 -39 -15 -58 -45 -58 -36 0 -45 20 -45 97 l0 73 -81 0
-81 0 4 -89 c4 -103 19 -133 84 -166 57 -29 183 -28 240 2 54 29 84 88 84 164
-1 93 -43 157 -168 252 -29 22 -60 53 -68 68 -27 53 -13 99 31 99 35 0 45 -20
45 -87 l0 -63 80 0 80 0 0 71 c0 90 -19 133 -72 160 -44 22 -154 33 -203 20z"/>
<path d="M14995 4561 c-61 -16 -96 -42 -116 -84 -49 -110 -4 -212 144 -325 59
-45 87 -88 87 -134 0 -39 -15 -58 -45 -58 -36 0 -45 20 -45 97 l0 73 -81 0
-81 0 4 -89 c4 -103 19 -133 84 -166 57 -29 183 -28 240 2 54 29 84 88 84 164
-1 93 -43 157 -168 252 -29 22 -60 53 -68 68 -27 53 -13 99 31 99 35 0 45 -20
45 -87 l0 -63 80 0 80 0 0 71 c0 90 -19 133 -72 160 -44 22 -154 33 -203 20z"/>
<path d="M15472 4556 c-50 -16 -77 -38 -100 -81 -13 -24 -17 -68 -20 -219 -5
-221 1 -283 31 -327 37 -55 81 -74 172 -74 146 0 205 58 205 203 l0 72 -80 0
-80 0 0 -73 c0 -43 -5 -78 -12 -85 -18 -18 -56 -14 -68 7 -6 12 -10 104 -10
231 0 127 4 219 10 231 12 21 50 25 68 7 7 -7 12 -39 12 -75 l0 -63 81 0 82 0
-5 80 c-5 89 -21 121 -76 153 -41 24 -154 31 -210 13z"/>
<path d="M16461 4555 c-106 -33 -124 -87 -119 -368 3 -178 5 -207 23 -241 26
-52 57 -73 125 -88 110 -22 197 11 238 92 21 42 22 56 22 260 0 187 -3 220
-19 255 -10 22 -28 48 -39 58 -49 44 -148 58 -231 32z m117 -107 c9 -9 12 -76
12 -238 0 -162 -3 -229 -12 -238 -18 -18 -56 -14 -68 7 -6 12 -10 104 -10 231
0 127 4 219 10 231 12 21 50 25 68 7z"/>
<path d="M16951 4555 c-106 -33 -124 -87 -119 -368 3 -178 5 -207 23 -241 26
-52 57 -73 125 -88 110 -22 197 11 238 92 21 42 22 56 22 260 0 187 -3 220
-19 255 -10 22 -28 48 -39 58 -49 44 -148 58 -231 32z m117 -107 c9 -9 12 -76
12 -238 0 -162 -3 -229 -12 -238 -18 -18 -56 -14 -68 7 -6 12 -10 104 -10 231
0 127 4 219 10 231 12 21 50 25 68 7z"/>
<path d="M4926 4533 c-3 -16 -28 -163 -56 -328 -28 -165 -53 -310 -55 -322 -5
-22 -3 -23 63 -23 l69 0 13 86 12 85 47 -3 c32 -2 46 -8 48 -18 1 -8 5 -45 8
-82 l7 -68 79 0 c43 0 79 2 79 5 0 10 -80 630 -85 663 l-6 32 -109 0 -108 0
-6 -27z m123 -375 c1 -25 -3 -28 -30 -28 l-31 0 6 53 c3 28 8 86 11 127 10
131 18 131 31 0 7 -69 13 -137 13 -152z"/>
<path d="M5320 4210 l0 -350 170 0 170 0 0 50 0 50 -90 0 -90 0 0 300 0 300
-80 0 -80 0 0 -350z"/>
<path d="M5720 4211 l0 -351 80 0 80 0 0 135 0 135 48 0 c69 0 119 17 160 55
l37 33 3 119 c2 104 0 122 -17 150 -36 57 -68 67 -238 71 l-153 4 0 -351z
m234 233 c12 -11 16 -36 16 -99 0 -94 -11 -115 -61 -115 l-29 0 0 115 0 115
29 0 c16 0 37 -7 45 -16z"/>
<path d="M6210 4210 l0 -350 80 0 80 0 0 170 0 170 45 0 45 0 0 -170 0 -170
80 0 80 0 0 350 0 350 -80 0 -80 0 0 -130 0 -130 -45 0 -45 0 0 130 0 130 -80
0 -80 0 0 -350z"/>
<path d="M7190 4210 l0 -350 65 0 65 0 1 293 1 292 62 -290 62 -290 107 -3
107 -3 0 351 0 350 -65 0 -65 0 -2 -251 -3 -252 -38 184 c-21 101 -45 214 -54
252 l-15 67 -114 0 -114 0 0 -350z"/>
<path d="M8326 4533 c-3 -16 -28 -163 -56 -328 -28 -165 -53 -310 -55 -322 -5
-22 -3 -23 63 -23 l69 0 13 86 12 85 47 -3 c32 -2 46 -8 48 -18 1 -8 5 -45 8
-82 l7 -68 79 0 c43 0 79 2 79 5 0 10 -80 630 -85 663 l-6 32 -109 0 -108 0
-6 -27z m123 -375 c1 -25 -3 -28 -30 -28 l-31 0 6 53 c3 28 8 86 11 127 10
131 18 131 31 0 7 -69 13 -137 13 -152z"/>
<path d="M8990 4211 l0 -351 80 0 80 0 0 135 0 135 48 0 c69 0 119 17 160 55
l37 33 3 119 c2 104 0 122 -17 150 -36 57 -68 67 -238 71 l-153 4 0 -351z
m234 233 c12 -11 16 -36 16 -99 0 -94 -11 -115 -61 -115 l-29 0 0 115 0 115
29 0 c16 0 37 -7 45 -16z"/>
<path d="M9480 4211 l0 -351 80 0 80 0 0 160 0 160 25 0 c14 0 34 -9 45 -20
18 -18 20 -33 20 -134 0 -63 4 -126 10 -140 9 -25 13 -26 90 -26 l80 0 -10 26
c-6 14 -10 76 -10 138 0 62 -5 127 -11 145 -12 33 -52 60 -91 62 -20 1 -20 2
8 14 68 30 103 103 90 188 -16 99 -56 119 -258 125 l-148 4 0 -351z m230 229
c15 -15 20 -33 20 -70 0 -57 -24 -90 -65 -90 -25 0 -25 1 -25 90 0 89 0 90 25
90 14 0 34 -9 45 -20z"/>
<path d="M9970 4210 l0 -350 170 0 170 0 0 50 0 50 -90 0 -90 0 0 120 0 120
85 0 85 0 0 50 0 50 -85 0 -85 0 0 80 0 80 90 0 90 0 0 50 0 50 -170 0 -170 0
0 -350z"/>
<path d="M11200 4211 l0 -351 80 0 80 0 0 135 0 135 48 0 c69 0 119 17 160 55
l37 33 3 119 c2 104 0 122 -17 150 -36 57 -68 67 -238 71 l-153 4 0 -351z
m234 233 c12 -11 16 -36 16 -99 0 -94 -11 -115 -61 -115 l-29 0 0 115 0 115
29 0 c16 0 37 -7 45 -16z"/>
<path d="M11700 4211 l0 -351 80 0 80 0 0 160 0 160 25 0 c14 0 34 -9 45 -20
18 -18 20 -33 20 -134 0 -63 4 -126 10 -140 9 -25 13 -26 90 -26 l80 0 -10 26
c-6 14 -10 76 -10 138 0 62 -5 127 -11 145 -12 33 -52 60 -91 62 -20 1 -20 2
8 14 68 30 103 103 90 188 -16 99 -56 119 -258 125 l-148 4 0 -351z m230 229
c15 -15 20 -33 20 -70 0 -57 -24 -90 -65 -90 -25 0 -25 1 -25 90 0 89 0 90 25
90 14 0 34 -9 45 -20z"/>
<path d="M12190 4210 l0 -350 80 0 80 0 0 350 0 350 -80 0 -80 0 0 -350z"/>
<path d="M12430 4210 l0 -350 65 0 65 0 1 298 1 297 48 -295 c27 -162 49 -296
49 -297 1 -2 33 -3 71 -3 39 0 70 1 71 3 0 1 22 135 49 297 l48 295 1 -297 1
-298 75 0 75 0 0 350 0 350 -119 0 -118 0 -34 -245 c-19 -135 -37 -237 -41
-228 -4 10 -18 104 -33 208 -14 105 -28 207 -31 228 l-6 37 -119 0 -119 0 0
-350z"/>
<path d="M13226 4533 c-3 -16 -28 -163 -56 -328 -28 -165 -53 -310 -55 -322
-5 -22 -3 -23 63 -23 l69 0 13 86 12 85 47 -3 c32 -2 46 -8 48 -18 1 -8 5 -45
8 -82 l7 -68 79 0 c43 0 79 2 79 5 0 10 -80 630 -85 663 l-6 32 -109 0 -108 0
-6 -27z m123 -375 c1 -25 -3 -28 -30 -28 l-31 0 6 53 c3 28 8 86 11 127 10
131 18 131 31 0 7 -69 13 -137 13 -152z"/>
<path d="M13620 4211 l0 -351 80 0 80 0 0 160 0 160 25 0 c14 0 34 -9 45 -20
18 -18 20 -33 20 -134 0 -63 4 -126 10 -140 9 -25 13 -26 90 -26 l80 0 -10 26
c-6 14 -10 76 -10 138 0 62 -5 127 -11 145 -12 33 -52 60 -91 62 -20 1 -20 2
8 14 68 30 103 103 90 188 -16 99 -56 119 -258 125 l-148 4 0 -351z m230 229
c15 -15 20 -33 20 -70 0 -57 -24 -90 -65 -90 -25 0 -25 1 -25 90 0 89 0 90 25
90 14 0 34 -9 45 -20z"/>
<path d="M14095 4548 c3 -7 34 -107 70 -223 l65 -209 0 -128 0 -128 80 0 80 0
0 132 0 132 65 207 c36 115 65 213 65 218 0 7 -29 11 -74 11 l-74 0 -15 -67
c-9 -38 -21 -95 -28 -128 -7 -33 -15 -64 -19 -68 -4 -4 -19 53 -35 128 l-28
135 -78 0 c-58 0 -77 -3 -74 -12z"/>
<path d="M15850 4210 l0 -350 80 0 80 0 0 170 0 170 45 0 45 0 0 -170 0 -170
80 0 80 0 0 350 0 350 -80 0 -80 0 0 -130 0 -130 -45 0 -45 0 0 130 0 130 -80
0 -80 0 0 -350z"/>
<path d="M17330 4210 l0 -350 170 0 170 0 0 50 0 50 -90 0 -90 0 0 300 0 300
-80 0 -80 0 0 -350z"/>
<path d="M10640 4175 l0 -55 110 0 110 0 0 55 0 55 -110 0 -110 0 0 -55z"/>
<path d="M14991 3477 c-65 -23 -75 -51 -79 -205 -4 -155 6 -203 51 -236 40
-29 134 -29 174 0 41 31 52 74 52 214 0 139 -11 183 -50 213 -33 24 -103 31
-148 14z m84 -227 l0 -165 -25 0 -25 0 -3 155 c-1 85 0 160 3 168 3 7 15 12
27 10 23 -3 23 -4 23 -168z"/>
<path d="M6570 3250 l0 -230 55 0 54 0 3 113 3 112 29 -109 c16 -59 35 -110
42 -113 6 -2 30 -3 52 -1 l39 3 -35 127 -35 127 36 101 36 100 -49 0 -48 0
-35 -102 -35 -103 -1 103 -1 102 -55 0 -55 0 0 -230z"/>
<path d="M6995 3468 c-2 -7 -17 -96 -34 -198 -17 -102 -33 -200 -37 -217 l-6
-33 45 0 45 0 7 56 c7 55 7 55 38 52 30 -3 32 -5 37 -53 l5 -50 53 -3 53 -3
-6 33 c-4 28 -55 416 -55 425 0 2 -32 3 -70 3 -48 0 -72 -4 -75 -12z m73 -180
c7 -81 7 -88 -10 -88 -20 0 -23 32 -11 141 8 73 10 68 21 -53z"/>
<path d="M7270 3250 l0 -230 110 0 110 0 0 35 0 35 -55 0 -55 0 0 195 0 195
-55 0 -55 0 0 -230z"/>
<path d="M7560 3250 l0 -230 110 0 110 0 0 35 0 35 -55 0 -55 0 0 75 0 75 55
0 55 0 0 35 0 35 -55 0 -55 0 0 50 0 50 55 0 55 0 0 35 0 35 -110 0 -110 0 0
-230z"/>
<path d="M7874 3250 l30 -231 60 3 61 3 17 155 c9 85 17 161 17 169 2 39 11
-8 26 -139 23 -208 15 -190 85 -190 33 0 60 3 60 8 0 12 49 384 55 420 l6 32
-45 0 c-54 0 -51 9 -67 -174 -14 -154 -23 -154 -33 -1 -4 55 -10 117 -13 138
l-6 37 -53 0 c-63 0 -56 16 -80 -180 -9 -74 -17 -136 -19 -138 -1 -1 -5 44 -9
100 -4 57 -9 129 -13 161 l-6 57 -51 0 -52 0 30 -230z"/>
<path d="M8375 3468 c-2 -7 -17 -96 -34 -198 -17 -102 -33 -200 -37 -217 l-6
-33 45 0 45 0 7 56 c7 55 7 55 38 52 30 -3 32 -5 37 -53 l5 -50 53 -3 53 -3
-6 33 c-4 28 -55 416 -55 425 0 2 -32 3 -70 3 -48 0 -72 -4 -75 -12z m73 -180
c7 -81 7 -88 -10 -88 -20 0 -23 32 -11 141 8 73 10 68 21 -53z"/>
<path d="M8650 3250 l0 -230 83 1 c98 0 143 14 171 52 19 26 21 42 21 175 0
215 -14 232 -192 232 l-83 0 0 -230z m144 160 l26 -10 0 -150 0 -150 -26 -10
c-14 -6 -27 -10 -30 -10 -2 0 -4 77 -4 170 0 94 2 170 4 170 3 0 16 -4 30 -10z"/>
<path d="M9000 3250 l0 -230 55 0 55 0 0 230 0 230 -55 0 -55 0 0 -230z"/>
<path d="M9590 3251 l0 -231 55 0 55 0 0 90 0 90 50 0 c41 0 56 5 82 29 32 29
33 32 33 110 0 75 -2 83 -28 108 -26 26 -33 28 -137 31 l-110 4 0 -231z m151
159 c15 -9 19 -22 19 -68 0 -60 -11 -82 -42 -82 -16 0 -18 10 -18 80 0 82 4
89 41 70z"/>
<path d="M9940 3250 l0 -230 55 0 55 0 0 230 0 230 -55 0 -55 0 0 -230z"/>
<path d="M10130 3250 l0 -230 40 0 40 0 1 193 1 192 31 -192 31 -193 46 0 46
0 31 193 31 192 1 -192 1 -193 50 0 50 0 0 230 0 230 -78 0 -79 0 -18 -142
c-10 -79 -21 -151 -25 -161 -3 -10 -14 42 -24 115 -28 210 -16 188 -102 188
l-74 0 0 -230z"/>
<path d="M10600 3251 l0 -231 55 0 55 0 0 90 0 90 50 0 c41 0 56 5 82 29 32
29 33 32 33 110 0 75 -2 83 -28 108 -26 26 -33 28 -137 31 l-110 4 0 -231z
m151 159 c15 -9 19 -22 19 -68 0 -60 -11 -82 -42 -82 -16 0 -18 10 -18 80 0
82 4 89 41 70z"/>
<path d="M10950 3250 l0 -230 55 0 55 0 0 105 c0 83 3 105 14 105 25 0 34 -24
38 -106 2 -44 8 -86 12 -92 4 -7 28 -12 54 -12 l47 0 -4 92 c-4 115 -12 137
-51 145 l-31 6 31 18 c49 30 64 93 35 149 -19 37 -64 50 -172 50 l-83 0 0
-230z m141 160 c14 -8 19 -21 19 -55 0 -34 -5 -47 -19 -55 -11 -5 -22 -10 -25
-10 -3 0 -6 29 -6 65 0 36 3 65 6 65 3 0 14 -5 25 -10z"/>
<path d="M11300 3250 l0 -230 55 0 55 0 0 230 0 230 -55 0 -55 0 0 -230z"/>
<path d="M11880 3251 l0 -231 55 0 55 0 0 90 0 90 50 0 c41 0 56 5 82 29 32
29 33 32 33 110 0 75 -2 83 -28 108 -26 26 -33 28 -137 31 l-110 4 0 -231z
m151 159 c15 -9 19 -22 19 -68 0 -60 -11 -82 -42 -82 -16 0 -18 10 -18 80 0
82 4 89 41 70z"/>
<path d="M12232 3287 c3 -217 9 -236 76 -264 51 -21 128 -11 160 20 34 35 41
82 42 270 l0 167 -55 0 -55 0 0 -189 c0 -155 -3 -191 -15 -201 -8 -7 -22 -10
-30 -6 -13 4 -15 36 -15 201 l0 195 -56 0 -56 0 4 -193z"/>
<path d="M12580 3250 l0 -230 40 0 40 0 1 188 c0 103 4 178 8 167 4 -11 23
-95 42 -187 l34 -168 67 0 68 0 0 230 0 230 -40 0 -40 0 -1 -162 c0 -90 -4
-154 -8 -143 -4 11 -20 84 -36 163 l-28 142 -73 0 -74 0 0 -230z"/>
<path d="M12950 3250 l0 -230 110 0 110 0 0 35 0 35 -55 0 -55 0 0 75 0 75 55
0 55 0 0 35 0 35 -55 0 -55 0 0 50 0 50 55 0 55 0 0 35 0 35 -110 0 -110 0 0
-230z"/>
<path d="M13921 3343 c-40 -90 -61 -151 -61 -175 l0 -38 75 0 75 0 0 -55 0
-55 50 0 50 0 0 55 c0 42 3 55 15 55 10 0 15 11 15 35 0 24 -5 35 -15 35 -13
0 -15 22 -15 140 l0 140 -64 0 -63 0 -62 -137z m89 -53 l0 -90 -40 0 c-22 0
-40 3 -40 6 0 8 73 174 77 174 2 0 3 -40 3 -90z"/>
<path d="M14303 3454 c-12 -13 -34 -24 -48 -24 -22 0 -25 -4 -25 -35 0 -33 2
-35 35 -35 l35 0 0 -170 0 -170 55 0 55 0 0 230 0 230 -42 -1 c-32 -1 -49 -8
-65 -25z"/>
<path d="M14653 3454 c-12 -13 -34 -24 -48 -24 -22 0 -25 -4 -25 -35 0 -33 2
-35 35 -35 l35 0 0 -170 0 -170 55 0 55 0 0 230 0 230 -42 -1 c-32 -1 -49 -8
-65 -25z"/>
<path d="M15353 3454 c-12 -13 -34 -24 -48 -24 -22 0 -25 -4 -25 -35 0 -33 2
-35 35 -35 l35 0 0 -170 0 -170 55 0 55 0 0 230 0 230 -42 -1 c-32 -1 -49 -8
-65 -25z"/>
<path d="M15610 3445 l0 -35 80 0 c44 0 80 -4 80 -9 0 -5 -31 -90 -70 -190
-38 -100 -70 -184 -70 -186 0 -3 24 -5 54 -5 l53 0 77 201 c42 110 76 214 76
230 l0 29 -140 0 -140 0 0 -35z"/>
<path d="M13440 3225 l0 -35 70 0 70 0 0 35 0 35 -70 0 -70 0 0 -35z"/>
<path d="M9217 3123 c-2 -5 -7 -37 -11 -73 -4 -36 -10 -75 -13 -87 -5 -21 -1
-23 29 -23 l35 0 26 88 c15 49 27 92 27 95 0 10 -88 9 -93 0z"/>
<path d="M11507 3123 c-2 -5 -7 -37 -11 -73 -4 -36 -10 -75 -13 -87 -5 -21 -1
-23 29 -23 l35 0 26 88 c15 49 27 92 27 95 0 10 -88 9 -93 0z"/>
<path d="M6140 2025 l0 -515 5100 0 5100 0 0 515 0 515 -5100 0 -5100 0 0
-515z m2426 276 c52 -24 74 -68 74 -150 l0 -61 -70 0 -70 0 0 49 c0 64 -7 81
-35 81 -13 0 -26 -7 -29 -16 -3 -9 -6 -96 -6 -194 0 -98 3 -185 6 -194 8 -21
50 -21 58 0 3 9 6 40 6 70 l0 54 70 0 70 0 0 -62 c0 -114 -47 -169 -150 -176
-77 -6 -141 17 -172 61 -22 30 -23 43 -26 229 -3 180 -2 201 17 243 16 36 29
50 63 65 55 25 140 26 194 1z m1432 -1 c72 -32 82 -68 82 -290 0 -222 -10
-258 -82 -290 -55 -25 -131 -25 -186 0 -72 32 -82 68 -82 290 0 222 10 258 82
290 55 25 131 25 186 0z m1520 0 c72 -32 82 -68 82 -290 0 -222 -10 -258 -82
-290 -55 -25 -131 -25 -186 0 -72 32 -82 68 -82 290 0 222 10 258 82 290 55
25 131 25 186 0z m2849 1 c54 -25 73 -62 73 -146 l0 -65 -70 0 -70 0 0 53 c0
28 -4 58 -9 65 -12 19 -55 11 -59 -11 -7 -36 21 -76 93 -135 92 -76 119 -127
113 -213 -5 -68 -27 -105 -79 -131 -46 -24 -141 -23 -196 1 -55 26 -73 62 -73
151 l0 70 70 0 69 0 3 -67 c3 -66 4 -68 30 -71 22 -3 29 2 34 23 10 42 -13 80
-96 155 -91 82 -116 129 -108 210 6 56 32 93 83 116 45 20 142 17 192 -5z
m440 0 c54 -25 73 -62 73 -146 l0 -65 -70 0 -70 0 0 53 c0 28 -4 58 -9 65 -12
19 -55 11 -59 -11 -7 -36 21 -76 93 -135 92 -76 119 -127 113 -213 -5 -68 -27
-105 -79 -131 -46 -24 -141 -23 -196 1 -55 26 -73 62 -73 151 l0 70 70 0 69 0
3 -67 c3 -66 4 -68 30 -71 22 -3 29 2 34 23 10 42 -13 80 -96 155 -91 82 -116
129 -108 210 6 56 32 93 83 116 45 20 142 17 192 -5z m651 -1 c72 -32 82 -68
82 -290 0 -222 -10 -258 -82 -290 -55 -25 -131 -25 -186 0 -72 32 -82 68 -82
290 0 222 10 258 82 290 55 25 131 25 186 0z m-8756 -280 c20 -157 37 -291 38
-297 0 -9 -20 -13 -69 -13 l-70 0 -6 58 c-3 31 -7 64 -8 72 -1 10 -15 16 -38
18 -40 3 -36 11 -54 -105 l-7 -43 -59 0 c-32 0 -59 3 -59 6 0 7 88 529 96 567
l6 28 96 -3 97 -3 37 -285z m396 275 c57 -23 72 -56 72 -165 0 -63 -5 -100
-16 -121 -19 -39 -84 -68 -146 -69 l-48 0 0 -115 0 -115 -70 0 -70 0 0 300 0
300 120 0 c84 0 131 -5 158 -15z m440 0 c57 -23 72 -56 72 -165 0 -63 -5 -100
-16 -121 -19 -39 -84 -68 -146 -69 l-48 0 0 -115 0 -115 -70 0 -70 0 0 300 0
300 120 0 c84 0 131 -5 158 -15z m302 -240 l0 -255 75 0 75 0 0 -45 0 -45
-145 0 -145 0 0 300 0 300 70 0 70 0 0 -255z m360 -45 l0 -300 -70 0 -70 0 0
300 0 300 70 0 70 0 0 -300z m852 10 c20 -157 37 -291 38 -297 0 -9 -20 -13
-69 -13 l-70 0 -6 58 c-3 31 -7 64 -8 72 -1 10 -15 16 -38 18 -40 3 -36 11
-54 -105 l-7 -43 -59 0 c-32 0 -59 3 -59 6 0 7 88 529 96 567 l6 28 96 -3 97
-3 37 -285z m378 245 l0 -45 -50 0 -50 0 0 -255 0 -255 -70 0 -70 0 0 255 0
255 -50 0 -50 0 0 45 0 45 170 0 170 0 0 -45z m220 -255 l0 -300 -70 0 -70 0
0 300 0 300 70 0 70 0 0 -300z m720 243 c7 -32 27 -125 45 -208 l33 -150 1
208 1 207 55 0 55 0 0 -300 0 -301 -92 3 -92 3 -52 240 -52 240 -1 -242 -1
-243 -55 0 -55 0 0 300 0 300 99 0 100 0 11 -57z m810 12 l0 -45 -75 0 -75 0
0 -65 0 -65 75 0 75 0 0 -45 0 -45 -75 0 -75 0 0 -145 0 -145 -70 0 -70 0 0
300 0 300 145 0 145 0 0 -45z m771 35 c57 -16 82 -51 86 -118 4 -67 -9 -97
-56 -129 -26 -18 -29 -23 -15 -23 24 -1 47 -18 62 -47 7 -12 12 -65 12 -122 0
-55 4 -111 10 -125 l10 -26 -70 0 c-87 0 -90 5 -90 135 0 108 -9 135 -45 135
l-25 0 0 -135 0 -135 -70 0 -70 0 0 300 0 300 113 0 c61 0 128 -5 148 -10z
m751 -280 c20 -157 37 -291 38 -297 0 -9 -20 -13 -69 -13 l-70 0 -6 58 c-3 31
-7 64 -8 72 -1 10 -15 16 -38 18 -40 3 -36 11 -54 -105 l-7 -43 -59 0 c-32 0
-59 3 -59 6 0 7 88 529 96 567 l6 28 96 -3 97 -3 37 -285z m388 274 c68 -28
75 -49 78 -274 2 -171 1 -199 -15 -230 -31 -60 -71 -74 -210 -79 l-123 -3 0
301 0 301 115 0 c82 0 126 -5 155 -16z m402 -184 c15 -107 27 -197 28 -200 2
-4 57 363 59 393 1 4 46 7 101 7 l100 0 0 -300 0 -300 -65 0 -65 0 -2 228 -3
227 -35 -227 -34 -228 -62 0 c-56 0 -62 2 -67 23 -3 12 -20 121 -39 242 l-33
220 -3 -242 -2 -243 -55 0 -55 0 0 300 0 301 102 -3 103 -3 27 -195z m518
-100 l0 -300 -70 0 -70 0 0 300 0 300 70 0 70 0 0 -300z m1100 0 l0 -300 -70
0 -70 0 0 300 0 300 70 0 70 0 0 -300z m720 243 c7 -32 27 -125 45 -208 l33
-150 1 208 1 207 55 0 55 0 0 -300 0 -301 -92 3 -92 3 -52 240 -52 240 -1
-242 -1 -243 -55 0 -55 0 0 300 0 300 99 0 100 0 11 -57z"/>
<path d="M9876 2204 c-3 -9 -6 -96 -6 -194 0 -98 3 -185 6 -194 3 -9 16 -16
29 -16 13 0 26 7 29 16 3 9 6 96 6 194 0 98 -3 185 -6 194 -3 9 -16 16 -29 16
-13 0 -26 -7 -29 -16z"/>
<path d="M11396 2204 c-3 -9 -6 -96 -6 -194 0 -98 3 -185 6 -194 3 -9 16 -16
29 -16 13 0 26 7 29 16 3 9 6 96 6 194 0 98 -3 185 -6 194 -3 9 -16 16 -29 16
-13 0 -26 -7 -29 -16z"/>
<path d="M15336 2204 c-3 -9 -6 -96 -6 -194 0 -98 3 -185 6 -194 3 -9 16 -16
29 -16 13 0 26 7 29 16 3 9 6 96 6 194 0 98 -3 185 -6 194 -3 9 -16 16 -29 16
-13 0 -26 -7 -29 -16z"/>
<path d="M6549 2155 c-4 -5 -10 -54 -14 -107 -7 -95 -6 -98 14 -98 18 0 21 6
20 43 -2 78 -14 172 -20 162z"/>
<path d="M6960 2125 c0 -94 0 -95 25 -95 32 0 45 26 45 95 0 69 -13 95 -45 95
-25 0 -25 -1 -25 -95z"/>
<path d="M7400 2125 c0 -94 0 -95 25 -95 32 0 45 26 45 95 0 69 -13 95 -45 95
-25 0 -25 -1 -25 -95z"/>
<path d="M8899 2155 c-4 -5 -10 -54 -14 -107 -7 -95 -6 -98 14 -98 18 0 21 6
20 43 -2 78 -14 172 -20 162z"/>
<path d="M11830 2145 c0 -60 3 -75 15 -75 27 0 55 38 55 76 0 48 -16 74 -45
74 -24 0 -25 -2 -25 -75z"/>
<path d="M12549 2155 c-4 -5 -10 -54 -14 -107 -7 -95 -6 -98 14 -98 18 0 21 6
20 43 -2 78 -14 172 -20 162z"/>
<path d="M12960 2010 c0 -201 1 -210 19 -210 46 0 51 20 51 206 0 102 -4 183
-10 195 -6 11 -21 19 -35 19 l-25 0 0 -210z"/>
<path d="M1187 2134 c-95 -30 -169 -138 -184 -269 l-6 -50 39 35 c99 90 177
114 348 108 l121 -4 270 -92 c306 -104 409 -130 545 -137 l95 -5 -75 15 c-179
35 -345 96 -510 188 -52 29 -144 81 -205 115 -60 34 -135 72 -165 83 -73 28
-207 35 -273 13z"/>
<path d="M3880 2125 c-42 -13 -143 -63 -225 -111 -295 -169 -452 -236 -649
-274 l-101 -20 90 4 c154 8 255 34 625 163 l195 68 150 0 c149 0 151 0 215
-32 36 -18 82 -48 104 -67 21 -20 40 -36 43 -36 7 0 -8 72 -28 135 -23 73 -64
126 -127 162 -67 40 -187 43 -292 8z"/>
<path d="M1214 1806 c-144 -27 -223 -65 -282 -131 -79 -90 -94 -191 -67 -467
9 -101 24 -204 31 -229 34 -108 162 -181 334 -191 l55 -3 3 193 2 192 -36 0
c-20 0 -55 5 -76 12 -42 12 -138 91 -138 113 0 16 84 52 152 66 71 13 229 10
358 -8 57 -8 255 -45 440 -83 632 -129 724 -129 1367 9 366 78 462 93 618 94
110 1 142 -3 200 -22 39 -12 80 -30 93 -40 l23 -17 -40 -42 c-51 -53 -90 -72
-157 -79 l-54 -6 0 -194 0 -194 53 6 c177 20 280 75 322 169 17 38 27 93 40
224 23 226 18 348 -17 423 -70 153 -223 215 -528 213 -190 0 -251 -10 -580
-89 -623 -150 -717 -150 -1333 -1 -103 25 -238 55 -300 67 -144 26 -384 34
-483 15z m421 -35 c72 -11 243 -47 380 -80 294 -71 392 -89 538 -100 204 -15
356 5 752 99 326 77 402 90 570 97 106 4 163 1 235 -11 228 -40 319 -128 328
-317 5 -97 -6 -279 -16 -279 -4 0 -13 14 -21 32 -19 42 -89 112 -140 137 -150
77 -378 72 -803 -19 -789 -169 -823 -170 -1567 -10 -537 115 -780 104 -916
-41 -25 -26 -50 -60 -57 -74 -6 -14 -14 -25 -17 -25 -20 0 -21 317 -2 385 20
69 96 144 176 175 137 51 343 63 560 31z m-588 -532 c47 -52 108 -87 166 -95
l47 -7 0 -164 0 -165 -52 7 c-202 28 -310 126 -295 269 5 54 33 119 71 168 12
15 22 27 24 27 1 1 19 -17 39 -40z m3335 -54 c14 -26 23 -65 25 -110 4 -60 1
-77 -19 -115 -41 -76 -135 -127 -270 -145 l-48 -6 0 164 0 164 41 7 c59 9 113
40 162 92 l42 45 23 -28 c13 -15 33 -46 44 -68z"/>
<path d="M3930 1630 c0 -25 -3 -69 -6 -97 l-7 -53 77 0 c60 0 76 3 76 14 0 11
-15 16 -52 18 -46 3 -53 6 -56 26 -3 20 0 22 47 22 44 0 51 3 51 20 0 17 -7
20 -45 20 -38 0 -45 3 -45 20 0 17 7 20 50 20 36 0 50 4 50 14 0 11 -18 15
-70 18 l-70 3 0 -45z"/>
<path d="M1248 1658 c-42 -34 -18 -84 48 -103 49 -13 52 -39 6 -43 -22 -2 -34
2 -38 12 -8 20 -44 21 -44 2 0 -22 49 -56 82 -56 30 0 78 38 78 63 0 25 -25
48 -70 61 -46 14 -53 24 -26 41 10 6 20 4 34 -8 20 -19 52 -23 52 -7 0 39 -87
66 -122 38z"/>
<path d="M1419 1646 c0 -12 -4 -54 -8 -95 -4 -48 -3 -74 4 -76 5 -2 38 -6 73
-9 57 -5 62 -4 62 14 0 17 -7 20 -50 20 -47 0 -50 2 -50 25 0 23 3 25 50 25
66 0 70 25 5 34 -36 6 -45 11 -45 27 0 18 5 19 49 13 39 -5 49 -3 54 10 8 20
-1 24 -80 28 -58 4 -63 3 -64 -16z"/>
<path d="M3830 1605 c-7 -36 -15 -65 -19 -65 -3 0 -18 27 -33 60 -20 47 -31
60 -48 60 -12 0 -20 -4 -18 -8 42 -105 84 -182 99 -182 24 0 28 8 50 101 23
99 23 99 0 99 -15 0 -21 -12 -31 -65z"/>
<path d="M1610 1638 c0 -2 -7 -41 -15 -88 -19 -106 -19 -100 5 -100 14 0 21 9
26 36 9 46 32 42 60 -11 13 -25 28 -41 42 -43 20 -3 21 -1 11 24 -5 16 -15 34
-20 40 -7 9 -2 20 16 38 42 42 26 81 -40 96 -38 9 -85 13 -85 8z m97 -49 c16
-16 5 -39 -17 -39 -32 0 -50 11 -50 31 0 14 7 19 28 19 15 0 33 -5 39 -11z"/>
<path d="M3574 1630 c-57 -23 -72 -107 -28 -159 34 -40 89 -43 131 -7 24 21
28 31 27 72 -1 40 -6 52 -33 76 -32 28 -59 34 -97 18z m81 -65 c21 -50 0 -95
-46 -95 -18 0 -49 41 -49 66 0 42 17 64 51 64 25 0 33 -6 44 -35z"/>
<path d="M1780 1606 c0 -7 5 -39 10 -72 6 -32 13 -74 16 -91 4 -26 10 -33 27
-33 17 0 33 19 70 84 26 46 47 86 47 90 0 3 -9 6 -19 6 -13 0 -30 -20 -54 -62
l-35 -62 -6 45 c-14 87 -17 97 -37 102 -11 3 -19 0 -19 -7z"/>
<path d="M3360 1571 c0 -23 29 -163 34 -169 2 -2 31 2 65 9 42 8 61 16 61 27
0 12 -9 13 -49 8 l-48 -6 -13 75 c-11 62 -16 75 -31 75 -12 0 -19 -7 -19 -19z"/>
<path d="M1951 1498 c-7 -40 -15 -81 -17 -91 -5 -16 20 -36 31 -25 3 2 13 46
24 96 l18 92 -22 0 c-19 0 -23 -8 -34 -72z"/>
<path d="M3213 1552 c-9 -6 -10 -17 -4 -40 9 -30 8 -32 -22 -40 -40 -11 -43
-9 -50 28 -5 21 -12 30 -26 30 -22 0 -22 -4 5 -124 15 -67 17 -71 39 -62 11 4
14 13 11 26 -3 11 -8 28 -11 39 -4 13 1 20 17 25 47 12 55 7 62 -33 5 -33 9
-38 26 -34 11 3 20 7 20 9 0 2 -6 31 -35 162 -6 23 -12 26 -32 14z"/>
<path d="M2057 1539 c-22 -13 -47 -68 -47 -103 0 -33 38 -75 75 -82 22 -4 38
0 58 16 31 25 34 35 11 44 -10 4 -21 0 -28 -10 -18 -24 -59 -14 -70 18 -21 60
39 124 75 79 23 -28 59 -29 52 -1 -11 43 -82 65 -126 39z"/>
<path d="M2215 1498 c-8 -40 -25 -141 -25 -154 0 -7 28 -17 66 -24 55 -11 68
-10 75 1 9 14 -1 19 -74 34 -24 5 -27 9 -21 28 3 12 7 23 8 24 1 1 19 -2 41
-7 42 -10 55 -6 55 14 0 9 -18 16 -45 20 -36 6 -45 11 -45 27 0 19 4 20 43 14
23 -4 46 -8 51 -9 6 0 11 6 13 15 3 13 -9 19 -60 28 -81 14 -76 15 -82 -11z"/>
<path d="M2978 1508 c-35 -7 -48 -15 -48 -27 0 -14 7 -17 29 -13 l29 4 12 -76
c11 -65 16 -76 33 -76 21 0 21 6 1 122 -6 34 -4 38 20 44 14 3 26 12 26 20 0
16 -31 17 -102 2z"/>
<path d="M2885 1416 c6 -68 5 -75 -13 -85 -35 -19 -50 -4 -57 57 -4 32 -9 65
-11 75 -6 18 -29 23 -38 9 -9 -16 16 -147 32 -164 22 -26 86 -24 113 3 19 19
20 28 14 92 -8 82 -10 87 -32 87 -13 0 -14 -11 -8 -74z"/>
<path d="M2440 1465 c0 -7 10 -15 23 -17 21 -3 22 -7 19 -85 -2 -76 -1 -83 17
-83 16 0 20 10 26 79 l7 79 34 4 34 4 0 -83 c0 -76 2 -83 20 -83 17 0 20 7 20
40 0 55 17 53 59 -7 15 -22 30 -33 47 -33 l25 0 -22 33 c-13 17 -28 35 -34 39
-6 5 -1 13 13 23 27 20 30 70 5 83 -10 5 -80 12 -155 15 -114 5 -138 4 -138
-8z m265 -50 c0 -15 -8 -21 -32 -23 -30 -3 -33 -1 -33 23 0 24 3 26 33 23 24
-2 32 -8 32 -23z"/>
<path d="M9287 1116 c-71 -26 -97 -70 -97 -163 l0 -43 70 0 70 0 0 55 c0 44 4
56 20 65 32 17 60 -4 60 -44 0 -36 -23 -71 -114 -175 -73 -84 -98 -136 -104
-222 l-5 -69 182 0 181 0 0 45 0 45 -110 0 c-68 0 -110 4 -110 10 0 19 47 84
114 158 36 40 72 85 81 101 42 81 23 182 -41 222 -45 27 -144 35 -197 15z"/>
<path d="M9745 1116 c-48 -18 -81 -53 -94 -104 -6 -20 -11 -113 -11 -206 0
-149 2 -175 20 -211 28 -59 69 -80 155 -80 91 1 130 21 157 81 18 41 19 63 16
237 -3 213 -11 242 -69 273 -45 23 -126 27 -174 10z m94 -90 c8 -9 11 -74 9
-211 -3 -172 -5 -199 -20 -208 -12 -8 -21 -7 -32 2 -14 11 -16 43 -16 210 0
197 4 221 36 221 6 0 17 -6 23 -14z"/>
<path d="M10167 1116 c-71 -26 -97 -70 -97 -163 l0 -43 70 0 70 0 0 55 c0 44
4 56 20 65 32 17 60 -4 60 -44 0 -36 -23 -71 -114 -175 -73 -84 -98 -136 -104
-222 l-5 -69 182 0 181 0 0 45 0 45 -110 0 c-68 0 -110 4 -110 10 0 19 47 84
114 158 36 40 72 85 81 101 42 81 23 182 -41 222 -45 27 -144 35 -197 15z"/>
<path d="M10607 1116 c-71 -26 -97 -70 -97 -163 l0 -43 70 0 70 0 0 55 c0 44
4 56 20 65 32 17 60 -4 60 -44 0 -36 -23 -71 -114 -175 -73 -84 -98 -136 -104
-222 l-5 -69 182 0 181 0 0 45 0 45 -110 0 c-68 0 -110 4 -110 10 0 19 47 84
114 158 36 40 72 85 81 101 42 81 23 182 -41 222 -45 27 -144 35 -197 15z"/>
<path d="M11557 1116 c-71 -26 -97 -70 -97 -163 l0 -43 70 0 70 0 0 55 c0 44
4 56 20 65 32 17 60 -4 60 -44 0 -36 -23 -71 -114 -175 -73 -84 -98 -136 -104
-222 l-5 -69 182 0 181 0 0 45 0 45 -110 0 c-68 0 -110 4 -110 10 0 19 47 84
114 158 36 40 72 85 81 101 42 81 23 182 -41 222 -45 27 -144 35 -197 15z"/>
<path d="M12015 1116 c-48 -18 -81 -53 -94 -104 -6 -20 -11 -113 -11 -206 0
-149 2 -175 20 -211 28 -59 69 -80 155 -80 91 1 130 21 157 81 18 41 19 63 16
237 -3 213 -11 242 -69 273 -45 23 -126 27 -174 10z m94 -90 c8 -9 11 -74 9
-211 -3 -172 -5 -199 -20 -208 -12 -8 -21 -7 -32 2 -14 11 -16 43 -16 210 0
197 4 221 36 221 6 0 17 -6 23 -14z"/>
<path d="M12437 1116 c-71 -26 -97 -70 -97 -163 l0 -43 70 0 70 0 0 55 c0 44
4 56 20 65 32 17 60 -4 60 -44 0 -36 -23 -71 -114 -175 -73 -84 -98 -136 -104
-222 l-5 -69 182 0 181 0 0 45 0 45 -110 0 c-68 0 -110 4 -110 10 0 19 47 84
114 158 36 40 72 85 81 101 42 81 23 182 -41 222 -45 27 -144 35 -197 15z"/>
<path d="M12887 1116 c-72 -27 -97 -68 -97 -161 l0 -55 70 0 70 0 0 59 c0 67
15 90 49 71 18 -9 21 -20 21 -70 0 -50 -4 -61 -22 -74 -12 -9 -37 -16 -55 -16
-32 0 -33 -1 -33 -45 l0 -45 43 0 c24 0 48 -5 55 -12 19 -19 16 -143 -4 -159
-30 -25 -49 1 -52 75 l-3 66 -69 0 -70 0 0 -66 c0 -125 44 -168 170 -169 127
0 180 50 180 172 0 80 -13 112 -50 126 -37 14 -37 20 -4 35 52 24 72 147 34
209 -10 18 -34 39 -51 49 -44 22 -135 28 -182 10z"/>
<path d="M10960 790 l0 -50 90 0 90 0 0 50 0 50 -90 0 -90 0 0 -50z"/>
<path d="M260 225 l0 -35 12225 0 12225 0 0 35 0 35 -12225 0 -12225 0 0 -35z"/>
</g>
</svg>
