<?xml version="1.0" standalone="no"?>
<!DOCTYPE svg PUBLIC "-//W3C//DTD SVG 20010904//EN"
 "http://www.w3.org/TR/2001/REC-SVG-20010904/DTD/svg10.dtd">
<svg version="1.0" xmlns="http://www.w3.org/2000/svg"
 width="1818.000000pt" height="400.000000pt" viewBox="218 -50 1818.000000 613.000000"
 preserveAspectRatio="xMidYMid meet">

<g transform="translate(0.000000,613.000000) scale(0.1200000,-0.1200000)"
fill="#000000" stroke="none">
<path d="M2515 5089 c-611 -48 -1165 -466 -1390 -1049 -74 -190 -108 -379
-107 -600 0 -262 53 -483 172 -725 159 -322 415 -579 738 -740 950 -476 2103
69 2338 1105 102 449 18 900 -242 1293 -89 135 -300 347 -434 436 -248 165
-515 259 -804 281 -133 10 -128 10 -271 -1z m225 -77 l0 -48 105 -12 c598 -71
1102 -499 1270 -1077 44 -152 58 -257 58 -430 0 -314 -83 -583 -264 -855 -80
-121 -262 -304 -385 -387 -203 -138 -460 -237 -669 -258 -33 -3 -76 -8 -95
-10 -19 -2 -50 -4 -67 -4 -29 -1 -33 -4 -33 -28 l0 -26 -97 6 c-634 40 -1187
466 -1387 1068 -69 208 -96 423 -77 620 22 233 71 402 173 600 223 433 641
740 1127 824 46 8 106 15 132 15 45 0 49 -2 49 -24 0 -22 -5 -24 -72 -30 -171
-17 -361 -72 -523 -153 -433 -216 -734 -623 -816 -1104 -29 -171 -23 -423 14
-579 96 -402 321 -725 657 -943 226 -146 455 -221 738 -242 l82 -6 0 30 c0 31
0 31 -57 31 -32 0 -103 7 -158 15 -848 127 -1405 960 -1199 1793 136 552 580
975 1135 1083 55 10 104 19 109 19 6 0 10 -25 10 -55 l0 -55 40 0 40 0 0 -130
0 -130 -39 0 c-81 0 -252 -50 -366 -107 -270 -136 -476 -385 -559 -675 -77
-268 -52 -527 75 -785 l60 -123 -27 -35 c-77 -101 -69 -260 20 -391 81 -120
182 -172 501 -257 166 -45 233 -70 296 -113 28 -19 53 -34 55 -34 8 0 4 48 -8
81 -32 95 -114 161 -303 244 -189 84 -305 162 -305 207 0 31 43 21 121 -27
133 -82 316 -141 472 -152 l87 -6 0 -183 0 -184 43 0 c74 0 208 20 315 46 817
201 1293 1071 1026 1874 -156 467 -543 828 -1018 949 -61 16 -132 32 -158 35
l-48 7 0 -55 0 -56 -40 0 -40 0 0 -128 0 -128 85 -12 c607 -88 1026 -690 900
-1293 -21 -101 -52 -184 -108 -291 l-50 -97 26 -30 c96 -115 66 -323 -67 -457
-76 -75 -184 -124 -411 -185 -194 -52 -293 -90 -351 -134 -18 -14 -35 -25 -37
-25 -2 0 -1 20 3 44 15 103 107 194 257 256 135 56 270 129 317 174 51 47 55
60 26 76 -17 9 -31 5 -80 -25 -89 -54 -216 -111 -300 -134 -87 -24 -252 -46
-275 -37 -13 5 -15 24 -13 128 l3 123 327 3 c392 3 398 2 398 -74 0 -44 -4
-51 -50 -96 -39 -37 -91 -68 -218 -130 -92 -44 -187 -95 -212 -112 -45 -30
-100 -84 -100 -97 0 -4 26 6 58 22 32 16 148 58 257 95 325 107 408 165 460
322 41 126 1 232 -110 287 l-60 30 -375 5 -375 5 -2 100 c-2 103 5 125 38 125
17 0 19 -8 19 -75 l0 -75 50 0 50 0 1 58 c1 62 4 89 20 170 l10 52 137 1 c75
0 152 1 170 2 19 1 36 -1 38 -5 8 -12 -119 -133 -160 -152 -22 -10 -68 -21
-103 -24 l-63 -5 0 -43 0 -44 73 0 c137 0 254 48 342 141 120 126 162 323 111
516 -8 29 -11 55 -6 58 4 3 53 8 109 11 l101 7 0 92 c0 87 -1 94 -25 109 -16
10 -46 16 -88 16 -57 0 -65 -2 -77 -25 -8 -16 -11 -44 -7 -84 5 -57 4 -59 -20
-64 -21 -4 -28 3 -50 46 -36 71 -120 157 -243 245 -123 88 -214 173 -240 222
-21 41 -40 134 -40 197 l0 43 -50 0 -50 0 0 170 0 170 40 0 40 0 0 40 0 40
-40 0 -40 0 0 60 c0 57 -1 60 -25 60 -16 0 -25 6 -25 15 0 11 11 15 40 15 l40
0 0 -48z m-80 -546 l0 -554 43 -7 c86 -13 193 -47 262 -83 63 -33 175 -129
175 -149 0 -4 -28 -24 -62 -43 -85 -49 -184 -144 -243 -234 l-49 -76 -52 0
c-63 0 -75 12 -72 75 3 45 5 48 41 60 80 27 121 99 99 173 -14 47 -60 92 -104
101 l-33 7 -3 87 c-3 102 3 99 -132 67 -114 -28 -219 -81 -288 -147 l-57 -54
-75 25 c-41 15 -82 26 -90 26 -39 0 -43 16 -14 65 41 71 115 141 247 235 191
135 257 222 257 339 0 20 3 53 6 73 6 36 8 37 53 40 l46 3 3 168 2 167 -45 0
c-45 0 -45 0 -45 34 0 34 1 35 43 38 l42 3 3 58 c3 49 6 57 22 57 20 0 20 -11
20 -554z m408 326 c10 -7 9 -17 -3 -52 -18 -52 -13 -73 17 -68 17 2 26 15 37
51 15 47 24 54 51 38 12 -8 8 -29 -25 -135 -40 -125 -49 -139 -82 -118 -10 6
-9 20 4 61 15 45 15 53 3 61 -28 18 -39 10 -55 -46 -14 -49 -18 -54 -38 -48
-12 3 -24 8 -27 11 -3 3 44 159 71 231 9 23 25 28 47 14z m232 -92 c18 -10 16
-17 -38 -130 -56 -116 -69 -131 -100 -111 -11 6 0 35 47 130 34 66 64 121 67
121 3 0 14 -5 24 -10z m178 -106 c35 -25 46 -51 32 -85 -14 -32 -18 -34 -42
-16 -11 9 -14 22 -11 40 4 20 1 29 -13 34 -20 7 -57 -32 -101 -105 -20 -34
-23 -45 -13 -57 7 -8 18 -15 25 -15 18 0 46 45 35 56 -5 5 -5 15 -1 23 7 11
14 10 40 -5 17 -10 31 -22 31 -27 0 -10 -69 -107 -76 -107 -12 0 -71 34 -91
53 -27 24 -29 47 -7 89 23 44 83 126 97 132 26 10 74 5 95 -10z m162 -139 c11
-14 7 -22 -29 -59 l-42 -42 21 -19 c20 -18 21 -18 60 20 39 38 40 38 60 20 21
-19 21 -19 -52 -93 -40 -40 -85 -82 -101 -93 -25 -19 -28 -19 -43 -4 -16 15
-14 20 26 60 43 44 43 45 25 65 l-19 21 -43 -43 -43 -42 -21 20 -20 21 98 91
c54 51 101 92 104 92 4 0 12 -7 19 -15z m217 -301 c28 -8 63 -62 63 -97 0 -15
-9 -32 -22 -41 -29 -21 -35 -20 -48 4 -9 17 -7 24 11 39 20 16 20 18 5 34 -28
27 -56 6 -56 -42 0 -58 -18 -98 -50 -111 -42 -18 -72 -9 -97 29 -27 40 -29 77
-6 103 21 23 35 23 50 -1 10 -16 8 -22 -7 -36 -15 -13 -17 -22 -9 -36 24 -46
69 -8 69 60 0 49 11 71 45 89 24 13 24 13 52 6z m-1949 -179 c18 -40 15 -68
-18 -137 -39 -81 -39 -98 -1 -98 47 0 160 -26 240 -56 145 -54 283 -168 365
-301 l39 -63 63 0 64 0 0 -110 0 -110 -30 0 -30 0 0 -76 0 -75 -42 3 -43 3 -8
70 c-23 211 -119 405 -257 521 -92 76 -264 135 -400 135 -82 0 -120 16 -120
49 0 16 7 20 38 20 49 0 53 5 35 41 -19 39 -13 63 37 128 22 30 40 61 40 68 0
22 16 15 28 -12z m2058 -50 c28 -19 48 -69 40 -100 -3 -13 -19 -31 -35 -40
-28 -14 -29 -14 -35 11 -5 18 -1 30 14 42 14 12 17 21 10 32 -8 12 -16 13 -57
2 -84 -23 -135 -50 -131 -69 3 -13 12 -18 36 -17 26 2 33 -2 38 -22 7 -29 7
-29 -28 -38 -69 -16 -116 102 -58 145 23 18 152 68 175 69 6 0 20 -7 31 -15z
m-476 -130 c0 -73 -1 -75 -25 -75 -24 0 -25 2 -25 75 0 73 1 75 25 75 24 0 25
-2 25 -75z m80 0 c0 -73 -1 -75 -25 -75 -24 0 -25 2 -25 75 0 73 1 75 25 75
24 0 25 -2 25 -75z m-910 -205 c0 -157 -2 -160 -68 -120 -93 57 -94 192 -1
242 68 36 69 35 69 -122z m1383 88 c8 -31 4 -35 -53 -42 -46 -6 -50 -9 -50
-33 0 -26 0 -26 61 -20 l60 7 -3 -27 c-3 -27 -6 -28 -118 -45 -151 -23 -150
-23 -150 6 0 25 16 36 55 36 39 0 55 11 55 37 0 25 -1 25 -59 19 -55 -6 -60
-5 -66 14 -4 12 -5 24 -2 27 4 4 203 37 253 42 7 0 14 -9 17 -21z m-1993 -54
c67 -21 80 -28 75 -42 -19 -48 -36 -137 -38 -196 l-2 -68 157 2 157 1 16 -30
c8 -17 15 -35 15 -41 0 -6 -53 -10 -155 -10 -85 0 -155 -4 -155 -8 0 -5 25
-36 55 -69 70 -78 137 -113 217 -113 l58 0 0 -46 0 -47 -87 6 c-266 18 -434
185 -450 448 -5 75 8 207 23 231 8 13 28 10 114 -18z m1154 -72 c17 -51 36
-160 36 -204 l0 -28 -176 0 -175 0 43 61 c23 34 61 82 83 107 42 48 152 125
165 117 5 -3 15 -27 24 -53z m825 -136 c30 -14 42 -55 30 -101 -14 -50 -38
-59 -137 -52 -92 7 -128 23 -138 62 -8 34 14 95 40 105 27 11 173 1 205 -14z
m-115 -236 c38 -11 77 -27 87 -36 37 -34 12 -128 -36 -140 -31 -8 -155 23
-197 49 -28 17 -30 21 -25 63 9 86 47 100 171 64z m-79 -237 c63 -32 115 -60
115 -63 0 -4 -6 -14 -13 -24 -12 -17 -20 -15 -115 33 -56 28 -103 51 -106 51
-2 0 -9 -13 -16 -30 -13 -32 -18 -34 -37 -22 -9 6 -5 21 14 60 14 29 29 52 34
52 5 0 61 -26 124 -57z m-1175 -198 l0 -125 -337 0 c-391 0 -386 1 -391 -74
-3 -47 -1 -50 47 -97 39 -37 93 -70 225 -134 182 -90 250 -132 286 -178 27
-33 22 -34 -42 -1 -28 14 -139 55 -246 91 -108 35 -223 78 -255 95 -156 78
-245 232 -216 371 9 42 21 61 58 98 77 74 96 77 514 78 l357 1 0 -125z"/>
<path d="M2185 4770 c-20 -8 -21 -11 -9 -101 7 -52 13 -113 13 -136 1 -48 7
-54 39 -42 20 7 23 14 17 37 -5 24 -2 30 22 41 16 7 29 9 31 3 10 -32 30 -44
54 -36 l26 9 -71 117 c-71 116 -81 125 -122 108z m85 -152 c0 -5 -8 -8 -19 -8
-14 0 -20 10 -25 38 -10 64 -6 69 19 22 13 -25 24 -48 25 -52z"/>
<path d="M1943 4661 c-35 -22 -48 -50 -37 -83 13 -46 34 -58 95 -58 48 0 60
-4 73 -22 25 -36 -16 -67 -44 -33 -9 11 -17 12 -34 3 -31 -16 -31 -16 -6 -43
27 -29 60 -32 100 -8 37 21 54 55 46 88 -11 42 -40 60 -109 65 -55 4 -62 8
-65 28 -4 29 26 42 44 18 10 -15 15 -15 33 -4 26 16 27 30 3 51 -24 22 -60 21
-99 -2z"/>
<path d="M1780 4545 c-10 -13 -10 -18 2 -33 8 -9 39 -46 69 -82 59 -71 58 -70
-48 14 l-73 58 -29 -24 c-17 -12 -30 -26 -30 -30 -1 -10 169 -208 178 -208 5
0 14 6 20 13 9 11 -3 31 -54 90 -36 42 -65 79 -65 82 0 3 36 -24 79 -60 43
-36 83 -65 87 -65 5 0 22 12 37 25 l28 25 -87 103 c-47 56 -90 103 -94 105 -4
1 -13 -4 -20 -13z"/>
<path d="M1547 4310 c-56 -66 -48 -92 54 -167 84 -63 115 -67 152 -23 55 64
45 90 -60 170 -79 60 -110 64 -146 20z m126 -78 c54 -43 70 -73 46 -88 -12 -7
-102 52 -138 90 -20 22 -21 25 -6 40 19 19 20 18 98 -42z"/>
<path d="M1422 4115 c-7 -14 -12 -27 -12 -29 0 -1 23 -13 50 -26 55 -26 56
-27 35 -53 -13 -18 -15 -18 -60 8 -25 15 -47 26 -49 24 -2 -2 -8 -14 -15 -26
-10 -20 -5 -25 103 -82 62 -34 118 -61 124 -61 10 0 32 30 32 43 0 2 -22 14
-50 27 -51 24 -57 33 -40 60 8 13 17 11 63 -12 l54 -27 12 26 c7 14 10 27 9
28 -2 2 -193 100 -239 123 -3 1 -11 -9 -17 -23z"/>
<path d="M1327 3862 c-20 -22 -49 -114 -39 -123 7 -7 255 -79 258 -76 2 1 5
14 9 28 6 25 4 27 -44 40 l-51 13 6 47 c6 46 5 49 -27 68 -42 26 -91 27 -112
3z m77 -48 c16 -6 23 -54 7 -54 -22 0 -71 23 -71 34 0 25 28 34 64 20z"/>
<path d="M1498 3598 l-3 -33 -95 3 c-52 1 -105 5 -117 7 -20 5 -23 1 -23 -24
0 -33 7 -35 174 -47 103 -8 106 -6 106 74 0 45 -3 52 -19 52 -15 0 -21 -8 -23
-32z"/>
<path d="M1382 3412 l-123 -37 3 -35 c3 -34 5 -35 53 -42 28 -4 89 -13 138
-21 l87 -14 0 28 c0 25 -4 29 -29 29 -24 0 -29 5 -33 31 -3 20 0 32 9 35 7 2
20 6 28 9 18 5 20 55 3 54 -7 0 -68 -17 -136 -37z m52 -58 c9 -24 4 -26 -55
-18 l-54 8 40 12 c54 17 62 17 69 -2z"/>
<path d="M3823 3365 c-9 -24 22 -45 66 -45 20 0 52 -3 72 -6 26 -5 40 -2 53
11 16 16 16 19 1 34 -11 11 -40 17 -100 20 -74 3 -86 1 -92 -14z"/>
<path d="M3786 3134 c-13 -33 -1 -40 108 -68 61 -16 86 -10 86 20 0 18 -12 24
-94 45 -87 23 -92 23 -100 3z"/>
<path d="M6840 4558 c-19 -5 -49 -21 -67 -34 -52 -39 -63 -95 -63 -314 0 -219
11 -275 63 -314 60 -46 151 -58 228 -31 55 20 77 40 100 90 16 35 19 68 19
255 0 187 -3 220 -19 255 -23 50 -45 70 -100 90 -49 17 -109 18 -161 3z m108
-110 c9 -9 12 -76 12 -238 0 -162 -3 -229 -12 -238 -18 -18 -56 -14 -68 7 -6
12 -10 104 -10 231 0 127 4 219 10 231 12 21 50 25 68 7z"/>
<path d="M7865 4561 c-61 -16 -96 -42 -116 -84 -49 -110 -4 -212 144 -325 59
-45 87 -88 87 -134 0 -39 -15 -58 -45 -58 -36 0 -45 20 -45 97 l0 73 -81 0
-81 0 4 -89 c4 -103 19 -133 84 -166 57 -29 183 -28 240 2 54 29 84 88 84 164
-1 93 -43 157 -168 252 -29 22 -60 53 -68 68 -27 53 -13 99 31 99 35 0 45 -20
45 -87 l0 -63 80 0 80 0 0 71 c0 90 -19 133 -72 160 -44 22 -154 33 -203 20z"/>
<path d="M14995 4561 c-61 -16 -96 -42 -116 -84 -49 -110 -4 -212 144 -325 59
-45 87 -88 87 -134 0 -39 -15 -58 -45 -58 -36 0 -45 20 -45 97 l0 73 -81 0
-81 0 4 -89 c4 -103 19 -133 84 -166 57 -29 183 -28 240 2 75 40 107 158 69
251 -18 42 -88 117 -158 169 -26 19 -54 48 -62 64 -28 53 -14 99 30 99 35 0
45 -20 45 -87 l0 -63 80 0 80 0 0 71 c0 90 -19 133 -72 160 -44 22 -154 33
-203 20z"/>
<path d="M15471 4556 c-103 -34 -121 -86 -121 -346 0 -215 11 -272 61 -314 39
-33 68 -41 154 -41 134 0 195 64 195 203 l0 72 -80 0 -80 0 0 -73 c0 -43 -5
-78 -12 -85 -18 -18 -56 -14 -68 7 -6 12 -10 104 -10 231 0 127 4 219 10 231
12 21 50 25 68 7 7 -7 12 -39 12 -75 l0 -63 81 0 82 0 -5 80 c-5 93 -22 124
-82 154 -49 24 -149 30 -205 12z"/>
<path d="M16461 4556 c-103 -34 -121 -86 -121 -346 0 -213 11 -273 60 -313 62
-52 203 -59 272 -14 18 12 43 42 56 67 21 42 22 56 22 257 0 223 -6 260 -48
306 -44 49 -160 69 -241 43z m117 -108 c9 -9 12 -76 12 -238 0 -162 -3 -229
-12 -238 -18 -18 -56 -14 -68 7 -6 12 -10 104 -10 231 0 127 4 219 10 231 12
21 50 25 68 7z"/>
<path d="M16951 4556 c-103 -34 -121 -86 -121 -346 0 -213 11 -273 60 -313 62
-52 203 -59 272 -14 18 12 43 42 56 67 21 42 22 56 22 257 0 223 -6 260 -48
306 -44 49 -160 69 -241 43z m117 -108 c9 -9 12 -76 12 -238 0 -162 -3 -229
-12 -238 -18 -18 -56 -14 -68 7 -6 12 -10 104 -10 231 0 127 4 219 10 231 12
21 50 25 68 7z"/>
<path d="M4926 4533 c-3 -16 -28 -165 -56 -333 -28 -168 -53 -313 -56 -322 -5
-16 3 -18 64 -18 l69 0 13 86 12 85 47 -3 46 -3 9 -82 8 -83 80 0 80 0 -6 38
c-3 20 -22 163 -41 317 -19 154 -37 295 -40 313 l-6 32 -109 0 -108 0 -6 -27z
m123 -375 c1 -25 -3 -28 -30 -28 l-31 0 6 53 c3 28 8 86 11 127 10 131 18 131
31 0 7 -69 13 -137 13 -152z"/>
<path d="M5320 4210 l0 -350 170 0 170 0 0 50 0 50 -90 0 -90 0 0 300 0 300
-80 0 -80 0 0 -350z"/>
<path d="M5720 4211 l0 -351 80 0 80 0 0 134 0 133 69 6 c76 6 113 21 151 62
23 25 25 35 28 143 2 103 0 121 -17 149 -36 57 -68 67 -238 71 l-153 4 0 -351z
m234 233 c12 -11 16 -36 16 -99 0 -94 -11 -115 -61 -115 l-29 0 0 115 0 115
29 0 c16 0 37 -7 45 -16z"/>
<path d="M6210 4210 l0 -350 80 0 80 0 0 170 0 170 45 0 45 0 0 -170 0 -170
80 0 80 0 0 350 0 350 -80 0 -80 0 0 -130 0 -130 -45 0 -45 0 0 130 0 130 -80
0 -80 0 0 -350z"/>
<path d="M7190 4210 l0 -350 65 0 65 0 1 293 1 292 62 -290 62 -290 107 -3
107 -3 0 351 0 350 -65 0 -65 0 -2 -252 -3 -251 -38 184 c-22 101 -46 214 -54
252 l-15 67 -114 0 -114 0 0 -350z"/>
<path d="M8326 4533 c-3 -16 -28 -163 -56 -328 -27 -165 -52 -310 -55 -322 -5
-22 -3 -23 63 -23 l69 0 13 86 12 85 47 -3 46 -3 9 -82 8 -83 80 0 80 0 -6 38
c-3 20 -22 163 -41 317 -19 154 -37 295 -40 313 l-6 32 -109 0 -108 0 -6 -27z
m123 -375 c1 -25 -3 -28 -30 -28 l-31 0 6 53 c3 28 8 86 11 127 10 131 18 131
31 0 7 -69 13 -137 13 -152z"/>
<path d="M8990 4211 l0 -351 80 0 80 0 0 134 0 133 69 6 c76 6 113 21 151 62
23 25 25 35 28 143 2 104 1 121 -18 150 -33 53 -75 65 -242 70 l-148 4 0 -351z
m234 233 c12 -11 16 -36 16 -99 0 -94 -11 -115 -61 -115 l-29 0 0 115 0 115
29 0 c16 0 37 -7 45 -16z"/>
<path d="M9480 4211 l0 -351 80 0 80 0 0 160 0 160 25 0 c14 0 34 -9 45 -20
18 -18 20 -33 20 -134 0 -63 4 -126 10 -140 9 -25 13 -26 90 -26 l80 0 -10 26
c-6 14 -10 76 -10 138 0 62 -5 127 -11 145 -12 33 -52 60 -91 62 -20 1 -20 2
8 14 68 30 103 103 90 186 -16 100 -57 121 -258 127 l-148 4 0 -351z m230 229
c15 -15 20 -33 20 -70 0 -57 -24 -90 -65 -90 -25 0 -25 1 -25 90 0 89 0 90 25
90 14 0 34 -9 45 -20z"/>
<path d="M9970 4210 l0 -350 170 0 170 0 0 50 0 50 -90 0 -90 0 0 120 0 120
85 0 85 0 0 50 0 50 -85 0 -85 0 0 80 0 80 90 0 90 0 0 50 0 50 -170 0 -170 0
0 -350z"/>
<path d="M11200 4211 l0 -351 80 0 80 0 0 135 0 135 48 0 c69 0 119 17 160 55
l37 33 3 119 c2 104 0 122 -17 150 -35 56 -68 66 -238 71 l-153 4 0 -351z
m234 233 c12 -11 16 -36 16 -99 0 -94 -11 -115 -61 -115 l-29 0 0 115 0 115
29 0 c16 0 37 -7 45 -16z"/>
<path d="M11700 4211 l0 -351 80 0 80 0 0 160 0 160 25 0 c14 0 34 -9 45 -20
18 -18 20 -33 20 -134 0 -63 4 -126 10 -140 9 -25 13 -26 90 -26 l80 0 -10 26
c-6 14 -10 76 -10 138 0 62 -5 127 -11 145 -12 33 -52 60 -91 62 -20 1 -20 2
8 14 68 30 103 103 90 188 -16 99 -56 119 -258 125 l-148 4 0 -351z m230 229
c15 -15 20 -33 20 -70 0 -57 -24 -90 -65 -90 -25 0 -25 1 -25 90 0 89 0 90 25
90 14 0 34 -9 45 -20z"/>
<path d="M12190 4210 l0 -350 80 0 80 0 0 350 0 350 -80 0 -80 0 0 -350z"/>
<path d="M12430 4210 l0 -350 65 0 65 0 1 298 1 297 44 -275 c25 -151 47 -285
50 -297 4 -21 10 -23 74 -23 64 0 70 2 74 23 3 12 25 146 50 297 l44 275 1
-297 1 -298 75 0 75 0 0 350 0 350 -119 0 -118 0 -34 -245 c-19 -139 -37 -238
-41 -228 -4 10 -18 104 -33 208 -14 105 -28 207 -31 228 l-6 37 -119 0 -119 0
0 -350z"/>
<path d="M13226 4533 c-3 -16 -28 -163 -56 -328 -27 -165 -52 -310 -55 -322
-5 -22 -3 -23 63 -23 l69 0 13 86 12 85 47 -3 46 -3 9 -82 8 -83 80 0 80 0 -6
38 c-3 20 -22 163 -41 317 -19 154 -37 295 -40 313 l-6 32 -109 0 -108 0 -6
-27z m123 -375 c1 -25 -3 -28 -30 -28 l-31 0 6 53 c3 28 8 86 11 127 10 131
18 131 31 0 7 -69 13 -137 13 -152z"/>
<path d="M13620 4211 l0 -351 80 0 80 0 0 160 0 160 25 0 c14 0 34 -9 45 -20
18 -18 20 -33 20 -134 0 -63 4 -126 10 -140 9 -25 13 -26 90 -26 l80 0 -10 26
c-6 14 -10 76 -10 138 0 62 -5 127 -11 145 -12 33 -52 60 -91 62 -20 1 -20 2
8 14 68 30 103 103 90 188 -16 99 -56 119 -258 125 l-148 4 0 -351z m230 229
c15 -15 20 -33 20 -70 0 -57 -24 -90 -65 -90 -25 0 -25 1 -25 90 0 89 0 90 25
90 14 0 34 -9 45 -20z"/>
<path d="M14100 4533 c5 -16 36 -115 70 -221 l60 -192 0 -130 0 -130 80 0 80
0 0 134 0 133 65 206 c36 113 65 211 65 217 0 6 -29 10 -74 10 l-74 0 -15 -67
c-8 -38 -21 -95 -28 -128 -6 -33 -15 -64 -19 -68 -4 -4 -19 53 -35 128 l-28
135 -78 0 -78 0 9 -27z"/>
<path d="M15850 4210 l0 -350 80 0 80 0 0 170 0 170 45 0 45 0 0 -170 0 -170
80 0 80 0 0 350 0 350 -80 0 -80 0 0 -130 0 -130 -45 0 -45 0 0 130 0 130 -80
0 -80 0 0 -350z"/>
<path d="M17330 4210 l0 -350 170 0 170 0 0 50 0 50 -90 0 -90 0 0 300 0 300
-80 0 -80 0 0 -350z"/>
<path d="M10640 4175 l0 -55 110 0 110 0 0 55 0 55 -110 0 -110 0 0 -55z"/>
<path d="M15005 3483 c-38 -7 -76 -47 -85 -88 -13 -57 -11 -264 3 -304 18 -53
58 -76 127 -76 117 0 143 49 138 256 -3 110 -7 141 -21 163 -30 44 -92 63
-162 49z m70 -233 l0 -165 -25 0 -25 0 -3 155 c-1 85 0 160 3 168 3 7 15 12
27 10 23 -3 23 -4 23 -168z"/>
<path d="M6570 3250 l0 -230 55 0 55 0 1 118 0 117 32 -115 32 -115 52 -3 52
-3 -25 88 c-50 181 -50 167 -10 276 l35 97 -49 0 -48 0 -35 -102 -35 -103 -1
103 -1 102 -55 0 -55 0 0 -230z"/>
<path d="M6995 3468 c-2 -7 -18 -98 -34 -203 -17 -104 -34 -202 -37 -217 -5
-27 -4 -28 39 -28 l45 0 7 56 c7 55 7 55 38 52 30 -3 32 -5 37 -53 l5 -50 53
-3 54 -3 -6 28 c-5 24 -56 415 -56 428 0 3 -32 5 -70 5 -48 0 -72 -4 -75 -12z
m73 -180 c7 -81 7 -88 -10 -88 -20 0 -23 32 -11 141 8 73 10 68 21 -53z"/>
<path d="M7270 3250 l0 -230 110 0 110 0 0 35 0 35 -55 0 -55 0 0 195 0 195
-55 0 -55 0 0 -230z"/>
<path d="M7560 3250 l0 -230 110 0 110 0 0 35 0 35 -55 0 -55 0 0 75 0 75 55
0 55 0 0 35 0 35 -55 0 -55 0 0 50 0 50 55 0 55 0 0 35 0 35 -110 0 -110 0 0
-230z"/>
<path d="M7874 3250 l30 -231 60 3 61 3 17 155 c9 85 17 161 17 169 2 39 11
-8 26 -139 23 -208 15 -190 85 -190 33 0 60 3 60 7 0 11 49 394 55 426 4 26 3
27 -40 27 -53 0 -50 8 -66 -174 -13 -152 -23 -154 -33 -6 -4 52 -9 114 -12
138 l-6 42 -53 0 c-62 0 -55 18 -82 -190 l-18 -135 -7 90 c-4 50 -10 123 -14
163 l-6 72 -52 0 -52 0 30 -230z"/>
<path d="M8375 3468 c-2 -7 -17 -96 -34 -198 -17 -102 -33 -200 -37 -217 l-6
-33 45 0 45 0 7 56 c7 55 7 55 38 52 30 -3 32 -5 37 -53 l5 -50 53 -3 54 -3
-6 28 c-5 24 -56 415 -56 428 0 3 -32 5 -70 5 -48 0 -72 -4 -75 -12z m73 -180
c8 -85 7 -88 -13 -88 -20 0 -20 3 -14 73 4 39 9 86 10 102 2 42 7 14 17 -87z"/>
<path d="M8650 3250 l0 -233 99 5 c163 8 176 24 176 223 0 150 -10 196 -49
217 -11 6 -67 14 -123 16 l-103 5 0 -233z m144 160 l26 -10 0 -150 0 -150 -26
-10 c-14 -6 -27 -10 -30 -10 -2 0 -4 77 -4 170 0 94 2 170 4 170 3 0 16 -4 30
-10z"/>
<path d="M9000 3250 l0 -230 55 0 55 0 0 230 0 230 -55 0 -55 0 0 -230z"/>
<path d="M9590 3251 l0 -231 55 0 55 0 0 90 0 90 50 0 c41 0 56 5 82 29 32 29
33 32 33 110 0 75 -2 83 -28 108 -26 26 -33 28 -137 31 l-110 4 0 -231z m151
159 c15 -9 19 -22 19 -68 0 -60 -11 -82 -42 -82 -16 0 -18 10 -18 80 0 82 4
89 41 70z"/>
<path d="M9940 3250 l0 -230 55 0 55 0 0 230 0 230 -55 0 -55 0 0 -230z"/>
<path d="M10130 3250 l0 -230 40 0 40 0 1 193 1 192 31 -192 31 -193 46 0 47
0 29 193 29 192 3 -192 2 -193 50 0 50 0 0 230 0 230 -78 0 -79 0 -18 -142
c-10 -79 -21 -151 -25 -161 -3 -10 -14 42 -24 115 -28 210 -16 188 -102 188
l-74 0 0 -230z"/>
<path d="M10600 3250 l0 -230 55 0 55 0 0 89 0 89 56 4 c43 4 61 11 82 32 25
24 27 33 27 105 0 63 -4 83 -19 100 -26 29 -77 41 -173 41 l-83 0 0 -230z
m151 160 c15 -9 19 -22 19 -65 0 -69 -7 -85 -36 -85 -23 0 -24 2 -24 80 0 82
4 89 41 70z"/>
<path d="M10950 3250 l0 -230 55 0 55 0 0 105 c0 58 4 105 9 105 34 0 41 -13
42 -84 2 -112 6 -120 64 -124 l50 -3 -4 93 c-4 115 -12 137 -51 144 l-29 6 32
22 c42 28 56 80 36 133 -19 49 -54 62 -171 62 l-88 1 0 -230z m141 160 c14 -8
19 -21 19 -55 0 -34 -5 -47 -19 -55 -11 -5 -22 -10 -25 -10 -3 0 -6 29 -6 65
0 36 3 65 6 65 3 0 14 -5 25 -10z"/>
<path d="M11300 3250 l0 -230 55 0 55 0 0 230 0 230 -55 0 -55 0 0 -230z"/>
<path d="M11880 3250 l0 -230 55 0 55 0 0 89 0 89 56 4 c43 4 61 11 82 32 25
24 27 33 27 105 0 63 -4 83 -19 100 -26 29 -77 41 -173 41 l-83 0 0 -230z
m151 160 c15 -9 19 -22 19 -65 0 -69 -7 -85 -36 -85 -23 0 -24 2 -24 80 0 82
4 89 41 70z"/>
<path d="M12232 3287 c3 -166 6 -197 21 -221 48 -73 186 -73 234 0 15 24 18
55 22 221 l3 193 -56 0 -56 0 0 -187 c0 -104 -4 -194 -9 -201 -5 -8 -17 -12
-27 -10 -18 3 -19 17 -22 201 l-2 197 -56 0 -56 0 4 -193z"/>
<path d="M12580 3250 l0 -230 40 0 40 0 1 188 c0 103 4 178 8 167 4 -11 23
-95 42 -187 l34 -168 67 0 68 0 0 230 0 230 -40 0 -40 0 -1 -162 c0 -90 -4
-154 -8 -143 -4 11 -21 84 -36 163 l-29 142 -73 0 -73 0 0 -230z"/>
<path d="M12950 3250 l0 -230 110 0 110 0 0 35 0 35 -55 0 -55 0 0 75 0 75 55
0 55 0 0 35 0 35 -55 0 -55 0 0 50 0 50 55 0 55 0 0 35 0 35 -110 0 -110 0 0
-230z"/>
<path d="M13921 3343 c-40 -90 -61 -151 -61 -175 l0 -38 75 0 75 0 0 -55 0
-55 50 0 50 0 0 55 c0 42 3 55 15 55 10 0 15 11 15 35 0 24 -5 35 -15 35 -13
0 -15 22 -15 140 l0 140 -64 0 -63 0 -62 -137z m89 -53 l0 -90 -40 0 c-22 0
-40 3 -40 6 0 8 73 174 77 174 2 0 3 -40 3 -90z"/>
<path d="M14303 3454 c-12 -13 -34 -24 -48 -24 -22 0 -25 -4 -25 -35 0 -33 2
-35 35 -35 l35 0 0 -170 0 -170 55 0 55 0 0 230 0 230 -42 -1 c-32 -1 -49 -8
-65 -25z"/>
<path d="M14653 3454 c-12 -13 -34 -24 -48 -24 -22 0 -25 -4 -25 -35 0 -33 2
-35 35 -35 l35 0 0 -170 0 -170 55 0 55 0 0 230 0 230 -42 -1 c-32 -1 -49 -8
-65 -25z"/>
<path d="M15353 3454 c-12 -13 -34 -24 -48 -24 -22 0 -25 -4 -25 -35 0 -33 2
-35 35 -35 l35 0 0 -170 0 -170 55 0 55 0 0 230 0 230 -42 -1 c-32 -1 -49 -8
-65 -25z"/>
<path d="M15610 3445 l0 -35 80 0 c44 0 80 -4 80 -10 0 -5 -31 -91 -70 -190
-38 -99 -70 -183 -70 -185 0 -3 24 -5 54 -5 l53 0 77 201 c42 110 76 214 76
230 l0 29 -140 0 -140 0 0 -35z"/>
<path d="M13440 3225 l0 -35 70 0 70 0 0 35 0 35 -70 0 -70 0 0 -35z"/>
<path d="M9217 3123 c-2 -5 -7 -37 -11 -73 -4 -36 -10 -75 -13 -87 -5 -21 -1
-23 29 -23 l35 0 26 88 c15 49 27 92 27 95 0 10 -88 9 -93 0z"/>
<path d="M11507 3123 c-3 -5 -8 -39 -11 -78 -4 -38 -10 -78 -12 -87 -4 -15 1
-18 29 -18 l34 0 26 88 c15 49 27 92 27 95 0 10 -88 9 -93 0z"/>
<path d="M6140 2025 l0 -515 5100 0 5100 0 0 515 0 515 -5100 0 -5100 0 0
-515z m2426 276 c52 -24 74 -68 74 -150 l0 -61 -70 0 -70 0 0 49 c0 64 -7 81
-35 81 -13 0 -26 -7 -29 -16 -3 -9 -6 -96 -6 -194 0 -98 3 -185 6 -194 8 -21
50 -21 58 0 3 9 6 40 6 70 l0 54 70 0 70 0 0 -62 c0 -117 -47 -170 -159 -176
-54 -3 -76 0 -108 16 -74 38 -78 51 -81 274 -3 179 -2 201 16 242 15 32 31 50
59 65 50 26 143 27 199 2z m1432 -1 c72 -32 82 -68 82 -290 0 -222 -10 -258
-82 -290 -55 -25 -131 -25 -186 0 -72 32 -82 68 -82 290 0 222 10 258 82 290
55 25 131 25 186 0z m1520 0 c72 -32 82 -68 82 -290 0 -222 -10 -258 -82 -290
-55 -25 -131 -25 -186 0 -72 32 -82 68 -82 290 0 222 10 258 82 290 55 25 131
25 186 0z m2852 -2 c56 -29 70 -56 70 -140 l0 -68 -70 0 -70 0 0 53 c0 28 -4
58 -9 65 -12 19 -55 11 -59 -11 -7 -36 21 -76 93 -135 92 -76 119 -127 113
-213 -5 -68 -27 -105 -79 -131 -46 -24 -141 -23 -196 1 -55 26 -73 62 -73 151
l0 70 70 0 69 0 3 -67 c3 -66 4 -68 30 -71 22 -3 29 2 34 23 10 41 -14 80 -94
152 -44 40 -83 84 -93 108 -23 50 -24 116 -3 160 34 72 171 99 264 53z m437 3
c54 -25 73 -62 73 -146 l0 -65 -70 0 -70 0 0 53 c0 28 -4 58 -9 65 -12 19 -55
11 -59 -11 -7 -36 21 -76 93 -135 92 -76 119 -127 113 -213 -5 -68 -27 -105
-79 -131 -46 -24 -141 -23 -196 1 -55 26 -73 62 -73 151 l0 70 70 0 69 0 3
-67 c3 -66 4 -68 30 -71 22 -3 29 2 34 23 10 42 -13 80 -96 155 -91 82 -116
129 -108 210 6 56 32 93 83 116 45 20 142 17 192 -5z m651 -1 c72 -32 82 -68
82 -290 0 -222 -10 -258 -82 -290 -55 -25 -131 -25 -186 0 -72 32 -82 68 -82
290 0 222 10 258 82 290 55 25 131 25 186 0z m-8759 -257 c18 -148 36 -283 39
-300 l5 -33 -71 0 -71 0 -6 58 c-3 31 -7 64 -8 72 -1 10 -15 16 -38 18 -40 3
-36 11 -54 -105 l-7 -43 -59 0 c-32 0 -59 3 -59 7 0 7 88 524 96 566 l6 27 96
0 97 0 34 -267z m399 252 c57 -23 72 -56 72 -165 0 -63 -5 -100 -16 -121 -19
-39 -84 -68 -146 -69 l-48 0 0 -115 0 -115 -70 0 -70 0 0 300 0 300 120 0 c84
0 131 -5 158 -15z m442 -1 c25 -10 47 -28 55 -45 21 -40 20 -200 -1 -240 -19
-39 -84 -68 -146 -69 l-48 0 0 -115 0 -115 -70 0 -70 0 0 300 0 300 120 0 c87
0 131 -4 160 -16z m300 -239 l0 -255 75 0 75 0 0 -45 0 -45 -145 0 -145 0 0
300 0 300 70 0 70 0 0 -255z m360 -45 l0 -300 -70 0 -70 0 0 300 0 300 70 0
70 0 0 -300z m847 50 c17 -135 34 -269 38 -297 l6 -53 -70 0 -70 0 -6 58 c-3
31 -7 64 -8 72 -1 10 -15 16 -38 18 -40 3 -36 11 -54 -105 l-7 -43 -59 0 c-32
0 -59 3 -59 7 0 8 88 526 96 566 l6 28 96 -3 97 -3 32 -245z m383 205 l0 -45
-50 0 -50 0 0 -255 0 -255 -70 0 -70 0 0 255 0 255 -50 0 -50 0 0 45 0 45 170
0 170 0 0 -45z m220 -255 l0 -300 -70 0 -70 0 0 300 0 300 70 0 70 0 0 -300z
m720 243 c7 -32 27 -125 45 -208 l33 -150 1 208 1 207 55 0 55 0 0 -300 0
-301 -92 3 -93 3 -51 240 -52 240 -1 -242 -1 -243 -55 0 -55 0 0 300 0 300 99
0 100 0 11 -57z m810 12 l0 -45 -75 0 -75 0 0 -65 0 -65 75 0 75 0 0 -45 0
-45 -75 0 -75 0 0 -145 0 -145 -70 0 -70 0 0 300 0 300 145 0 145 0 0 -45z
m771 35 c19 -6 46 -22 60 -36 21 -22 24 -35 24 -94 0 -59 -3 -72 -25 -95 -14
-15 -34 -31 -45 -35 l-20 -9 20 -1 c55 -2 75 -47 75 -169 0 -55 4 -111 10
-125 l10 -26 -70 0 c-87 0 -90 5 -90 135 0 108 -9 135 -45 135 l-25 0 0 -135
0 -135 -70 0 -70 0 0 300 0 300 113 0 c61 0 128 -5 148 -10z m748 -257 c18
-148 36 -283 39 -300 l5 -33 -71 0 -71 0 -6 58 c-3 31 -7 64 -8 72 -1 10 -15
16 -38 18 -40 3 -36 11 -54 -105 l-7 -43 -59 0 c-32 0 -59 3 -59 7 0 7 88 524
96 566 l6 27 96 0 97 0 34 -267z m391 251 c68 -28 75 -49 78 -274 2 -171 1
-199 -15 -230 -31 -60 -71 -74 -210 -79 l-123 -3 0 301 0 301 115 0 c82 0 126
-5 155 -16z m402 -184 c15 -107 28 -197 29 -200 1 -4 56 365 58 393 1 4 46 7
101 7 l100 0 0 -300 0 -300 -65 0 -65 0 -1 228 -1 227 -36 -227 -36 -228 -63
0 -62 0 -6 33 c-3 17 -21 127 -39 242 l-34 210 -1 -242 -1 -243 -55 0 -55 0 0
300 0 301 102 -3 103 -3 27 -195z m518 -100 l0 -300 -70 0 -70 0 0 300 0 300
70 0 70 0 0 -300z m1100 0 l0 -300 -70 0 -70 0 0 300 0 300 70 0 70 0 0 -300z
m718 253 c6 -27 26 -120 44 -207 l33 -159 3 206 2 207 55 0 55 0 0 -300 0
-301 -92 3 -93 3 -52 240 -51 240 -1 -242 -1 -243 -55 0 -55 0 0 300 0 300 99
0 99 0 10 -47z"/>
<path d="M9876 2204 c-3 -9 -6 -96 -6 -194 0 -98 3 -185 6 -194 3 -9 16 -16
29 -16 13 0 26 7 29 16 3 9 6 96 6 194 0 98 -3 185 -6 194 -3 9 -16 16 -29 16
-13 0 -26 -7 -29 -16z"/>
<path d="M11396 2204 c-3 -9 -6 -96 -6 -194 0 -98 3 -185 6 -194 3 -9 16 -16
29 -16 13 0 26 7 29 16 3 9 6 96 6 194 0 98 -3 185 -6 194 -3 9 -16 16 -29 16
-13 0 -26 -7 -29 -16z"/>
<path d="M15336 2204 c-3 -9 -6 -96 -6 -194 0 -98 3 -185 6 -194 3 -9 16 -16
29 -16 13 0 26 7 29 16 3 9 6 96 6 194 0 98 -3 185 -6 194 -3 9 -16 16 -29 16
-13 0 -26 -7 -29 -16z"/>
<path d="M6549 2155 c-4 -5 -10 -54 -14 -107 -7 -95 -6 -98 14 -98 18 0 21 6
20 43 -2 78 -14 172 -20 162z"/>
<path d="M6960 2125 c0 -94 0 -95 25 -95 32 0 45 26 45 95 0 69 -13 95 -45 95
-25 0 -25 -1 -25 -95z"/>
<path d="M7400 2125 c0 -94 0 -95 25 -95 32 0 45 26 45 95 0 69 -13 95 -45 95
-25 0 -25 -1 -25 -95z"/>
<path d="M8899 2155 c-4 -5 -10 -54 -14 -107 -7 -95 -6 -98 14 -98 18 0 21 6
20 43 -2 78 -14 172 -20 162z"/>
<path d="M11830 2145 c0 -60 3 -75 15 -75 27 0 55 38 55 76 0 48 -16 74 -45
74 -24 0 -25 -2 -25 -75z"/>
<path d="M12549 2155 c-4 -5 -10 -54 -14 -107 -7 -95 -6 -98 14 -98 18 0 21 6
20 43 -2 78 -14 172 -20 162z"/>
<path d="M12960 2010 c0 -193 1 -210 18 -210 44 1 47 10 50 199 4 195 -2 221
-43 221 l-25 0 0 -210z"/>
<path d="M1181 2133 c-60 -21 -124 -87 -149 -155 -23 -62 -43 -158 -32 -158 3
0 17 11 30 25 38 40 110 82 174 100 44 13 86 16 180 13 l121 -4 270 -92 c305
-104 409 -130 545 -137 l95 -5 -95 19 c-191 37 -362 107 -596 243 -172 101
-243 135 -311 153 -72 19 -175 18 -232 -2z"/>
<path d="M3880 2125 c-41 -13 -134 -58 -205 -100 -294 -170 -474 -247 -669
-285 l-101 -20 90 4 c153 8 250 32 625 162 187 65 199 68 309 72 170 7 266
-21 357 -104 20 -19 38 -34 41 -34 7 0 -8 72 -28 135 -23 73 -64 126 -127 162
-67 40 -187 43 -292 8z"/>
<path d="M1214 1806 c-144 -27 -223 -65 -282 -131 -79 -90 -94 -191 -67 -467
9 -101 24 -204 31 -229 34 -107 164 -182 329 -191 l60 -3 3 193 2 192 -36 0
c-20 0 -55 5 -76 12 -42 12 -138 91 -138 113 0 16 84 52 152 66 71 13 229 10
358 -8 57 -8 255 -45 440 -83 627 -129 726 -128 1342 4 340 73 418 86 593 101
123 10 286 -21 344 -65 l22 -16 -40 -42 c-51 -53 -90 -72 -157 -79 l-54 -6 0
-194 0 -194 53 6 c177 20 280 75 322 169 17 38 27 93 40 224 23 226 18 348
-17 423 -70 153 -223 215 -528 213 -190 0 -251 -10 -580 -89 -616 -148 -726
-149 -1312 -6 -112 28 -255 60 -318 71 -147 27 -386 35 -486 16z m421 -35 c72
-11 243 -47 380 -80 138 -33 289 -67 336 -76 193 -35 424 -35 618 0 47 9 199
43 336 75 327 77 402 90 570 97 167 6 297 -12 391 -56 128 -60 174 -143 174
-314 0 -115 -10 -237 -19 -237 -3 0 -12 14 -20 32 -8 18 -33 51 -57 74 -84 85
-181 115 -364 115 -145 1 -274 -18 -613 -90 -470 -100 -547 -111 -752 -106
-169 4 -281 21 -632 95 -546 116 -749 127 -910 51 -60 -29 -145 -109 -157
-149 -9 -26 -25 -29 -25 -4 1 9 -3 77 -7 149 -6 113 -4 143 11 200 44 162 204
239 500 242 62 0 166 -7 240 -18z m-583 -537 c49 -54 100 -82 163 -91 l45 -6
0 -164 0 -165 -52 7 c-202 28 -310 126 -295 269 5 54 33 119 71 168 12 15 22
27 23 27 2 1 22 -20 45 -45z m3330 -49 c14 -26 23 -65 25 -110 4 -60 1 -77
-19 -115 -41 -76 -135 -127 -270 -145 l-48 -6 0 164 0 164 41 7 c59 9 113 40
162 92 l42 45 23 -28 c13 -15 33 -46 44 -68z"/>
<path d="M3930 1630 c0 -25 -3 -69 -6 -97 l-7 -53 77 0 c60 0 76 3 76 14 0 11
-15 16 -52 18 -46 3 -53 6 -56 26 -3 20 0 22 47 22 44 0 51 3 51 20 0 17 -7
20 -45 20 -38 0 -45 3 -45 20 0 17 7 20 50 20 36 0 50 4 50 14 0 11 -18 15
-70 18 l-70 3 0 -45z"/>
<path d="M1248 1658 c-42 -34 -18 -84 48 -103 49 -13 52 -39 6 -43 -22 -2 -34
2 -38 12 -8 20 -44 21 -44 2 0 -22 49 -56 82 -56 30 0 78 38 78 63 0 25 -25
48 -70 61 -50 15 -62 31 -30 41 14 4 28 1 39 -9 20 -18 51 -21 51 -6 0 39 -87
66 -122 38z"/>
<path d="M1419 1647 c0 -12 -4 -55 -8 -96 -4 -48 -3 -74 4 -76 5 -2 38 -6 73
-9 57 -5 62 -4 62 14 0 17 -7 20 -50 20 -47 0 -50 2 -50 25 0 23 3 25 50 25
66 0 70 25 5 34 -36 6 -45 11 -45 27 0 18 5 19 49 13 39 -5 49 -3 54 10 7 18
-5 21 -90 30 -49 5 -53 4 -54 -17z"/>
<path d="M3829 1605 c-7 -36 -16 -65 -19 -65 -4 0 -18 27 -33 60 -20 47 -30
60 -47 60 -12 0 -20 -4 -18 -9 35 -92 84 -181 99 -181 24 0 28 8 50 101 23 99
23 99 0 99 -15 0 -21 -12 -32 -65z"/>
<path d="M1610 1638 c0 -2 -7 -41 -15 -88 -19 -106 -19 -100 5 -100 14 0 21 9
26 36 8 46 33 42 57 -9 17 -37 36 -52 57 -45 6 2 3 18 -9 41 l-19 38 24 24
c41 41 24 80 -41 95 -38 9 -85 13 -85 8z m97 -49 c16 -16 5 -39 -17 -39 -32 0
-50 11 -50 31 0 14 7 19 28 19 15 0 33 -5 39 -11z"/>
<path d="M3574 1630 c-57 -23 -72 -107 -28 -159 34 -40 89 -43 131 -7 24 21
28 31 27 72 -1 40 -6 52 -33 76 -32 28 -59 34 -97 18z m81 -65 c24 -57 -10
-108 -59 -89 -32 12 -48 88 -24 112 7 7 25 12 41 12 23 0 31 -7 42 -35z"/>
<path d="M1780 1606 c0 -7 5 -39 10 -72 6 -32 13 -74 16 -91 4 -26 10 -33 27
-33 17 0 33 19 70 84 26 46 47 86 47 90 0 3 -9 6 -19 6 -13 0 -30 -20 -54 -62
l-35 -62 -6 45 c-14 87 -17 97 -37 102 -11 3 -19 0 -19 -7z"/>
<path d="M3360 1571 c0 -23 29 -163 34 -169 2 -2 31 2 65 9 42 8 61 16 61 27
0 12 -9 13 -49 8 l-48 -6 -13 75 c-11 62 -16 75 -31 75 -12 0 -19 -7 -19 -19z"/>
<path d="M1948 1483 c-17 -92 -16 -103 7 -103 13 0 29 57 42 148 5 37 3 42
-14 42 -17 0 -22 -12 -35 -87z"/>
<path d="M3213 1552 c-9 -6 -10 -17 -4 -40 9 -30 8 -32 -22 -40 -40 -11 -43
-9 -50 28 -5 21 -12 30 -27 30 -11 0 -20 -3 -20 -7 1 -19 39 -175 44 -180 13
-13 37 8 32 27 -3 11 -8 28 -11 39 -4 13 1 20 17 25 47 12 55 7 62 -33 5 -33
9 -38 26 -34 11 3 20 7 20 9 0 2 -6 31 -35 162 -6 23 -12 26 -32 14z"/>
<path d="M2057 1539 c-22 -13 -47 -68 -47 -103 0 -33 38 -75 75 -82 22 -4 38
0 58 16 31 25 34 35 10 44 -10 4 -20 1 -25 -9 -13 -22 -55 -19 -69 6 -8 17 -8
31 0 60 14 48 47 61 72 30 23 -28 59 -29 52 -1 -11 43 -82 65 -126 39z"/>
<path d="M2215 1498 c-8 -40 -25 -141 -25 -154 0 -7 28 -17 66 -24 55 -11 68
-10 75 1 9 14 -1 19 -74 34 -24 5 -27 9 -21 28 3 12 7 23 8 24 1 1 19 -2 41
-7 42 -10 55 -6 55 14 0 9 -18 16 -45 20 -36 6 -45 11 -45 27 0 19 4 20 43 14
23 -4 46 -8 51 -9 6 0 11 6 13 15 3 13 -9 19 -60 28 -81 14 -76 15 -82 -11z"/>
<path d="M2978 1508 c-35 -7 -48 -15 -48 -27 0 -14 7 -17 29 -13 l29 4 12 -76
c11 -65 16 -76 33 -76 21 0 21 6 1 122 -6 34 -4 38 20 44 14 3 26 12 26 20 0
16 -31 17 -102 2z"/>
<path d="M2885 1416 c6 -68 5 -75 -13 -85 -35 -19 -50 -4 -57 57 -4 32 -9 65
-11 75 -6 18 -29 23 -38 9 -9 -16 16 -147 32 -164 22 -26 86 -24 113 3 19 19
20 28 14 92 -8 82 -10 87 -32 87 -13 0 -14 -11 -8 -74z"/>
<path d="M2440 1465 c0 -8 5 -16 10 -16 6 -1 16 -2 23 -3 8 -1 12 -25 12 -81
0 -66 3 -80 16 -83 14 -3 18 10 24 77 l7 81 34 0 34 0 0 -80 c0 -73 2 -80 20
-80 17 0 20 7 20 40 0 55 17 53 59 -7 15 -22 30 -33 47 -33 l25 0 -22 33 c-13
17 -27 34 -31 35 -13 6 -9 22 6 22 29 0 36 74 9 88 -10 5 -80 12 -155 15 -117
5 -138 4 -138 -8z m265 -50 c0 -15 -8 -21 -32 -23 -30 -3 -33 -1 -33 23 0 24
3 26 33 23 24 -2 32 -8 32 -23z"/>
<path d="M9287 1116 c-71 -26 -97 -70 -97 -163 l0 -43 70 0 70 0 0 55 c0 44 4
56 20 65 32 17 60 -4 60 -44 0 -36 -23 -71 -114 -175 -73 -84 -98 -136 -104
-222 l-5 -69 182 0 181 0 0 45 0 45 -110 0 c-68 0 -110 4 -110 10 0 19 47 84
114 158 36 40 72 85 81 101 42 81 23 182 -41 222 -45 27 -144 35 -197 15z"/>
<path d="M9745 1116 c-91 -34 -108 -86 -103 -325 3 -195 10 -220 72 -257 42
-25 158 -26 203 -1 62 33 68 58 68 287 0 228 -6 255 -66 286 -45 23 -126 27
-174 10z m94 -90 c8 -9 11 -74 9 -211 -3 -172 -5 -199 -20 -208 -12 -8 -21 -7
-32 2 -14 11 -16 43 -16 210 0 197 4 221 36 221 6 0 17 -6 23 -14z"/>
<path d="M10167 1116 c-71 -26 -97 -70 -97 -163 l0 -43 70 0 70 0 0 55 c0 44
4 56 20 65 32 17 60 -4 60 -44 0 -36 -23 -71 -114 -175 -73 -84 -98 -136 -104
-222 l-5 -69 182 0 181 0 0 45 0 45 -110 0 c-68 0 -110 4 -110 10 0 19 47 84
114 158 36 40 72 85 81 101 42 81 23 182 -41 222 -45 27 -144 35 -197 15z"/>
<path d="M10607 1116 c-71 -26 -97 -70 -97 -163 l0 -43 70 0 70 0 0 55 c0 44
4 56 20 65 32 17 60 -4 60 -44 0 -36 -23 -71 -114 -175 -73 -84 -98 -136 -104
-222 l-5 -69 182 0 181 0 0 45 0 45 -110 0 c-68 0 -110 4 -110 10 0 19 47 84
114 158 36 40 73 86 81 102 44 86 20 191 -51 225 -50 24 -138 29 -187 11z"/>
<path d="M11557 1116 c-71 -26 -97 -70 -97 -163 l0 -43 70 0 70 0 0 55 c0 44
4 56 20 65 32 17 60 -4 60 -44 0 -36 -23 -71 -114 -175 -73 -84 -98 -136 -104
-222 l-5 -69 182 0 181 0 0 45 0 45 -110 0 c-68 0 -110 4 -110 10 0 19 47 84
114 158 36 40 73 86 81 102 44 86 20 191 -51 225 -50 24 -138 29 -187 11z"/>
<path d="M12015 1116 c-91 -34 -108 -86 -103 -325 3 -195 10 -220 72 -257 47
-28 159 -26 207 4 58 36 64 61 64 287 0 223 -6 250 -66 281 -45 23 -126 27
-174 10z m94 -90 c8 -9 11 -74 9 -211 -3 -172 -5 -199 -20 -208 -12 -8 -21 -7
-32 2 -14 11 -16 43 -16 210 0 197 4 221 36 221 6 0 17 -6 23 -14z"/>
<path d="M12437 1116 c-71 -26 -97 -70 -97 -163 l0 -43 70 0 70 0 0 55 c0 44
4 56 20 65 32 17 60 -4 60 -44 0 -36 -23 -71 -114 -175 -73 -84 -98 -136 -104
-222 l-5 -69 182 0 181 0 0 45 0 45 -110 0 c-68 0 -110 4 -110 10 0 19 47 84
114 158 36 40 73 86 81 102 44 86 20 191 -51 225 -50 24 -138 29 -187 11z"/>
<path d="M12903 1121 c-79 -20 -113 -70 -113 -166 l0 -55 70 0 70 0 0 59 c0
67 15 90 49 71 18 -9 21 -20 21 -70 0 -50 -4 -61 -22 -74 -12 -9 -37 -16 -55
-16 -32 0 -33 -1 -33 -45 l0 -45 43 0 c24 0 48 -5 55 -12 19 -19 16 -143 -4
-159 -30 -25 -49 1 -52 75 l-3 66 -71 0 -71 0 5 -77 c7 -124 43 -157 168 -158
128 0 180 50 180 172 0 80 -13 112 -50 126 -37 14 -37 20 -4 35 52 24 72 147
34 209 -10 18 -33 39 -51 48 -37 20 -121 27 -166 16z"/>
<path d="M10960 790 l0 -50 90 0 90 0 0 50 0 50 -90 0 -90 0 0 -50z"/>
<path d="M260 225 l0 -35 8960 0 8960 0 0 35 0 35 -8960 0 -8960 0 0 -35z"/>
</g>
</svg>
