<?xml version="1.0" standalone="no"?>
<!DOCTYPE svg PUBLIC "-//W3C//DTD SVG 20010904//EN"
 "http://www.w3.org/TR/2001/REC-SVG-20010904/DTD/svg10.dtd">
<svg version="1.0" xmlns="http://www.w3.org/2000/svg"
 width="2480.000000pt" height="400.000000pt" viewBox="-340 -80 2480.000000 400.000000" 
 preserveAspectRatio="xMidYMid meet">
  <g transform="translate(0.000000,400.000000) scale(0.0990000,-0.0990000)" 
fill="#000000" stroke="none">
<path d="M1956 4370 c-300 -48 -564 -220 -733 -478 -353 -536 -187 -1286 353
-1603 425 -249 946 -173 1286 189 138 147 227 314 280 531 31 125 31 378 -1
506 -56 230 -155 408 -314 562 -139 135 -285 219 -468 268 -106 29 -302 41
-403 25z m194 -49 c0 -27 3 -29 53 -35 146 -19 289 -71 416 -153 233 -150 392
-392 446 -676 21 -111 19 -300 -4 -412 -91 -437 -433 -758 -861 -806 -72 -9
-100 -16 -100 -25 0 -17 -95 -19 -172 -3 -394 81 -694 366 -806 766 -25 90
-27 112 -27 283 0 171 2 193 28 285 84 308 296 563 573 692 137 63 354 105
354 69 0 -9 -17 -16 -47 -20 -269 -38 -483 -158 -653 -366 -141 -174 -230
-429 -230 -660 0 -454 300 -866 718 -989 62 -18 197 -41 243 -41 12 0 19 7 19
19 0 15 -11 19 -72 24 -335 29 -631 242 -778 561 -60 131 -82 229 -87 396 -4
129 -2 157 20 257 58 255 213 480 425 617 107 69 256 127 357 138 28 3 30 1
30 -32 1 -30 4 -35 28 -38 l27 -3 0 -90 0 -89 -43 0 c-24 0 -77 -11 -117 -25
-202 -69 -362 -223 -439 -424 -42 -108 -55 -195 -49 -325 6 -118 34 -226 84
-315 l24 -44 -26 -53 c-22 -44 -26 -64 -22 -109 7 -78 51 -160 112 -207 57
-42 83 -53 260 -104 83 -24 147 -49 178 -70 l48 -33 0 25 c0 37 -36 100 -72
127 -18 14 -82 48 -142 78 -101 48 -186 108 -186 130 0 23 32 18 81 -14 79
-50 173 -84 272 -98 l87 -13 0 -123 0 -123 39 0 c99 0 291 53 390 107 188 104
354 287 436 482 134 318 101 674 -87 963 -98 149 -246 278 -404 348 -80 36
-196 70 -239 70 -27 0 -30 -3 -30 -32 0 -29 -4 -33 -27 -36 l-28 -3 0 -84 c0
-84 0 -85 28 -90 271 -51 444 -180 553 -411 58 -123 72 -194 67 -354 -5 -145
-19 -201 -80 -323 l-28 -57 22 -30 c30 -41 36 -131 14 -198 -36 -107 -129
-175 -303 -221 -121 -32 -193 -59 -236 -87 -22 -14 -41 -23 -44 -20 -12 11 28
93 60 123 17 17 87 59 155 93 121 61 200 119 187 140 -10 16 -34 12 -66 -11
-80 -57 -225 -107 -324 -112 l-50 -2 0 85 0 85 216 3 c198 2 218 1 239 -16 18
-15 22 -24 16 -47 -11 -43 -63 -84 -191 -150 -104 -53 -195 -118 -184 -130 3
-2 27 6 54 19 28 13 99 41 159 61 61 20 126 45 147 55 91 47 138 114 146 209
4 47 1 62 -19 91 -13 19 -43 45 -68 58 -42 21 -55 22 -282 22 l-238 0 0 -85 0
-85 -216 0 c-129 0 -223 -4 -235 -10 -19 -11 -26 -51 -13 -85 9 -22 73 -65
190 -125 97 -49 174 -102 174 -120 0 -4 -21 2 -47 15 -27 12 -97 39 -157 60
-131 44 -173 64 -222 108 -73 64 -99 179 -56 249 42 67 67 73 340 76 l242 3 0
68 c0 62 10 91 32 91 4 0 8 -25 8 -55 0 -54 1 -55 29 -55 25 0 29 4 35 38 3
20 6 51 6 68 0 17 5 45 11 63 l11 31 109 0 c60 0 109 -3 109 -6 0 -3 -14 -23
-32 -44 -36 -45 -100 -80 -146 -80 -29 0 -32 -3 -32 -31 l0 -32 68 5 c112 8
197 64 247 164 26 52 30 68 30 154 0 52 -2 111 -5 130 l-5 35 65 5 65 5 3 58
c4 76 -7 89 -72 85 l-51 -3 0 -50 c0 -45 -8 -64 -26 -65 -3 0 -14 18 -24 40
-21 48 -74 103 -158 167 -140 105 -165 140 -175 242 -7 66 -7 66 -40 69 l-33
3 3 112 3 112 28 3 c21 3 27 9 27 28 0 20 -5 24 -30 24 -28 0 -30 2 -30 40 0
29 -4 40 -15 40 -13 0 -15 -48 -15 -375 0 -292 -3 -376 -12 -379 -7 -2 -35 -9
-63 -15 -76 -18 -171 -68 -204 -108 -23 -28 -33 -34 -43 -25 -7 6 -35 16 -61
22 -26 7 -49 16 -52 20 -9 15 61 105 115 147 168 133 182 146 201 188 11 24
22 71 25 104 7 59 8 61 35 61 l29 0 0 115 0 115 -25 0 c-20 0 -25 5 -25 25 0
20 5 25 25 25 23 0 25 4 25 40 0 29 4 40 15 40 8 0 15 5 15 10 0 6 11 10 25
10 21 0 25 -5 25 -29z m214 -167 c-1 -10 -3 -28 -5 -39 -3 -12 2 -21 14 -23
12 -3 19 5 23 27 7 36 15 43 32 32 9 -5 6 -28 -13 -91 -28 -94 -31 -98 -47
-82 -8 8 -9 21 -1 46 6 19 8 37 5 40 -14 15 -31 3 -37 -25 -7 -29 -29 -48 -42
-36 -10 11 47 179 60 174 7 -2 12 -13 11 -23z m153 -45 c8 -8 1 -32 -25 -90
-34 -73 -53 -92 -66 -70 -6 9 64 170 75 171 3 0 10 -5 16 -11z m121 -84 c19
-24 20 -65 1 -65 -12 0 -24 23 -21 43 6 32 -27 17 -58 -27 -32 -48 -36 -61
-20 -71 17 -10 41 16 35 36 -7 22 4 24 29 6 18 -13 17 -15 -5 -50 -29 -45 -42
-46 -80 -7 -30 29 -30 30 -13 62 49 97 94 122 132 73z m98 -86 c3 -6 -6 -23
-20 -38 -20 -21 -23 -30 -14 -39 9 -9 18 -6 40 15 22 21 31 24 40 15 9 -9 1
-24 -37 -64 -28 -28 -56 -58 -63 -66 -10 -11 -15 -12 -28 -1 -13 11 -11 16 17
45 28 29 30 34 15 40 -11 4 -27 -3 -46 -21 -26 -25 -30 -26 -36 -11 -5 13 9
34 52 77 61 61 68 66 80 48z m171 -234 c13 -28 14 -37 3 -50 -7 -8 -19 -15
-26 -15 -17 0 -18 22 -2 38 9 9 9 15 -1 25 -17 17 -41 -16 -41 -58 0 -36 -15
-55 -44 -55 -46 0 -76 71 -41 100 12 10 16 9 21 -4 3 -9 1 -22 -5 -30 -8 -10
-8 -16 3 -26 22 -17 36 -4 36 33 0 76 67 105 97 42z m-1287 -114 c0 -16 -9
-50 -21 -76 -11 -25 -19 -48 -17 -49 1 -2 32 -9 68 -15 80 -15 191 -67 247
-116 24 -20 62 -65 85 -101 40 -60 45 -64 80 -64 l38 0 0 -70 c0 -63 -2 -70
-20 -70 -18 0 -20 -7 -20 -55 0 -51 -2 -55 -24 -55 -20 0 -24 6 -30 43 -46
293 -178 437 -421 456 -64 5 -80 9 -83 23 -2 11 5 19 22 24 21 5 24 10 19 38
-4 26 2 42 28 79 35 50 49 52 49 8z m1347 -38 c12 -30 11 -35 -8 -54 -20 -20
-22 -21 -32 -4 -7 13 -5 20 7 27 51 28 -17 38 -73 10 -42 -21 -50 -39 -19 -44
12 -2 24 -11 26 -21 6 -32 -50 -18 -67 17 -18 38 -8 54 50 83 62 32 99 27 116
-14z m-758 -2 c33 -10 80 -30 105 -45 41 -24 97 -79 96 -94 -1 -4 -26 -23 -56
-42 -57 -36 -124 -110 -152 -167 -13 -27 -22 -33 -47 -33 -38 0 -55 16 -55 52
0 18 7 31 23 39 38 20 66 50 72 80 9 39 -19 88 -61 105 -33 14 -34 16 -34 69
0 51 2 55 24 55 13 0 51 -8 85 -19z m431 -56 c0 -38 -3 -45 -20 -45 -17 0 -20
7 -20 45 0 38 3 45 20 45 17 0 20 -7 20 -45z m50 0 c0 -33 -4 -45 -15 -45 -11
0 -15 12 -15 45 0 33 4 45 15 45 11 0 15 -12 15 -45z m-590 -141 c0 -94 0 -95
-22 -89 -37 11 -59 39 -65 82 -4 32 -1 44 22 71 15 18 35 32 46 32 17 0 19 -8
19 -96z m900 56 c0 -16 -7 -20 -35 -20 -28 0 -35 -4 -35 -20 0 -17 7 -20 40
-20 28 0 40 -4 40 -14 0 -9 -21 -18 -63 -25 -86 -15 -117 -14 -117 3 0 16 21
26 56 26 13 0 24 3 24 8 -1 20 -19 30 -50 29 -25 -2 -35 2 -35 13 0 11 19 18
70 26 102 17 105 17 105 -6z m-1273 -36 l31 -14 -14 -46 c-8 -26 -14 -69 -14
-96 l0 -48 105 0 c58 0 105 -4 105 -9 0 -5 3 -16 6 -25 5 -13 -9 -16 -98 -18
l-103 -3 44 -48 c53 -58 87 -77 136 -77 33 0 35 -2 35 -31 l0 -32 -65 5 c-188
16 -310 191 -275 399 l12 68 31 -6 c18 -4 46 -12 64 -19z m722 -32 c11 -27 26
-110 26 -147 0 -19 -8 -20 -113 -23 l-114 -3 19 33 c20 37 146 168 161 168 5
0 15 -12 21 -28z m545 -108 c21 -20 20 -68 -1 -89 -13 -14 -27 -15 -77 -10
-34 4 -67 12 -73 17 -16 13 -17 70 -1 86 18 18 133 15 152 -4z m-80 -156 c22
-6 47 -16 54 -21 18 -14 14 -65 -7 -86 -19 -19 -21 -19 -79 -2 -77 24 -82 27
-82 57 0 62 31 76 114 52z m20 -213 c-8 -20 -13 -19 -75 15 -64 35 -76 37 -84
11 -4 -12 -12 -18 -20 -15 -12 5 -11 13 5 45 l20 39 80 -40 c58 -29 78 -44 74
-55z"/>
<path d="M1798 4158 c-15 -11 -16 -23 -8 -88 5 -41 9 -83 10 -92 0 -27 30 -10
30 18 0 28 34 34 48 8 6 -11 14 -14 25 -8 13 8 9 20 -27 82 -53 91 -58 95 -78
80z m40 -73 c15 -33 15 -35 -2 -35 -8 0 -16 13 -18 30 -6 37 5 39 20 5z"/>
<path d="M1634 4077 c-25 -22 -27 -28 -19 -53 9 -25 16 -29 52 -32 46 -3 74
-25 55 -44 -8 -8 -15 -8 -27 2 -19 16 -41 0 -32 -24 15 -38 97 -6 97 38 0 38
-19 56 -59 56 -44 0 -76 25 -46 36 9 4 20 2 24 -4 4 -7 12 -8 21 -2 12 7 12
13 4 27 -17 27 -39 27 -70 0z"/>
<path d="M1526 4002 c-3 -5 13 -28 34 -53 53 -60 50 -69 -6 -20 -52 46 -52 46
-78 26 -18 -14 -17 -17 25 -70 24 -31 49 -63 55 -71 13 -17 34 -19 34 -3 0 7
-16 31 -35 55 -44 53 -45 67 -2 28 61 -57 65 -59 87 -39 19 17 18 19 -33 86
-49 64 -69 80 -81 61z"/>
<path d="M1382 3847 c-40 -43 -21 -84 66 -139 32 -20 33 -20 53 -2 29 26 40
50 33 68 -8 20 -102 96 -119 96 -6 0 -21 -10 -33 -23z m79 -56 c34 -30 41 -42
32 -51 -9 -10 -22 -4 -57 25 -46 37 -52 46 -39 58 11 12 19 8 64 -32z"/>
<path d="M1301 3717 c-17 -17 -13 -24 19 -37 18 -8 30 -20 30 -31 0 -23 -3
-23 -42 -3 -25 13 -32 14 -39 2 -5 -7 -9 -15 -9 -18 0 -3 36 -24 79 -46 64
-34 81 -39 85 -27 9 21 9 21 -24 38 -16 9 -30 22 -30 30 0 19 13 19 50 0 27
-14 30 -14 39 2 8 15 -3 24 -69 59 -56 30 -81 39 -89 31z"/>
<path d="M1224 3515 c-7 -19 -14 -40 -14 -47 0 -8 33 -23 81 -37 65 -18 83
-20 90 -10 11 18 3 26 -31 34 -26 6 -29 9 -23 37 7 37 -15 58 -59 58 -24 0
-32 -7 -44 -35z m76 -31 c0 -11 -6 -14 -22 -8 -30 9 -32 10 -24 29 4 13 10 14
26 5 11 -6 20 -18 20 -26z"/>
<path d="M1350 3359 c0 -20 -4 -21 -77 -18 -67 4 -78 2 -81 -13 -4 -18 14 -23
121 -32 53 -4 57 -3 57 17 0 12 3 32 6 45 5 16 2 22 -10 22 -10 0 -16 -8 -16
-21z"/>
<path d="M1267 3234 c-69 -22 -78 -28 -75 -47 3 -18 13 -24 68 -34 88 -16 120
-16 120 1 0 8 -10 16 -23 20 -29 7 -33 42 -6 49 21 6 27 37 7 37 -7 -1 -48
-12 -91 -26z m43 -39 c0 -10 -10 -15 -30 -15 -16 0 -30 4 -30 9 0 8 10 12 53
20 4 0 7 -6 7 -14z"/>
<path d="M2861 3206 c-17 -21 14 -36 73 -36 39 0 46 3 46 20 0 16 -7 20 -32
20 -18 0 -42 3 -54 6 -12 3 -26 -1 -33 -10z"/>
<path d="M2836 3053 c-17 -17 -1 -33 48 -47 66 -19 63 -19 70 0 4 10 -4 19
-27 28 -46 19 -83 27 -91 19z"/>
<path d="M5603 4240 c-54 -13 -96 -44 -120 -89 -22 -43 -23 -52 -23 -286 0
-234 1 -243 23 -286 71 -133 321 -130 395 5 14 26 17 67 20 246 4 246 -4 303
-50 356 -47 53 -152 77 -245 54z m111 -132 c13 -19 16 -60 16 -243 0 -238 -5
-265 -54 -265 -44 0 -46 11 -46 265 0 174 3 244 12 253 19 19 55 14 72 -10z"/>
<path d="M6706 4240 c-93 -24 -136 -79 -136 -173 0 -105 30 -155 150 -247 56
-44 85 -75 100 -106 28 -56 20 -101 -17 -110 -47 -12 -58 5 -61 95 l-3 81 -84
0 -85 0 0 -92 c0 -110 16 -145 82 -180 35 -18 59 -22 133 -23 78 0 96 3 134
25 62 35 86 85 86 175 -1 90 -24 135 -106 207 -135 116 -159 143 -159 180 0
39 15 58 45 58 40 0 49 -16 53 -89 l4 -71 84 0 84 0 0 73 c-1 140 -53 195
-194 203 -39 2 -88 -1 -110 -6z"/>
<path d="M13826 4240 c-93 -24 -136 -79 -136 -173 0 -105 30 -155 150 -247 56
-44 85 -75 100 -106 28 -56 20 -101 -17 -110 -47 -12 -58 5 -61 95 l-3 81 -84
0 -85 0 0 -92 c0 -110 16 -145 82 -180 35 -18 59 -22 133 -23 78 0 96 3 134
25 62 35 86 85 86 175 -1 90 -24 135 -106 207 -135 116 -159 143 -159 180 0
39 15 58 45 58 40 0 49 -16 53 -89 l4 -71 84 0 84 0 0 73 c-1 140 -53 195
-194 203 -39 2 -88 -1 -110 -6z"/>
<path d="M14363 4240 c-56 -13 -97 -44 -120 -90 -22 -42 -23 -55 -23 -285 0
-230 1 -243 23 -285 34 -69 89 -95 197 -95 75 0 91 3 131 27 61 36 81 79 87
186 l5 82 -87 0 -86 0 0 -68 c0 -76 -17 -112 -54 -112 -44 0 -46 11 -46 265 0
254 2 265 46 265 35 0 54 -36 54 -102 l0 -58 85 0 85 0 0 58 c0 118 -38 182
-123 207 -53 16 -121 18 -174 5z"/>
<path d="M15433 4240 c-54 -13 -96 -44 -120 -89 -22 -43 -23 -52 -23 -286 0
-234 1 -243 23 -286 42 -79 149 -115 264 -89 74 16 119 57 139 126 21 72 17
484 -5 524 -49 89 -159 129 -278 100z m111 -132 c13 -19 16 -60 16 -243 0
-238 -5 -265 -54 -265 -44 0 -46 11 -46 265 0 174 3 244 12 253 19 19 55 14
72 -10z"/>
<path d="M15963 4240 c-54 -13 -96 -44 -120 -89 -22 -43 -23 -52 -23 -286 0
-234 1 -243 23 -286 71 -133 321 -130 395 5 15 27 17 63 17 271 0 132 -3 252
-8 267 -26 94 -157 149 -284 118z m111 -132 c13 -19 16 -60 16 -243 0 -238 -5
-265 -54 -265 -44 0 -46 11 -46 265 0 174 3 244 12 253 19 19 55 14 72 -10z"/>
<path d="M3530 4168 c-7 -40 -36 -208 -64 -373 l-52 -300 69 -3 c38 -2 71 -1
74 1 2 2 8 33 14 68 19 128 15 120 67 117 l47 -3 10 -90 10 -90 88 -3 89 -3
-6 28 c-3 15 -24 170 -46 343 -22 173 -42 330 -45 348 l-6 32 -119 0 -118 0
-12 -72z m139 -345 c1 -30 -2 -33 -29 -33 -17 0 -30 5 -30 13 0 36 23 274 28
287 5 14 30 -194 31 -267z"/>
<path d="M3950 3865 l0 -375 180 0 180 0 0 55 0 54 -92 3 -93 3 -3 318 -2 317
-85 0 -85 0 0 -375z"/>
<path d="M4400 3866 l0 -376 85 0 85 0 0 144 0 143 71 7 c87 8 127 24 162 65
33 40 40 76 35 195 -4 109 -18 138 -84 171 -33 17 -64 20 -196 23 l-158 4 0
-376z m251 247 c10 -11 14 -44 14 -105 0 -99 -11 -118 -67 -118 l-28 0 0 120
0 120 34 0 c19 0 39 -7 47 -17z"/>
<path d="M4930 3865 l0 -375 85 0 85 0 0 180 0 180 50 0 50 0 0 -180 0 -180
85 0 85 0 0 375 0 375 -85 0 -84 0 -3 -137 -3 -138 -47 -3 -48 -3 0 140 0 141
-85 0 -85 0 0 -375z"/>
<path d="M5990 3865 l0 -375 70 0 70 0 2 303 3 302 60 -300 61 -300 112 -3
112 -3 0 376 0 375 -70 0 -70 0 -2 -261 -3 -261 -43 214 c-24 117 -48 234 -54
261 l-10 47 -119 0 -119 0 0 -375z"/>
<path d="M7200 4168 c-7 -40 -36 -209 -64 -375 l-52 -303 72 0 c82 0 76 -7 89
105 11 87 11 86 63 83 l47 -3 10 -90 10 -90 88 -3 89 -3 -6 28 c-3 15 -24 170
-46 343 -22 173 -42 330 -45 348 l-6 32 -119 0 -118 0 -12 -72z m139 -345 c1
-30 -2 -33 -29 -33 -17 0 -30 5 -30 13 0 36 23 274 28 287 5 14 30 -194 31
-267z"/>
<path d="M7920 3866 l0 -376 85 0 85 0 0 144 0 143 71 7 c87 8 127 24 162 65
33 40 40 76 35 195 -4 109 -18 138 -84 171 -33 17 -64 20 -196 23 l-158 4 0
-376z m251 247 c10 -11 14 -44 14 -105 0 -99 -11 -118 -67 -118 l-28 0 0 120
0 120 34 0 c19 0 39 -7 47 -17z"/>
<path d="M8450 3866 l0 -376 85 0 85 0 0 170 0 170 34 0 c55 0 66 -25 66 -155
0 -60 5 -127 11 -147 l10 -38 90 0 90 0 -13 23 c-7 13 -14 82 -17 169 -6 137
-8 148 -30 172 -13 14 -39 29 -57 32 l-34 6 43 22 c54 27 77 72 77 149 0 141
-45 169 -282 175 l-158 4 0 -376z m250 244 c15 -15 20 -33 20 -75 0 -65 -22
-95 -70 -95 l-30 0 0 95 0 95 30 0 c17 0 39 -9 50 -20z"/>
<path d="M8980 3865 l0 -375 180 0 180 0 0 55 0 54 -92 3 -93 3 -3 123 -3 122
96 0 95 0 0 55 0 54 -92 3 -93 3 0 80 0 80 93 3 92 3 0 54 0 55 -180 0 -180 0
0 -375z"/>
<path d="M9740 3866 l0 -376 85 0 85 0 0 144 0 143 72 7 c80 7 139 34 172 79
19 25 21 42 21 152 0 109 -2 127 -21 152 -40 56 -83 67 -256 71 l-158 4 0
-376z m248 252 c15 -19 25 -102 18 -153 -9 -54 -27 -75 -67 -75 l-29 0 0 120
0 120 34 0 c18 0 38 -6 44 -12z"/>
<path d="M10270 3866 l0 -376 85 0 85 0 0 170 0 170 34 0 c55 0 66 -25 66
-155 0 -60 5 -127 11 -147 l10 -38 90 0 90 0 -13 23 c-7 13 -14 82 -17 169 -6
137 -8 148 -30 172 -13 14 -39 29 -57 32 l-34 6 43 22 c54 27 77 72 77 149 0
141 -45 169 -282 175 l-158 4 0 -376z m250 244 c15 -15 20 -33 20 -75 0 -65
-22 -95 -70 -95 l-30 0 0 95 0 95 30 0 c17 0 39 -9 50 -20z"/>
<path d="M10800 3865 l0 -375 85 0 85 0 0 375 0 375 -85 0 -85 0 0 -375z"/>
<path d="M11060 3865 l0 -375 70 0 70 0 2 317 3 318 49 -318 49 -317 77 0 76
0 51 318 51 317 1 -317 1 -318 80 0 80 0 0 375 0 375 -124 0 c-110 0 -125 -2
-129 -17 -3 -10 -20 -127 -38 -261 -18 -133 -36 -237 -40 -230 -3 7 -21 124
-40 261 l-33 247 -128 0 -128 0 0 -375z"/>
<path d="M11920 4168 c-7 -40 -36 -209 -64 -375 l-52 -303 72 0 c82 0 76 -7
89 105 11 87 11 86 63 83 l47 -3 10 -90 10 -90 88 -3 89 -3 -6 28 c-3 15 -24
170 -46 343 -22 173 -42 330 -45 348 l-6 32 -119 0 -118 0 -12 -72z m139 -345
c1 -30 -2 -33 -29 -33 -17 0 -30 5 -30 13 0 36 23 274 28 287 5 14 30 -194 31
-267z"/>
<path d="M12340 3866 l0 -376 85 0 85 0 0 170 0 170 34 0 c55 0 66 -25 66
-155 0 -60 5 -127 11 -147 l10 -38 90 0 90 0 -13 23 c-7 13 -14 82 -17 169 -6
137 -8 148 -30 172 -13 14 -39 29 -57 32 l-34 6 43 22 c54 27 77 72 77 149 0
141 -45 169 -282 175 l-158 4 0 -376z m250 244 c15 -15 20 -33 20 -75 0 -65
-22 -95 -70 -95 l-30 0 0 95 0 95 30 0 c17 0 39 -9 50 -20z"/>
<path d="M12865 4198 c8 -24 41 -129 74 -234 l61 -191 0 -142 0 -141 85 0 85
0 0 132 0 131 75 238 c41 131 75 241 75 244 0 3 -38 5 -83 5 l-84 0 -28 -132
c-15 -73 -30 -139 -34 -146 -4 -7 -20 45 -35 115 -15 70 -29 136 -32 146 -5
14 -18 17 -89 17 l-84 0 14 -42z"/>
<path d="M14760 3865 l0 -375 85 0 85 0 0 180 0 180 50 0 50 0 0 -180 0 -180
85 0 85 0 0 375 0 375 -85 0 -84 0 -3 -137 -3 -138 -47 -3 -48 -3 0 140 0 141
-85 0 -85 0 0 -375z"/>
<path d="M16350 3865 l0 -375 180 0 180 0 0 55 0 54 -92 3 -93 3 -3 318 -2
317 -85 0 -85 0 0 -375z"/>
<path d="M9420 3830 l0 -60 115 0 115 0 0 60 0 60 -115 0 -115 0 0 -60z"/>
<path d="M6110 3173 c-66 -33 -99 -85 -107 -167 -9 -91 28 -171 97 -206 47
-24 144 -27 196 -5 l35 14 -3 98 -3 98 -69 3 c-70 3 -90 -6 -79 -35 3 -8 22
-13 54 -13 l49 0 0 -60 c0 -57 -2 -61 -27 -71 -16 -6 -45 -8 -66 -6 -81 11
-127 68 -127 160 0 109 50 167 143 167 26 0 64 -7 84 -15 45 -19 45 -19 41 7
-4 29 -44 48 -111 55 -43 4 -61 0 -107 -24z"/>
<path d="M16087 3164 c-37 -23 -57 -42 -57 -55 0 -24 3 -24 56 7 l45 26 -3
-158 -3 -159 -47 -3 c-40 -3 -48 -6 -48 -23 0 -18 8 -19 115 -19 108 0 115 1
115 20 0 17 -7 20 -40 20 l-40 0 0 184 c0 158 -2 185 -16 190 -9 3 -17 6 -18
6 -1 0 -27 -16 -59 -36z"/>
<path d="M3586 3033 c31 -87 63 -179 71 -205 15 -44 19 -48 48 -48 l32 0 66
188 c36 103 69 195 73 205 6 16 2 18 -21 15 -27 -3 -31 -10 -84 -170 -31 -92
-58 -169 -61 -172 -3 -2 -32 74 -64 170 -57 171 -59 174 -87 174 l-28 0 55
-157z"/>
<path d="M3990 2985 l0 -205 25 0 25 0 0 205 0 205 -25 0 -25 0 0 -205z"/>
<path d="M4230 3016 c0 -196 -5 -210 -61 -189 -25 10 -31 9 -36 -3 -9 -25 17
-44 62 -44 35 0 48 5 64 26 19 25 21 40 21 205 l0 179 -25 0 -25 0 0 -174z"/>
<path d="M4455 2994 c-38 -108 -72 -200 -74 -206 -2 -5 9 -8 24 -6 23 2 31 12
47 56 l19 52 88 0 87 0 19 -55 c16 -49 21 -55 46 -55 l28 0 -43 123 c-109 303
-98 282 -137 285 l-34 2 -70 -196z m140 41 c16 -44 30 -86 33 -92 3 -10 -14
-13 -67 -13 -43 0 -71 4 -71 10 0 25 63 190 70 183 4 -4 19 -44 35 -88z"/>
<path d="M4807 3078 c55 -107 58 -118 63 -203 5 -88 6 -90 30 -90 24 0 25 2
30 90 5 85 8 96 63 203 l57 112 -29 0 c-26 0 -32 -7 -72 -95 -24 -52 -46 -95
-49 -95 -3 0 -25 43 -49 95 -40 88 -46 95 -73 95 l-28 0 57 -112z"/>
<path d="M5160 2985 l0 -206 23 3 c22 3 22 4 22 176 0 94 1 172 2 172 0 0 43
-77 95 -170 69 -127 99 -172 115 -176 52 -14 53 -10 53 206 l0 200 -25 0 -25
0 -1 -167 c0 -114 -3 -163 -10 -153 -5 8 -47 83 -92 165 -82 149 -82 150 -119
153 l-38 3 0 -206z"/>
<path d="M5645 2994 c-38 -108 -72 -200 -74 -206 -2 -5 9 -8 24 -6 23 2 31 12
47 56 l19 52 88 0 87 0 18 -55 c15 -50 20 -55 46 -55 l29 0 -43 123 c-109 303
-98 282 -137 285 l-34 2 -70 -196z m140 41 c16 -44 30 -86 33 -92 3 -10 -14
-13 -67 -13 -43 0 -71 4 -71 10 0 25 63 190 70 183 4 -4 19 -44 35 -88z"/>
<path d="M6515 2994 c-38 -109 -69 -200 -67 -203 1 -3 12 -6 24 -6 17 0 25 11
38 50 l17 50 89 3 90 3 18 -56 c14 -47 21 -55 42 -55 16 0 24 5 24 18 -1 9
-31 100 -69 202 l-67 185 -35 3 -34 2 -70 -196z m140 41 c16 -44 30 -86 33
-92 3 -10 -14 -13 -67 -13 -43 0 -71 4 -71 10 0 25 63 190 70 183 4 -4 19 -44
35 -88z"/>
<path d="M6900 2985 l0 -205 25 0 c25 0 25 0 25 96 l0 97 37 -6 c49 -8 67 -28
101 -112 25 -61 32 -70 57 -73 23 -3 27 -1 21 15 -40 108 -54 139 -75 161 -14
16 -19 28 -13 30 75 25 87 141 19 182 -25 16 -50 20 -114 20 l-83 0 0 -205z
m176 140 c40 -55 -1 -115 -78 -115 l-48 0 0 71 0 71 56 -4 c40 -3 61 -10 70
-23z"/>
<path d="M7690 2985 l0 -205 25 0 c24 0 24 1 27 106 l3 106 77 -106 c63 -86
82 -106 103 -106 14 0 25 5 25 11 0 6 -34 55 -76 110 -69 90 -75 101 -62 117
91 107 128 155 128 163 0 5 -11 9 -24 9 -19 0 -42 -22 -98 -92 l-73 -92 -3 92
c-3 90 -3 92 -27 92 l-25 0 0 -205z"/>
<path d="M8095 2994 c-38 -108 -72 -200 -74 -206 -2 -5 9 -8 25 -6 23 2 30 11
44 53 l17 50 89 3 90 3 18 -56 c14 -47 21 -55 42 -55 16 0 24 5 24 18 -1 9
-31 100 -69 202 l-67 185 -35 3 -34 2 -70 -196z m144 33 c17 -48 31 -90 31
-93 0 -2 -31 -4 -70 -4 -49 0 -70 4 -70 13 0 6 14 50 30 96 17 46 30 86 30 89
0 20 22 -25 49 -101z"/>
<path d="M8490 2985 l0 -206 103 3 c94 3 102 4 102 23 0 18 -8 20 -77 23 l-78
3 0 179 0 180 -25 0 -25 0 0 -205z"/>
<path d="M8800 2985 l0 -205 110 0 c103 0 110 1 110 20 0 18 -7 20 -85 20
l-85 0 0 80 0 80 76 0 c66 0 75 2 72 18 -3 14 -16 18 -76 20 l-72 3 0 64 0 65
85 0 c78 0 85 2 85 20 0 19 -7 20 -110 20 l-110 0 0 -205z"/>
<path d="M9125 3167 c3 -12 29 -103 58 -202 l52 -180 34 0 34 0 43 160 c23 88
44 153 47 145 4 -8 18 -58 32 -110 58 -213 52 -200 85 -200 16 0 32 5 35 10 7
12 115 379 115 392 0 4 -11 8 -25 8 -20 0 -26 -7 -34 -37 -6 -21 -26 -98 -45
-172 -19 -73 -37 -135 -39 -137 -2 -2 -11 22 -19 53 -9 32 -31 111 -48 176
-31 113 -33 117 -60 117 -27 0 -28 -2 -71 -170 -24 -93 -46 -170 -49 -170 -3
0 -25 77 -50 170 -44 169 -45 170 -73 170 -23 0 -27 -3 -22 -23z"/>
<path d="M9775 2994 c-38 -108 -72 -200 -74 -206 -2 -5 9 -8 25 -6 23 2 30 11
44 53 l17 50 89 3 90 3 18 -56 c14 -47 21 -55 42 -55 16 0 24 5 24 18 -1 9
-31 100 -69 202 l-67 185 -35 3 -34 2 -70 -196z m144 33 c17 -48 31 -90 31
-93 0 -2 -31 -4 -70 -4 -49 0 -70 4 -70 13 0 6 14 50 30 96 17 46 30 86 30 89
0 20 22 -25 49 -101z"/>
<path d="M10170 2985 l0 -205 68 0 c128 1 181 25 220 100 26 52 30 148 8 201
-17 41 -61 84 -99 98 -16 6 -66 11 -113 11 l-84 0 0 -205z m198 138 c40 -29
56 -70 56 -138 -1 -66 -21 -116 -57 -139 -12 -8 -50 -18 -84 -22 l-63 -7 0
168 0 167 60 -4 c39 -3 70 -11 88 -25z"/>
<path d="M10610 2985 l0 -205 25 0 25 0 0 205 0 205 -25 0 -25 0 0 -205z"/>
<path d="M11210 2985 l0 -205 25 0 c25 0 25 1 25 79 l0 79 60 4 c74 5 109 29
130 86 13 37 13 47 0 85 -20 58 -60 77 -162 77 l-78 0 0 -205z m164 144 c20
-16 26 -29 26 -60 0 -57 -34 -89 -95 -89 l-45 0 0 85 0 85 44 0 c29 0 52 -7
70 -21z"/>
<path d="M11590 2985 l0 -205 25 0 25 0 0 205 0 205 -25 0 -25 0 0 -205z"/>
<path d="M11790 2985 l0 -205 25 0 25 0 2 181 3 180 69 -181 c65 -170 71 -181
94 -178 21 3 32 24 95 180 l72 177 3 -179 2 -180 25 0 25 0 0 206 0 205 -42
-3 -41 -3 -65 -157 c-35 -87 -68 -158 -72 -158 -5 0 -34 66 -66 148 -32 81
-62 153 -67 160 -5 6 -27 12 -48 12 l-39 0 0 -205z"/>
<path d="M12390 2985 l0 -205 25 0 c25 0 25 1 25 79 l0 79 60 4 c74 5 109 29
130 86 13 37 13 47 0 85 -20 58 -60 77 -162 77 l-78 0 0 -205z m164 144 c20
-16 26 -29 26 -59 0 -56 -25 -82 -88 -88 l-52 -5 0 87 0 86 44 0 c29 0 52 -7
70 -21z"/>
<path d="M12770 2985 l0 -205 25 0 c25 0 25 0 25 96 l0 97 37 -6 c49 -8 67
-28 101 -112 25 -61 32 -70 57 -73 23 -3 27 -1 21 15 -40 108 -54 139 -75 161
-14 16 -19 28 -13 30 75 25 87 141 19 182 -25 16 -50 20 -114 20 l-83 0 0
-205z m153 154 c29 -16 37 -28 37 -61 0 -44 -32 -68 -90 -68 l-50 0 0 70 0 70
41 0 c22 0 50 -5 62 -11z"/>
<path d="M13160 2985 l0 -205 25 0 25 0 0 205 0 205 -25 0 -25 0 0 -205z"/>
<path d="M13760 2985 l0 -205 25 0 c25 0 25 1 25 79 l0 79 60 4 c73 5 109 29
129 85 12 34 13 48 2 83 -18 61 -55 80 -158 80 l-83 0 0 -205z m164 144 c20
-16 26 -29 26 -59 0 -56 -25 -82 -88 -88 l-52 -5 0 87 0 86 44 0 c29 0 52 -7
70 -21z"/>
<path d="M14142 3020 l3 -170 32 -32 c28 -28 40 -33 96 -36 76 -5 118 13 147
61 18 28 20 51 20 190 l0 157 -25 0 -25 0 0 -156 0 -156 -29 -29 c-23 -23 -38
-29 -71 -29 -33 0 -48 6 -71 29 l-29 29 0 156 0 156 -26 0 -25 0 3 -170z"/>
<path d="M14600 2985 l0 -206 23 3 c22 3 22 4 22 176 0 94 1 172 2 172 0 0 43
-77 95 -170 69 -127 99 -172 115 -176 52 -14 53 -10 53 206 l0 200 -25 0 -25
0 -1 -167 c0 -114 -3 -163 -10 -153 -5 8 -47 83 -92 165 -82 149 -82 150 -119
153 l-38 3 0 -206z"/>
<path d="M15060 2985 l0 -205 110 0 c103 0 110 1 110 20 0 18 -7 20 -85 20
l-85 0 0 80 0 80 76 0 c66 0 75 2 72 18 -3 14 -16 18 -76 20 l-72 3 0 64 0 65
85 0 c78 0 85 2 85 20 0 19 -7 20 -110 20 l-110 0 0 -205z"/>
<path d="M16375 3180 c-14 -23 11 -30 106 -30 54 0 99 -4 99 -8 0 -5 -34 -83
-75 -175 -41 -91 -75 -171 -75 -177 0 -6 12 -10 26 -8 23 3 33 22 105 186 43
101 79 192 79 203 0 18 -8 19 -129 19 -76 0 -132 -4 -136 -10z"/>
<path d="M15564 2949 c-13 -21 14 -30 82 -27 56 2 69 6 72 21 3 15 -6 17 -72
17 -43 0 -78 -5 -82 -11z"/>
<path d="M7300 2821 c0 -16 -9 -50 -20 -76 -24 -56 -24 -55 -5 -55 21 0 77 87
79 123 1 28 -3 32 -26 35 -25 3 -28 0 -28 -27z"/>
<path d="M10820 2821 c0 -16 -9 -50 -20 -76 -24 -56 -24 -55 -5 -55 21 0 77
87 79 123 1 28 -3 32 -26 35 -25 3 -28 0 -28 -27z"/>
<path d="M13370 2821 c0 -16 -9 -50 -20 -76 -24 -56 -24 -55 -5 -55 21 0 77
87 79 123 1 28 -3 32 -26 35 -25 3 -28 0 -28 -27z"/>
<path d="M3650 1900 l0 -550 6510 0 6510 0 0 550 0 550 -6510 0 -6510 0 0
-550z m2234 256 c55 -23 76 -59 76 -132 l0 -64 -64 0 -65 0 -3 51 c-3 59 -25
83 -52 60 -24 -20 -24 -372 0 -392 29 -24 49 1 52 70 l3 61 64 0 65 0 0 -65
c0 -112 -38 -154 -146 -163 -80 -6 -144 22 -168 72 -23 49 -23 393 0 441 30
65 154 96 238 61z m1299 0 c18 -7 43 -26 57 -41 l25 -27 0 -213 0 -213 -25
-27 c-33 -36 -79 -55 -135 -55 -56 0 -102 19 -135 55 l-25 27 0 213 0 213 25
27 c14 15 39 34 55 41 39 17 117 18 158 0z m1380 0 c18 -7 43 -26 57 -41 l25
-27 0 -213 0 -213 -25 -27 c-33 -36 -79 -55 -135 -55 -56 0 -102 19 -135 55
l-25 27 0 213 0 213 25 27 c14 15 39 34 55 41 39 17 117 18 158 0z m2606 -2
c56 -22 71 -50 71 -134 l0 -70 -65 0 -65 0 0 54 c0 35 -5 58 -15 66 -17 14
-43 7 -51 -15 -13 -33 8 -66 77 -121 90 -73 119 -122 119 -198 0 -102 -41
-145 -145 -154 -76 -6 -126 10 -160 49 -22 27 -25 40 -25 105 l0 74 65 0 65 0
0 -59 c0 -41 5 -62 16 -72 26 -21 49 2 48 47 -2 34 -10 46 -87 119 -47 44 -90
90 -96 102 -6 12 -11 49 -11 82 0 98 48 138 167 140 29 1 70 -6 92 -15z m410
0 c56 -22 71 -50 71 -134 l0 -70 -65 0 -65 0 0 54 c0 35 -5 58 -15 66 -17 14
-43 7 -51 -15 -13 -33 8 -66 77 -121 90 -74 119 -121 119 -200 0 -104 -53
-154 -164 -154 -68 0 -115 18 -144 55 -18 23 -22 41 -22 101 l0 74 65 0 65 0
0 -59 c0 -41 5 -62 16 -72 26 -21 49 2 48 47 -2 34 -10 46 -87 119 -47 44 -90
90 -96 102 -6 12 -11 49 -11 82 0 98 48 138 167 140 29 1 70 -6 92 -15z m574
2 c18 -7 43 -26 57 -41 l25 -27 0 -213 0 -213 -25 -27 c-33 -36 -79 -55 -135
-55 -56 0 -102 19 -135 55 l-25 27 0 213 0 213 25 27 c14 15 39 34 55 41 39
17 117 18 158 0z m1073 -6 c49 -24 74 -68 74 -131 0 -59 -30 -116 -104 -196
-75 -82 -96 -112 -96 -135 0 -16 11 -18 100 -18 l100 0 0 -40 0 -40 -171 0
-172 0 5 74 c6 87 26 127 116 229 75 85 98 130 83 163 -13 29 -46 31 -61 5 -5
-11 -10 -40 -10 -65 l0 -46 -65 0 -65 0 0 55 c0 89 32 142 95 158 50 12 130 6
171 -13z m416 -4 c51 -33 58 -66 58 -276 0 -220 -5 -240 -73 -271 -84 -38
-199 -16 -237 46 -18 30 -20 49 -20 227 0 186 1 197 23 229 35 52 80 71 158
66 38 -2 76 -11 91 -21z m384 4 c49 -24 74 -68 74 -131 0 -59 -30 -116 -104
-196 -75 -82 -96 -112 -96 -135 0 -16 11 -18 100 -18 l100 0 0 -40 0 -40 -171
0 -172 0 5 74 c6 87 26 127 116 229 75 85 98 130 83 163 -13 29 -46 31 -61 5
-5 -11 -10 -40 -10 -65 l0 -46 -65 0 -65 0 0 55 c0 89 32 142 95 158 50 12
130 6 171 -13z m1050 0 c49 -24 74 -68 74 -131 0 -59 -28 -111 -109 -201 -125
-138 -124 -148 9 -148 l100 0 0 -40 0 -40 -171 0 -172 0 5 74 c6 88 26 127
118 231 91 102 111 164 58 181 -30 9 -48 -19 -48 -78 l0 -48 -65 0 -65 0 0 58
c0 110 53 162 164 162 40 0 74 -7 102 -20z m403 2 c64 -34 71 -62 71 -280 0
-223 -5 -242 -73 -273 -84 -38 -199 -16 -237 46 -18 30 -20 49 -20 227 0 186
1 197 23 228 12 18 38 41 57 51 46 25 134 25 179 1z m397 -2 c49 -24 74 -68
74 -131 0 -59 -28 -111 -109 -201 -125 -138 -124 -148 9 -148 l100 0 0 -40 0
-40 -171 0 -172 0 5 74 c6 88 26 127 118 231 91 102 111 164 58 181 -30 9 -48
-19 -48 -78 l0 -48 -65 0 -65 0 0 58 c0 110 53 162 164 162 40 0 74 -7 102
-20z m-11702 -27 c11 -66 66 -497 66 -515 0 -15 -10 -18 -64 -18 l-65 0 -5 43
c-3 23 -7 53 -8 67 -3 21 -9 25 -39 28 l-37 3 -8 -68 -9 -68 -59 -3 -59 -3 6
28 c3 15 25 144 48 286 l44 257 92 0 91 0 6 -37z m390 23 c56 -23 66 -48 66
-157 0 -84 -3 -100 -22 -124 -27 -35 -75 -55 -133 -55 l-45 0 0 -110 0 -110
-65 0 -65 0 0 285 0 285 115 0 c76 0 127 -5 149 -14z m400 0 c56 -23 66 -48
66 -157 0 -84 -3 -100 -22 -124 -27 -35 -75 -55 -133 -55 l-45 0 0 -110 0
-110 -65 0 -65 0 0 285 0 285 115 0 c76 0 127 -5 149 -14z m276 -226 l0 -240
75 0 75 0 0 -45 0 -45 -140 0 -140 0 0 285 0 285 65 0 65 0 0 -240z m320 -45
l0 -285 -65 0 -65 0 0 285 0 285 65 0 65 0 0 -285z m744 248 c11 -66 66 -497
66 -515 0 -15 -10 -18 -64 -18 l-65 0 -5 43 c-3 23 -7 53 -8 67 -3 21 -9 25
-39 28 l-37 3 -8 -68 -9 -68 -59 -3 -59 -3 6 28 c3 15 25 144 48 286 l44 257
92 0 91 0 6 -37z m386 -8 l0 -45 -45 0 -45 0 0 -240 0 -240 -65 0 -65 0 0 240
0 240 -50 0 -50 0 0 45 0 45 160 0 160 0 0 -45z m190 -240 l0 -285 -65 0 -65
0 0 285 0 285 65 0 65 0 0 -285z m660 228 c7 -32 25 -116 40 -188 l28 -130 1
188 1 187 55 0 55 0 0 -285 0 -285 -87 0 -88 0 -47 218 -46 217 -1 -217 -1
-218 -55 0 -55 0 0 285 0 285 94 0 95 0 11 -57z m730 12 l0 -45 -70 0 -70 0 0
-60 0 -60 70 0 70 0 0 -45 0 -45 -70 0 -70 0 0 -135 0 -135 -65 0 -65 0 0 285
0 285 135 0 135 0 0 -45z m713 34 c56 -15 79 -57 74 -133 -3 -51 -8 -63 -35
-87 -36 -32 -39 -39 -18 -39 8 0 24 -12 35 -26 18 -23 21 -41 21 -125 0 -54 4
-109 10 -123 l10 -26 -69 0 c-82 0 -81 -2 -81 118 0 96 -14 135 -48 140 -22 3
-22 2 -22 -127 l0 -131 -65 0 -65 0 0 285 0 285 108 0 c59 0 124 -5 145 -11z
m641 -26 c11 -66 66 -497 66 -515 0 -15 -10 -18 -64 -18 l-65 0 -5 43 c-3 23
-7 53 -8 67 -3 21 -9 25 -39 28 l-37 3 -8 -68 -9 -68 -59 -3 -59 -3 6 28 c3
15 25 144 49 286 l43 257 92 0 91 0 6 -37z m386 19 c62 -30 70 -62 70 -265 0
-265 -10 -278 -212 -285 l-118 -4 0 286 0 286 113 0 c87 0 120 -4 147 -18z
m334 1 c2 -10 15 -93 27 -185 13 -92 26 -165 29 -163 4 2 17 85 30 185 l24
180 98 0 98 0 0 -285 0 -285 -60 0 -60 0 -1 228 -1 227 -39 -225 c-21 -124
-38 -226 -39 -227 0 -2 -27 -3 -60 -3 -33 0 -60 1 -61 3 0 1 -18 106 -39 232
l-38 230 -1 -232 -1 -233 -55 0 -55 0 0 285 0 285 99 0 c86 0 100 -2 105 -17z
m506 -268 l0 -285 -65 0 -65 0 0 285 0 285 65 0 65 0 0 -285z m1000 0 l0 -285
-65 0 -65 0 0 285 0 285 65 0 65 0 0 -285z m660 228 c7 -32 25 -116 40 -188
l28 -130 1 188 1 187 55 0 55 0 0 -285 0 -285 -88 0 -87 0 -47 218 -46 217 -1
-217 -1 -218 -55 0 -55 0 0 285 0 285 94 0 95 0 11 -57z m1960 -118 c0 -168 1
-175 20 -175 17 0 20 -7 20 -45 0 -38 -3 -45 -20 -45 -18 0 -20 -7 -20 -65 l0
-65 -65 0 -65 0 0 65 0 65 -95 0 -95 0 0 43 c0 31 20 88 77 219 l78 178 83 0
82 0 0 -175z m1890 135 l0 -39 -102 -3 -103 -3 -3 -47 c-2 -27 -1 -48 1 -48 3
0 18 7 33 15 16 8 46 15 68 15 30 0 45 -7 73 -35 l35 -35 -4 -139 c-3 -133 -4
-141 -28 -167 -50 -54 -141 -70 -220 -38 -62 25 -80 58 -80 148 l0 76 65 0 65
0 0 -58 c0 -69 19 -103 47 -86 15 10 18 25 18 109 0 84 -3 99 -18 109 -16 9
-22 7 -34 -11 -13 -20 -24 -23 -79 -23 l-64 0 0 150 0 150 165 0 165 0 0 -40z
m-1610 -280 l0 -50 -90 0 -90 0 0 50 0 50 90 0 90 0 0 -50z"/>
<path d="M7082 2068 c-8 -8 -12 -66 -12 -194 0 -153 2 -184 16 -195 11 -9 20
-10 32 -2 15 9 17 35 20 193 2 181 -2 210 -32 210 -7 0 -17 -5 -24 -12z"/>
<path d="M8462 2068 c-8 -8 -12 -66 -12 -194 0 -153 2 -184 16 -195 11 -9 20
-10 32 -2 15 9 17 35 20 193 2 181 -2 210 -32 210 -7 0 -17 -5 -24 -12z"/>
<path d="M12052 2068 c-8 -8 -12 -66 -12 -194 0 -153 2 -184 16 -195 11 -9 20
-10 32 -2 15 9 17 35 20 193 2 181 -2 210 -32 210 -7 0 -17 -5 -24 -12z"/>
<path d="M13512 2068 c-8 -8 -12 -66 -12 -194 0 -153 2 -184 16 -195 11 -9 20
-10 32 -2 15 9 17 35 20 193 2 181 -2 210 -32 210 -7 0 -17 -5 -24 -12z"/>
<path d="M15362 2068 c-8 -8 -12 -66 -12 -194 0 -153 2 -184 16 -195 11 -9 20
-10 32 -2 15 9 17 35 20 193 2 181 -2 210 -32 210 -7 0 -17 -5 -24 -12z"/>
<path d="M4058 1995 c-4 -22 -10 -70 -13 -107 -6 -64 -5 -68 14 -68 23 0 25
22 12 150 -6 63 -7 64 -13 25z"/>
<path d="M4430 1985 c0 -84 2 -95 18 -95 39 0 47 17 47 95 0 78 -8 95 -47 95
-16 0 -18 -11 -18 -95z"/>
<path d="M4830 1985 c0 -84 2 -95 18 -95 39 0 47 17 47 95 0 78 -8 95 -47 95
-16 0 -18 -11 -18 -95z"/>
<path d="M6188 1995 c-4 -22 -10 -70 -13 -107 -6 -64 -5 -68 14 -68 23 0 25
22 12 150 -6 63 -7 64 -13 25z"/>
<path d="M8860 2004 c0 -73 1 -75 23 -69 35 11 42 23 42 71 0 34 -5 49 -19 60
-39 28 -46 19 -46 -62z"/>
<path d="M9508 1995 c-4 -22 -10 -70 -13 -107 -6 -64 -5 -68 14 -68 23 0 25
22 12 150 -6 63 -7 64 -13 25z"/>
<path d="M9880 1875 c0 -176 2 -205 15 -205 8 0 24 9 35 20 18 18 20 33 20
185 0 152 -2 167 -20 185 -11 11 -27 20 -35 20 -13 0 -15 -29 -15 -205z"/>
<path d="M14292 1922 c-23 -53 -42 -100 -42 -104 0 -5 20 -8 45 -8 l45 0 0
105 c0 58 -1 105 -2 105 -2 0 -22 -44 -46 -98z"/>
<path d="M1134 2361 c-23 -10 -51 -32 -62 -49 -22 -30 -56 -141 -47 -151 3 -2
18 7 33 22 97 92 239 91 488 -6 133 -51 235 -78 317 -82 40 -2 59 -1 42 1
-127 21 -248 72 -425 179 -174 105 -259 126 -346 86z"/>
<path d="M2910 2371 c-38 -12 -116 -53 -220 -116 -142 -87 -289 -146 -390
-158 -28 -3 -25 -4 15 -5 69 -2 183 27 365 94 131 48 168 57 240 61 104 6 154
-6 216 -53 l47 -36 -7 42 c-13 79 -60 147 -119 169 -32 12 -110 13 -147 2z"/>
<path d="M1120 2136 c-65 -18 -103 -40 -138 -80 -46 -53 -55 -101 -48 -246 8
-164 20 -234 47 -272 27 -37 105 -74 177 -84 l52 -7 0 137 c0 104 -3 136 -12
135 -46 -6 -72 4 -111 41 -48 45 -46 50 37 75 100 30 244 14 601 -66 186 -42
194 -43 370 -43 176 0 185 1 370 42 302 68 383 82 486 82 100 0 186 -20 196
-47 11 -29 -58 -80 -119 -87 l-33 -3 -3 -127 c-3 -148 -4 -147 95 -122 73 18
125 52 148 97 23 44 47 307 35 381 -23 148 -124 208 -349 208 -130 0 -184 -9
-455 -75 -307 -75 -427 -75 -731 0 -99 25 -216 51 -260 60 -95 18 -291 18
-355 1z m360 -22 c45 -8 141 -30 213 -49 199 -51 288 -65 411 -65 126 0 186
10 446 75 165 42 200 47 331 52 116 4 157 2 200 -11 144 -41 186 -116 172
-309 -5 -72 -9 -87 -17 -72 -55 95 -137 135 -279 135 -103 0 -162 -9 -462 -74
-383 -82 -414 -81 -820 4 -126 27 -267 54 -313 61 -184 26 -315 -8 -371 -96
l-30 -47 -6 47 c-4 25 -5 86 -3 134 3 75 8 95 30 129 27 40 88 77 152 93 57
13 261 10 346 -7z m-344 -409 c16 -4 35 -8 42 -11 9 -2 12 -34 12 -115 l0
-111 -42 7 c-108 17 -178 80 -178 162 0 46 20 106 46 134 13 15 18 13 52 -22
21 -21 52 -41 68 -44z m2094 -15 c13 -47 13 -65 -4 -104 -26 -62 -79 -97 -169
-110 l-48 -7 3 113 3 113 38 6 c27 4 51 19 80 47 l41 41 23 -32 c13 -17 28
-47 33 -67z"/>
<path d="M2923 2044 c-2 -6 -3 -36 -1 -65 l3 -54 43 0 c50 0 62 19 15 23 -43
4 -45 32 -3 32 17 0 30 5 30 10 0 6 -13 10 -30 10 -20 0 -30 5 -30 15 0 10 10
15 29 15 49 0 44 18 -5 22 -29 2 -48 -1 -51 -8z"/>
<path d="M1180 2035 c-17 -21 -5 -44 30 -56 31 -11 38 -23 19 -34 -5 -4 -19 1
-29 10 -12 11 -20 13 -25 5 -12 -19 16 -41 48 -38 57 6 62 65 7 78 -13 3 -25
11 -28 18 -5 15 20 16 36 0 15 -15 26 -4 19 17 -8 19 -61 20 -77 0z"/>
<path d="M1296 2013 c-12 -78 -9 -93 23 -93 16 0 37 -3 47 -7 12 -4 15 -2 12
8 -2 8 -17 15 -31 17 -38 5 -35 32 3 32 17 0 30 5 30 10 0 6 -13 13 -30 17
-41 8 -38 23 5 23 36 0 47 13 19 24 -9 3 -28 6 -44 6 -24 0 -28 -5 -34 -37z"/>
<path d="M2788 2044 c-11 -11 47 -125 62 -122 14 3 48 114 37 124 -11 11 -27
-7 -27 -29 0 -12 -4 -29 -9 -36 -7 -12 -14 -5 -26 27 -16 40 -25 49 -37 36z"/>
<path d="M1416 1998 c-11 -66 -11 -91 2 -95 7 -3 12 5 12 21 0 36 25 33 40 -4
7 -16 19 -30 26 -30 18 0 18 11 0 35 -12 16 -11 21 7 35 38 31 5 69 -60 70
-17 0 -23 -7 -27 -32z m73 -4 c3 -3 0 -9 -6 -15 -15 -15 -43 -4 -43 16 0 12 6
15 23 9 12 -3 24 -8 26 -10z"/>
<path d="M2676 2014 c-22 -21 -20 -77 2 -97 40 -36 102 -9 102 44 0 58 -66 92
-104 53z m63 -18 c7 -8 11 -27 9 -43 -4 -40 -44 -45 -58 -8 -13 33 -13 31 6
49 19 20 28 20 43 2z"/>
<path d="M1534 1979 c19 -120 29 -126 75 -45 35 60 36 66 18 66 -8 0 -23 -19
-33 -42 l-19 -42 -10 49 c-14 64 -40 76 -31 14z"/>
<path d="M2554 1983 c3 -10 8 -40 12 -66 6 -48 7 -49 37 -43 16 3 36 6 43 6 8
0 14 6 14 14 0 11 -9 13 -34 9 l-33 -5 -7 51 c-5 36 -11 51 -22 51 -10 0 -14
-6 -10 -17z"/>
<path d="M1641 1929 c-7 -33 -10 -63 -7 -66 12 -12 25 11 31 55 8 62 8 66 -3
70 -5 1 -15 -25 -21 -59z"/>
<path d="M2459 1973 c-1 -5 0 -18 1 -30 1 -18 -4 -23 -24 -23 -19 0 -26 5 -26
20 0 11 -7 20 -15 20 -11 0 -14 -7 -10 -27 3 -16 8 -45 11 -65 4 -24 12 -38
21 -38 11 0 13 7 9 27 -5 17 -3 29 6 34 24 15 38 9 38 -16 0 -16 6 -25 15 -25
18 0 18 1 4 73 -7 31 -16 57 -20 57 -5 0 -9 -3 -10 -7z"/>
<path d="M1696 1948 c-9 -12 -16 -34 -16 -49 0 -48 62 -78 90 -44 17 20 7 29
-17 17 -27 -15 -45 0 -41 33 4 39 33 56 52 30 17 -24 35 -12 20 13 -17 27 -69
27 -88 0z"/>
<path d="M1805 1890 c-4 -33 -6 -63 -4 -64 2 -2 23 -7 47 -11 52 -8 59 11 7
21 -43 8 -41 28 3 32 40 4 41 18 2 26 -44 8 -36 26 12 26 52 0 40 16 -18 26
l-42 6 -7 -62z"/>
<path d="M2310 1943 c-8 -2 -22 -7 -30 -10 -8 -4 -20 -5 -27 -4 -9 1 -12 -14
-10 -51 2 -47 0 -53 -18 -53 -16 0 -21 8 -25 44 -3 26 -11 46 -19 49 -11 4
-13 -5 -7 -49 8 -59 27 -83 60 -73 34 10 44 31 38 80 -5 44 -4 46 19 42 17 -2
25 -10 27 -28 5 -51 13 -70 26 -70 10 0 11 9 5 43 -12 60 -11 67 6 67 8 0 15
5 15 10 0 10 -34 12 -60 3z"/>
<path d="M1960 1910 c0 -5 7 -10 16 -10 14 0 16 -9 12 -55 -6 -75 17 -76 26
-1 6 46 10 54 27 53 16 -1 19 -9 19 -54 0 -40 4 -53 15 -53 9 0 15 9 15 25 0
14 4 25 9 25 5 0 16 -11 25 -25 9 -14 24 -25 32 -25 15 0 15 2 0 25 -13 20
-14 28 -4 45 10 15 10 25 2 38 -9 14 -28 18 -103 20 -58 2 -91 -1 -91 -8z
m175 -29 c7 -12 -31 -25 -45 -16 -5 3 -10 10 -10 16 0 12 47 12 55 0z"/>
</g>
</svg>
