<?xml version="1.0" standalone="no"?>
<!DOCTYPE svg PUBLIC "-//W3C//DTD SVG 20010904//EN"
 "http://www.w3.org/TR/2001/REC-SVG-20010904/DTD/svg10.dtd">
<svg version="1.0" xmlns="http://www.w3.org/2000/svg"
 width="2480.000000pt" height="400.000000pt" viewBox="-310 0 2480.000000 400.000000" 
 preserveAspectRatio="xMidYMid meet">
  <g transform="translate(0.000000,400.000000) scale(0.0750000,-0.0750000)" 
fill="#000000" stroke="none">
<path d="M3105 4604 c-444 -66 -780 -279 -1019 -647 -322 -494 -319 -1167 8
-1656 218 -326 525 -537 889 -612 687 -140 1366 270 1596 966 56 171 75 288
75 480 0 187 -18 304 -71 470 -141 440 -483 793 -903 935 -124 42 -239 61
-395 65 -82 2 -163 1 -180 -1z m215 -67 l0 -43 89 -12 c450 -60 834 -358 1023
-793 85 -197 121 -420 107 -659 -34 -543 -404 -1029 -906 -1190 -104 -33 -251
-60 -330 -60 -50 0 -53 -1 -53 -26 l0 -26 -87 7 c-612 48 -1101 500 -1225
1129 -28 143 -30 384 -4 525 113 621 596 1084 1194 1145 49 5 52 4 52 -18 0
-21 -7 -23 -110 -39 -405 -61 -762 -322 -955 -698 -102 -200 -143 -360 -152
-594 -4 -134 -2 -180 15 -280 76 -443 340 -805 727 -995 159 -79 356 -130 498
-130 44 0 47 2 47 25 0 23 -4 25 -44 25 -134 0 -321 46 -465 116 -127 61 -220
124 -315 214 -194 184 -317 394 -382 652 -35 138 -45 403 -20 548 49 287 178
532 387 735 173 168 367 273 590 320 108 23 109 23 109 -30 0 -45 0 -45 35
-45 l35 0 0 -120 0 -120 -43 0 c-63 0 -180 -35 -282 -85 -171 -83 -326 -235
-416 -408 -77 -148 -109 -273 -114 -447 -5 -181 28 -331 109 -485 l42 -80 -27
-38 c-58 -81 -58 -193 1 -314 59 -120 152 -178 397 -248 189 -54 250 -78 303
-116 46 -34 50 -35 50 -13 0 42 -28 100 -69 146 -36 40 -69 61 -170 110 -193
93 -291 160 -291 200 0 28 34 22 97 -18 120 -78 260 -125 406 -139 l77 -7 0
-166 0 -165 86 7 c569 43 1037 483 1140 1070 22 121 22 342 0 466 -90 512
-455 912 -944 1036 -137 35 -142 34 -142 -21 0 -45 0 -45 -35 -45 l-35 0 0
-120 0 -120 33 0 c47 0 174 -34 256 -68 233 -98 435 -325 519 -582 81 -246 60
-529 -56 -761 l-48 -97 23 -28 c13 -16 31 -54 40 -84 20 -69 6 -158 -39 -243
-63 -117 -162 -177 -411 -246 -159 -45 -243 -78 -293 -116 -18 -14 -35 -25
-37 -25 -12 0 16 99 38 132 35 53 88 89 250 167 145 71 211 115 233 156 11 21
10 26 -8 35 -17 9 -28 5 -65 -20 -120 -82 -297 -145 -430 -151 l-70 -4 -3 113
-3 112 -299 0 -300 0 -16 -25 c-14 -22 -15 -32 -5 -66 17 -55 82 -104 260
-194 91 -46 162 -89 189 -115 24 -23 41 -44 39 -47 -3 -2 -31 9 -63 25 -33 16
-117 48 -189 72 -241 79 -332 138 -381 245 -51 110 -39 212 31 273 61 54 82
57 420 57 l310 0 3 -112 3 -113 294 0 c282 0 296 -1 315 -20 24 -24 25 -39 6
-84 -20 -47 -85 -93 -255 -180 -94 -49 -162 -90 -189 -117 -23 -23 -42 -46
-42 -50 0 -4 19 3 43 16 23 13 116 49 206 80 90 31 190 69 223 86 127 64 188
151 195 279 4 70 3 78 -25 121 -20 32 -45 54 -78 70 -48 24 -55 24 -371 27
l-323 3 0 93 c0 91 8 116 37 116 9 0 13 -19 13 -71 l0 -70 43 3 42 3 3 55 c1
30 7 85 13 123 l11 67 150 0 149 0 -20 -28 c-30 -43 -99 -102 -137 -118 -18
-8 -54 -14 -79 -14 l-45 0 0 -40 c0 -31 4 -40 18 -41 239 -12 404 121 443 359
11 69 6 148 -17 253 -5 24 -3 27 33 32 21 4 61 7 90 7 l51 0 4 81 c4 102 -9
119 -95 119 -69 0 -79 -14 -75 -98 3 -51 1 -57 -17 -60 -16 -2 -25 7 -39 38
-31 71 -93 137 -214 229 -181 136 -215 184 -228 314 -10 96 -10 97 -54 97
l-40 0 0 150 0 150 35 0 c33 0 35 2 35 35 0 33 -2 35 -35 35 l-35 0 0 55 c0
48 -2 55 -20 55 -20 0 -20 -7 -20 -499 l0 -498 89 -21 c113 -27 199 -70 268
-134 29 -28 53 -54 53 -58 0 -4 -29 -26 -64 -49 -74 -48 -150 -127 -202 -211
-35 -58 -38 -60 -78 -60 -53 0 -66 13 -66 65 0 38 3 42 42 60 57 27 81 63 80
119 0 57 -29 98 -82 120 l-40 16 0 75 c0 89 4 87 -126 49 -105 -30 -161 -60
-230 -126 l-50 -47 -70 24 c-38 14 -77 25 -86 25 -23 0 -22 2 3 51 31 62 92
123 221 221 171 130 201 175 214 323 l7 75 38 0 39 0 0 150 0 150 -35 0 c-33
0 -35 2 -35 35 0 33 2 35 35 35 l35 0 0 51 c0 42 3 52 20 56 11 3 20 12 20 19
0 9 12 14 35 14 35 0 35 0 35 -43z m288 -202 c1 -1 -5 -21 -13 -45 -16 -46
-13 -60 14 -60 13 0 22 13 31 45 11 39 16 45 34 39 11 -4 22 -7 23 -8 1 -1
-14 -54 -35 -118 -35 -110 -38 -115 -59 -107 -22 8 -22 9 -7 51 8 23 12 48 9
56 -10 27 -38 7 -54 -39 -14 -41 -19 -46 -37 -39 l-22 9 28 85 c16 47 31 100
35 116 6 26 10 30 28 24 12 -3 23 -7 25 -9z m190 -84 c10 -6 2 -32 -35 -114
-47 -105 -55 -115 -81 -98 -10 6 -2 32 37 114 27 59 53 107 58 107 4 0 14 -4
21 -9z m151 -97 c31 -26 39 -56 22 -83 -7 -10 -13 -11 -30 -2 -17 9 -19 16
-11 30 7 14 6 22 -5 31 -19 16 -34 4 -74 -59 -34 -53 -38 -73 -17 -90 11 -9
17 -6 31 15 12 19 14 29 6 34 -9 5 -8 10 2 18 11 10 20 8 40 -8 l26 -21 -35
-49 c-32 -45 -38 -49 -57 -39 -35 18 -77 61 -77 79 0 22 65 130 91 153 29 24
52 21 88 -9z m138 -123 c10 -16 6 -23 -23 -52 -32 -31 -33 -34 -17 -52 17 -18
19 -18 49 19 28 33 34 36 48 24 9 -7 15 -17 14 -21 -2 -4 -39 -44 -82 -89 -72
-73 -81 -80 -95 -66 -14 14 -12 20 22 54 35 36 36 39 20 55 -16 16 -19 15 -54
-19 -36 -35 -39 -36 -55 -20 -16 17 -12 22 67 102 46 46 86 84 89 84 3 0 10
-8 17 -19z m212 -287 c11 -14 23 -34 26 -45 8 -23 -19 -69 -39 -69 -22 0 -28
31 -9 52 19 22 6 42 -23 36 -15 -2 -20 -15 -24 -62 -6 -64 -24 -86 -71 -86
-56 0 -96 105 -50 130 26 13 28 13 35 -5 3 -9 1 -24 -6 -34 -12 -19 -5 -51 11
-51 22 0 41 34 41 73 0 47 6 58 35 75 31 18 52 14 74 -14z m-1679 -182 c0 -12
-11 -45 -25 -72 -37 -72 -34 -87 18 -95 167 -26 283 -82 388 -185 41 -41 90
-101 108 -132 l32 -58 55 0 54 0 0 -95 c0 -95 0 -95 -25 -95 -24 0 -25 -2 -25
-70 l0 -70 -35 0 c-32 0 -34 2 -40 38 -43 293 -143 466 -318 552 -86 41 -202
70 -286 70 -39 0 -53 4 -61 19 -14 28 -14 29 31 36 32 6 39 10 33 23 -19 46
-15 68 28 133 41 63 44 66 55 45 7 -11 12 -31 13 -44z m1746 0 c17 -11 34 -48
34 -73 0 -25 -26 -59 -45 -59 -22 0 -24 37 -3 54 47 41 -20 45 -107 7 -34 -15
-46 -25 -43 -38 3 -13 12 -17 31 -16 15 1 27 -2 27 -7 0 -5 3 -15 6 -23 7 -19
-39 -31 -66 -17 -11 6 -25 28 -31 51 -12 37 -11 42 12 64 42 42 156 77 185 57z
m-406 -117 c0 -63 -1 -65 -25 -65 -24 0 -25 3 -25 58 0 64 4 72 32 72 16 0 18
-9 18 -65z m70 0 c0 -63 -1 -65 -25 -65 -24 0 -25 2 -25 65 0 63 1 65 25 65
24 0 25 -2 25 -65z m-780 -180 c0 -137 -2 -140 -59 -110 -83 43 -74 189 14
225 44 19 45 16 45 -115z m1183 75 c6 -24 2 -27 -51 -36 -36 -6 -42 -10 -42
-31 0 -24 2 -25 49 -18 45 6 50 5 56 -15 4 -12 5 -23 3 -24 -1 -2 -52 -10
-112 -20 -88 -13 -111 -14 -118 -4 -16 26 -7 36 42 43 45 6 50 9 50 32 0 25
-1 25 -55 18 -53 -6 -55 -6 -55 18 0 23 5 25 103 39 56 9 107 16 113 17 7 0
14 -8 17 -19z m-1675 -56 c34 -13 42 -20 37 -33 -20 -46 -35 -122 -35 -173 l0
-57 136 -3 136 -3 13 -32 14 -33 -134 0 c-76 0 -135 -4 -135 -9 0 -20 107
-125 145 -142 22 -10 61 -19 88 -19 l47 0 0 -41 0 -42 -77 5 c-45 3 -102 15
-135 27 -115 44 -211 164 -239 299 -13 63 -7 221 9 264 10 25 13 26 49 17 21
-5 57 -17 81 -25z m956 -56 c10 -29 20 -88 23 -130 l6 -78 -147 0 -147 0 18
31 c41 69 111 151 162 189 29 22 56 40 60 40 5 0 16 -24 25 -52z m716 -128
c24 -24 26 -77 4 -108 -13 -19 -24 -22 -84 -22 -70 0 -119 12 -132 33 -13 21
-9 85 8 101 12 12 36 16 100 16 71 0 87 -3 104 -20z m-103 -206 c64 -19 83
-36 83 -75 0 -37 -14 -65 -39 -78 -24 -13 -158 22 -185 49 -23 23 -15 81 15
111 22 22 25 22 126 -7z m17 -279 c-4 -11 -8 -21 -9 -23 -2 -2 -44 17 -94 43
l-91 45 -10 -25 c-5 -14 -16 -25 -25 -25 -20 0 -19 11 7 64 l21 44 104 -51
c89 -45 102 -54 97 -72z"/>
<path d="M2846 4317 c-16 -12 -17 -21 -5 -135 10 -100 15 -122 26 -118 8 4 19
6 25 6 6 0 8 12 5 30 -6 26 -3 31 19 36 24 6 36 -1 46 -28 2 -4 13 -5 26 -1
13 3 22 8 20 12 -22 47 -126 211 -134 211 -5 0 -18 -6 -28 -13z m54 -96 c13
-27 16 -42 9 -47 -6 -3 -14 -2 -19 2 -8 10 -21 84 -15 84 3 0 14 -18 25 -39z"/>
<path d="M2628 4210 c-24 -25 -29 -36 -24 -58 10 -40 42 -62 90 -62 42 0 66
-13 66 -36 0 -21 -33 -26 -47 -8 -11 15 -15 15 -30 3 -10 -7 -20 -15 -22 -16
-2 -2 4 -12 14 -23 22 -24 62 -26 93 -4 37 25 44 49 28 88 -15 37 -29 44 -101
48 -29 2 -41 8 -43 21 -4 19 30 37 36 19 5 -16 27 -15 40 1 17 20 -13 57 -44
57 -15 0 -38 -13 -56 -30z"/>
<path d="M2501 4116 c-11 -13 -7 -23 30 -68 23 -29 50 -62 58 -73 9 -10 -13 5
-49 34 -35 29 -71 56 -78 58 -7 3 -24 -5 -37 -17 l-24 -22 76 -95 c68 -84 78
-93 91 -79 14 13 9 23 -42 85 -31 39 -55 71 -52 71 3 0 33 -25 68 -55 34 -30
67 -55 72 -55 5 0 20 10 32 21 l23 22 -46 59 c-96 122 -107 132 -122 114z"/>
<path d="M2303 3905 c-50 -50 -43 -76 35 -142 85 -72 131 -70 160 7 13 36 -2
63 -67 113 -80 62 -87 63 -128 22z m97 -62 c53 -41 66 -61 51 -76 -14 -14 -41
-1 -95 46 -30 27 -47 48 -42 55 12 20 36 13 86 -25z"/>
<path d="M2193 3731 c-14 -22 -9 -28 45 -55 28 -14 31 -20 22 -36 -11 -20 -11
-20 -52 1 -40 20 -42 21 -55 3 -7 -10 -9 -22 -5 -26 4 -4 51 -31 102 -58 87
-46 96 -49 107 -33 19 25 17 27 -32 51 -40 20 -44 24 -35 42 13 25 13 25 61
-2 34 -20 41 -21 49 -8 5 8 10 20 10 25 0 8 -188 115 -202 115 -2 0 -9 -9 -15
-19z"/>
<path d="M2110 3505 c-11 -13 -43 -106 -38 -111 2 -1 52 -16 112 -34 89 -27
110 -30 117 -19 16 26 9 36 -35 49 l-43 12 4 43 c5 36 2 45 -18 59 -29 20 -82
21 -99 1z m64 -41 c9 -3 16 -15 16 -26 0 -18 -4 -20 -32 -14 -39 8 -40 9 -32
30 6 17 22 20 48 10z"/>
<path d="M2258 3268 c-2 -22 -8 -33 -18 -32 -8 0 -54 4 -102 8 l-88 7 0 -24
c0 -29 13 -32 151 -43 l87 -7 4 54 c3 49 -3 68 -24 69 -4 0 -8 -15 -10 -32z"/>
<path d="M2158 3103 c-95 -31 -108 -39 -108 -58 0 -12 6 -27 13 -32 13 -10
227 -46 234 -39 11 11 -10 45 -30 48 -16 2 -23 11 -25 30 -3 22 2 29 22 34 19
4 26 13 26 30 0 30 -2 30 -132 -13z m47 -71 c-1 -1 -22 1 -46 5 l-44 7 40 11
c34 10 41 10 46 -4 4 -9 5 -17 4 -19z"/>
<path d="M4250 3065 c-24 -29 6 -45 86 -45 118 0 112 43 -8 53 -51 5 -69 3
-78 -8z"/>
<path d="M4217 2863 c-4 -3 -7 -14 -7 -24 0 -14 17 -23 71 -39 63 -19 73 -20
87 -7 22 23 8 34 -67 57 -77 23 -75 22 -84 13z"/>
<path d="M8168 4567 c-76 -22 -123 -59 -155 -124 l-28 -58 -3 -288 c-2 -185 1
-306 8 -341 17 -83 58 -138 127 -172 52 -26 68 -29 158 -29 90 0 106 3 158 29
68 33 109 88 126 167 14 65 14 563 0 628 -27 126 -112 190 -261 197 -51 2
-101 -1 -130 -9z m156 -169 c14 -19 16 -68 16 -333 0 -349 -1 -355 -65 -355
-64 0 -65 6 -65 355 0 349 1 355 65 355 24 0 39 -7 49 -22z"/>
<path d="M9614 4566 c-72 -18 -120 -50 -152 -104 -24 -42 -27 -57 -27 -132 1
-137 43 -204 210 -334 95 -75 132 -125 141 -189 9 -63 -12 -97 -61 -97 -53 0
-65 26 -65 142 l0 98 -115 0 -115 0 0 -102 c0 -133 12 -173 64 -223 69 -67
212 -93 336 -61 80 20 127 57 160 122 21 41 25 63 25 134 -1 139 -40 204 -196
331 -116 93 -146 128 -155 176 -10 53 11 87 58 91 54 5 68 -22 68 -125 l0 -83
116 0 116 0 -4 108 c-5 126 -22 171 -80 209 -73 49 -214 66 -324 39z"/>
<path d="M19001 4569 c-67 -13 -127 -53 -158 -107 -25 -42 -28 -57 -28 -132 1
-137 43 -204 210 -334 95 -75 132 -125 141 -189 9 -63 -12 -97 -61 -97 -53 0
-65 26 -65 142 l0 98 -115 0 -115 0 0 -102 c0 -133 12 -173 64 -223 69 -67
212 -93 336 -61 80 20 127 57 160 122 21 41 25 63 25 134 -1 139 -40 204 -196
331 -116 93 -146 128 -155 176 -10 53 11 87 58 91 54 5 68 -22 68 -125 l0 -83
116 0 116 0 -4 108 c-5 126 -22 171 -80 209 -69 46 -204 64 -317 42z"/>
<path d="M19698 4566 c-76 -20 -122 -58 -155 -123 l-28 -58 -3 -288 c-4 -316
2 -368 47 -440 57 -89 209 -129 351 -93 79 20 127 57 159 121 20 39 25 67 29
157 l5 108 -117 0 -116 0 0 -98 c0 -116 -12 -142 -65 -142 -64 0 -65 6 -65
355 0 349 1 355 65 355 51 0 65 -27 65 -127 l0 -83 116 0 117 0 -5 98 c-6 114
-28 176 -80 215 -66 51 -216 71 -320 43z"/>
<path d="M21098 4567 c-76 -22 -123 -59 -155 -124 l-28 -58 -3 -288 c-2 -185
1 -306 8 -341 17 -83 58 -138 127 -172 52 -26 68 -29 158 -29 90 0 106 3 158
29 68 33 109 88 126 167 14 65 14 563 0 628 -27 126 -112 190 -261 197 -51 2
-101 -1 -130 -9z m156 -169 c14 -19 16 -68 16 -333 0 -349 -1 -355 -65 -355
-64 0 -65 6 -65 355 0 349 1 355 65 355 24 0 39 -7 49 -22z"/>
<path d="M21808 4567 c-76 -22 -123 -59 -155 -124 l-28 -58 -3 -288 c-2 -185
1 -306 8 -341 17 -83 58 -138 127 -172 52 -26 68 -29 158 -29 90 0 106 3 158
29 68 33 109 88 126 167 14 65 14 563 0 628 -27 126 -112 190 -261 197 -51 2
-101 -1 -130 -9z m156 -169 c14 -19 16 -68 16 -333 0 -349 -1 -355 -65 -355
-64 0 -65 6 -65 355 0 349 1 355 65 355 24 0 39 -7 49 -22z"/>
<path d="M5372 4073 c-45 -269 -82 -491 -82 -495 0 -5 42 -8 94 -8 l94 0 11
68 c6 37 14 90 19 117 l7 50 66 3 66 3 7 -83 c4 -46 9 -100 13 -120 l6 -38
114 0 114 0 -6 33 c-3 17 -30 223 -60 457 -30 234 -57 442 -61 463 l-6 37
-156 0 -157 0 -83 -487z m232 137 c9 -102 19 -200 22 -217 l5 -33 -46 0 -45 0
5 38 c6 46 35 363 35 387 0 10 2 16 4 14 2 -2 11 -87 20 -189z"/>
<path d="M6000 4065 l0 -495 240 0 240 0 0 75 0 75 -125 0 -125 0 0 420 0 420
-115 0 -115 0 0 -495z"/>
<path d="M6570 4065 l0 -495 115 0 115 0 0 189 0 188 88 6 c113 7 157 23 208
72 57 54 67 97 62 260 -4 154 -18 192 -82 230 -60 34 -138 45 -333 45 l-173 0
0 -495z m314 345 c31 -12 46 -60 46 -155 0 -129 -22 -165 -101 -165 l-29 0 0
165 0 165 29 0 c16 0 41 -4 55 -10z"/>
<path d="M7270 4065 l0 -495 115 0 115 0 0 235 0 235 65 0 65 0 0 -235 0 -235
115 0 115 0 0 495 0 495 -115 0 -115 0 0 -185 0 -185 -65 0 -65 0 0 185 0 185
-115 0 -115 0 0 -495z"/>
<path d="M8670 4065 l0 -495 90 0 90 0 1 413 c0 226 3 406 6 399 3 -7 42 -191
87 -410 l81 -397 148 -3 147 -3 0 496 0 495 -90 0 -90 0 -2 -357 -3 -358 -59
290 c-32 160 -65 320 -73 358 l-15 67 -159 0 -159 0 0 -495z"/>
<path d="M10212 4073 c-45 -269 -82 -491 -82 -495 0 -5 42 -8 94 -8 l94 0 11
68 c6 37 14 90 19 117 l7 50 66 3 66 3 7 -83 c4 -46 9 -100 13 -120 l6 -38
114 0 114 0 -6 33 c-3 17 -30 223 -60 457 -30 234 -57 442 -61 463 l-6 37
-156 0 -157 0 -83 -487z m232 137 c9 -102 19 -200 22 -217 l5 -33 -46 0 -45 0
5 38 c6 46 35 363 35 387 0 10 2 16 4 14 2 -2 11 -87 20 -189z"/>
<path d="M11220 4065 l0 -495 115 0 115 0 0 189 0 188 88 6 c113 7 157 23 208
72 57 54 67 97 62 260 -4 154 -18 192 -82 230 -60 34 -138 45 -333 45 l-173 0
0 -495z m314 345 c31 -12 46 -60 46 -155 0 -129 -22 -165 -101 -165 l-29 0 0
165 0 165 29 0 c16 0 41 -4 55 -10z"/>
<path d="M11920 4065 l0 -495 115 0 115 0 0 225 0 225 33 0 c23 0 41 -8 58
-26 23 -24 24 -33 30 -197 4 -112 10 -182 19 -199 l13 -28 115 0 c105 0 114 1
107 18 -19 45 -25 99 -25 237 -1 208 -16 241 -130 270 l-45 12 38 7 c52 10
112 69 127 126 7 24 10 74 8 110 -10 171 -88 210 -415 210 l-163 0 0 -495z
m328 320 c18 -22 22 -38 22 -95 0 -83 -22 -117 -82 -127 l-38 -6 0 133 0 133
38 -6 c22 -4 46 -17 60 -32z"/>
<path d="M12620 4065 l0 -495 240 0 240 0 0 75 0 75 -125 0 -125 0 0 160 0
160 120 0 120 0 0 75 0 75 -120 0 -120 0 0 110 0 110 125 0 125 0 0 75 0 75
-240 0 -240 0 0 -495z"/>
<path d="M13610 4065 l0 -495 115 0 115 0 0 189 0 188 88 6 c113 7 157 23 208
72 57 54 67 97 62 260 -4 154 -18 192 -82 230 -60 34 -138 45 -333 45 l-173 0
0 -495z m314 345 c31 -12 46 -60 46 -155 0 -129 -22 -165 -101 -165 l-29 0 0
165 0 165 29 0 c16 0 41 -4 55 -10z"/>
<path d="M14310 4065 l0 -495 115 0 115 0 0 225 0 225 33 0 c23 0 41 -8 58
-26 23 -24 24 -33 30 -197 4 -112 10 -182 19 -199 l13 -28 115 0 c105 0 114 1
107 18 -19 45 -25 99 -25 237 -1 208 -16 241 -130 270 l-45 12 38 7 c52 10
112 69 127 126 7 24 10 74 8 110 -10 171 -88 210 -415 210 l-163 0 0 -495z
m328 320 c18 -22 22 -38 22 -95 0 -83 -22 -117 -82 -127 l-38 -6 0 133 0 133
38 -6 c22 -4 46 -17 60 -32z"/>
<path d="M15020 4065 l0 -495 115 0 115 0 0 495 0 495 -115 0 -115 0 0 -495z"/>
<path d="M15360 4065 l0 -495 90 0 90 0 0 422 c0 232 2 419 5 416 5 -5 135
-806 135 -830 0 -5 46 -7 102 -6 l102 3 67 420 67 420 1 -422 1 -423 105 0
105 0 0 495 0 495 -165 0 c-163 0 -165 0 -170 -22 -2 -13 -23 -158 -45 -323
-22 -165 -43 -313 -47 -330 -6 -28 -17 40 -94 593 l-11 82 -169 0 -169 0 0
-495z"/>
<path d="M16412 4073 c-45 -269 -82 -491 -82 -495 0 -5 42 -8 94 -8 l94 0 11
68 c6 37 14 90 19 117 l7 50 66 3 66 3 7 -83 c4 -46 9 -100 13 -120 l6 -38
114 0 114 0 -6 33 c-3 17 -30 223 -60 457 -30 234 -57 442 -61 463 l-6 37
-156 0 -157 0 -83 -487z m232 137 c9 -102 19 -200 22 -217 l5 -33 -46 0 -45 0
5 38 c6 46 35 363 35 387 0 10 2 16 4 14 2 -2 11 -87 20 -189z"/>
<path d="M17050 4065 l0 -495 115 0 115 0 0 225 0 225 33 0 c23 0 41 -8 58
-26 23 -24 24 -33 30 -197 4 -112 10 -182 19 -199 l13 -28 115 0 c105 0 114 1
107 18 -19 45 -25 99 -25 237 -1 208 -16 241 -130 270 l-45 12 38 7 c52 10
112 69 127 126 7 24 10 74 8 110 -10 171 -88 210 -415 210 l-163 0 0 -495z
m328 320 c18 -22 22 -38 22 -95 0 -83 -22 -117 -82 -127 l-38 -6 0 133 0 133
38 -6 c22 -4 46 -17 60 -32z"/>
<path d="M17703 4553 c3 -5 48 -146 101 -315 l96 -306 0 -181 0 -181 115 0
115 0 0 185 0 186 95 301 c52 165 95 305 95 309 0 5 -49 9 -109 9 l-109 0 -15
-67 c-8 -38 -28 -126 -43 -197 -18 -84 -30 -122 -35 -110 -3 11 -24 99 -44
197 l-38 177 -114 0 c-63 0 -112 -3 -110 -7z"/>
<path d="M20210 4065 l0 -495 115 0 115 0 0 235 0 235 65 0 65 0 0 -235 0
-235 115 0 115 0 0 495 0 495 -115 0 -115 0 0 -185 0 -185 -65 0 -65 0 0 185
0 185 -115 0 -115 0 0 -495z"/>
<path d="M22320 4065 l0 -495 240 0 240 0 0 75 0 75 -125 0 -125 0 0 420 0
420 -115 0 -115 0 0 -495z"/>
<path d="M13180 4010 l0 -80 155 0 155 0 0 80 0 80 -155 0 -155 0 0 -80z"/>
<path d="M5444 3177 c-3 -8 36 -132 87 -276 l92 -261 42 0 42 0 93 266 c96
274 99 293 48 281 -20 -5 -32 -34 -97 -229 -40 -123 -76 -226 -80 -230 -3 -4
-42 97 -86 225 -77 223 -81 232 -108 235 -17 2 -29 -2 -33 -11z"/>
<path d="M6042 3182 c-9 -7 -12 -68 -10 -273 l3 -264 33 -3 32 -3 -2 273 c-3
264 -4 273 -23 276 -11 1 -26 -2 -33 -6z"/>
<path d="M6373 3184 c-10 -4 -13 -61 -13 -234 0 -259 1 -257 -75 -247 -47 7
-60 -1 -50 -32 17 -55 140 -46 176 12 18 30 19 49 17 267 -3 227 -4 235 -23
237 -11 1 -26 -1 -32 -3z"/>
<path d="M6754 3182 c-11 -7 -194 -508 -194 -530 0 -9 11 -12 32 -10 29 3 33
8 56 71 l25 68 116 -3 116 -3 24 -67 c23 -66 24 -68 57 -68 19 0 34 5 34 11 0
18 -180 512 -192 526 -11 14 -56 17 -74 5z m81 -206 c25 -70 45 -129 45 -131
0 -3 -43 -5 -96 -5 -73 0 -94 3 -91 13 3 6 24 67 47 135 23 68 44 121 46 119
3 -2 25 -61 49 -131z"/>
<path d="M7054 3176 c-3 -7 28 -78 68 -157 l73 -144 5 -115 5 -115 35 0 35 0
5 115 5 115 75 147 c78 154 82 178 27 164 -19 -4 -36 -30 -80 -125 -32 -66
-57 -126 -57 -132 0 -24 -16 5 -70 121 -29 63 -60 121 -68 128 -21 16 -51 15
-58 -2z"/>
<path d="M8324 3182 c-11 -7 -194 -508 -194 -530 0 -9 11 -12 32 -10 29 3 33
8 56 71 l25 68 116 -3 116 -3 24 -67 c23 -66 24 -68 57 -68 19 0 34 5 34 11 0
18 -180 512 -192 526 -11 14 -56 17 -74 5z m81 -206 c25 -70 45 -129 45 -131
0 -3 -43 -5 -96 -5 -73 0 -94 3 -91 13 3 6 24 67 47 135 23 68 44 121 46 119
3 -2 25 -61 49 -131z"/>
<path d="M8890 3181 c-129 -42 -198 -154 -188 -301 13 -171 146 -271 319 -240
35 7 76 18 91 26 l28 15 0 124 c0 146 7 138 -125 133 -79 -3 -80 -3 -83 -30
l-3 -28 70 0 71 0 0 -80 c0 -72 -2 -80 -22 -91 -13 -7 -48 -12 -79 -12 -122 0
-194 81 -193 218 0 129 65 206 179 213 52 4 73 0 120 -22 32 -14 59 -26 62
-26 2 0 3 14 1 32 -2 25 -11 35 -42 51 -42 22 -162 33 -206 18z"/>
<path d="M9464 3182 c-11 -7 -194 -508 -194 -530 0 -9 11 -12 32 -10 29 3 33
8 56 71 l25 68 116 -3 116 -3 24 -67 c23 -66 24 -68 57 -68 19 0 34 5 34 11 0
18 -180 512 -192 526 -11 14 -56 17 -74 5z m81 -206 c25 -70 45 -129 45 -131
0 -3 -43 -5 -96 -5 -73 0 -94 3 -91 13 3 6 24 67 47 135 23 68 44 121 46 119
3 -2 25 -61 49 -131z"/>
<path d="M10922 3182 c-9 -7 -12 -68 -10 -273 l3 -264 32 -3 32 -3 3 143 3
143 105 -142 c97 -132 107 -143 137 -143 17 0 34 3 37 8 2 4 -42 70 -99 146
l-104 138 101 120 c85 103 98 122 83 130 -34 20 -62 -2 -154 -119 -52 -65 -97
-119 -102 -121 -5 -2 -10 52 -11 120 -3 114 -4 123 -23 126 -11 1 -26 -2 -33
-6z"/>
<path d="M11554 3182 c-11 -7 -194 -508 -194 -530 0 -9 11 -12 32 -10 29 3 33
8 56 71 l25 68 116 -3 116 -3 24 -67 c23 -66 24 -68 57 -68 19 0 34 5 34 11 0
18 -180 512 -192 526 -11 14 -56 17 -74 5z m81 -206 c25 -70 45 -129 45 -131
0 -3 -43 -5 -96 -5 -73 0 -94 3 -91 13 3 6 24 67 47 135 23 68 44 121 46 119
3 -2 25 -61 49 -131z"/>
<path d="M11973 3184 c-18 -8 -19 -514 -1 -532 8 -8 54 -12 140 -12 l128 0 0
30 0 30 -105 0 -105 0 -2 243 c-3 234 -4 242 -23 244 -11 1 -26 -1 -32 -3z"/>
<path d="M12814 3177 c-3 -8 28 -131 69 -273 l74 -259 45 -3 45 -3 54 210 c30
116 57 207 61 203 3 -4 23 -68 43 -142 20 -74 45 -165 56 -202 l20 -68 38 0
c21 0 43 6 48 13 15 19 154 517 148 528 -7 11 -35 12 -52 1 -7 -4 -38 -105
-69 -223 -31 -117 -59 -220 -63 -226 -5 -10 -39 103 -123 414 -15 56 -81 57
-92 0 -12 -62 -109 -427 -112 -424 -2 2 -30 103 -63 225 -33 122 -63 226 -66
232 -9 15 -55 12 -61 -3z"/>
<path d="M13774 3182 c-11 -7 -194 -508 -194 -530 0 -9 11 -12 32 -10 29 3 33
8 56 71 l25 68 116 -3 116 -3 24 -67 c23 -66 24 -68 57 -68 19 0 34 5 34 11 0
18 -180 512 -192 526 -11 14 -56 17 -74 5z m81 -206 c25 -70 45 -129 45 -131
0 -3 -43 -5 -96 -5 -73 0 -94 3 -91 13 3 6 24 67 47 135 23 68 44 121 46 119
3 -2 25 -61 49 -131z"/>
<path d="M14772 3182 c-9 -7 -12 -68 -10 -273 l3 -264 33 -3 32 -3 -2 273 c-3
264 -4 273 -23 276 -11 1 -26 -2 -33 -6z"/>
<path d="M16052 3182 c-9 -7 -12 -68 -10 -273 l3 -264 33 -3 32 -3 -2 273 c-3
264 -4 273 -23 276 -11 1 -26 -2 -33 -6z"/>
<path d="M18132 3182 c-9 -7 -12 -68 -10 -273 l3 -264 33 -3 32 -3 -2 273 c-3
264 -4 273 -23 276 -11 1 -26 -2 -33 -6z"/>
<path d="M19412 3181 c-11 -7 -13 -50 -10 -212 4 -223 8 -242 67 -292 67 -56
205 -56 273 1 60 51 68 84 68 304 0 183 -1 197 -19 203 -10 3 -26 3 -35 -1
-14 -5 -16 -30 -16 -203 0 -179 -2 -199 -20 -229 -50 -81 -189 -78 -231 6 -9
19 -15 87 -19 227 -5 190 -6 200 -25 203 -11 1 -26 -2 -33 -7z"/>
<path d="M21980 3150 c-85 -55 -108 -84 -76 -96 7 -3 36 9 63 25 28 17 53 31
57 31 3 0 6 -92 6 -205 l0 -204 -62 -3 c-61 -3 -63 -4 -66 -31 l-3 -28 153 3
153 3 0 25 c0 23 -4 25 -52 28 l-53 3 -2 242 -3 242 -25 3 c-16 2 -49 -12 -90
-38z"/>
<path d="M7575 3158 c-3 -13 -4 -133 -3 -268 l3 -245 33 -3 32 -3 0 233 0 233
70 -128 c188 -345 189 -346 247 -335 17 3 18 21 21 271 l2 267 -30 0 -30 0 -2
-219 -3 -220 -99 182 c-146 269 -138 257 -191 257 -38 0 -45 -3 -50 -22z"/>
<path d="M9875 3167 c-3 -7 -4 -127 -3 -267 l3 -255 33 -3 32 -3 0 120 0 121
51 0 c66 0 88 -23 138 -145 34 -85 38 -90 69 -93 24 -2 32 1 32 13 0 32 -76
199 -102 226 -26 26 -27 28 -9 34 11 3 34 22 50 41 56 64 37 165 -39 204 -32
16 -59 20 -145 20 -76 0 -107 -4 -110 -13z m195 -50 c43 -15 65 -55 55 -103
-9 -49 -52 -74 -127 -74 l-58 0 0 88 c0 49 3 92 7 95 10 11 85 7 123 -6z"/>
<path d="M12377 3173 c-13 -12 -8 -508 5 -521 8 -8 56 -12 150 -12 l138 0 0
30 0 30 -115 0 -116 0 3 98 3 97 98 3 c95 3 97 3 97 27 0 24 -2 24 -97 27
l-98 3 0 85 0 85 113 3 c112 3 112 3 112 27 l0 25 -143 0 c-79 0 -147 -3 -150
-7z"/>
<path d="M14187 3173 c-4 -3 -7 -120 -7 -258 0 -213 2 -255 15 -265 24 -20
209 -8 265 17 116 51 169 202 124 354 -19 65 -80 129 -141 147 -42 13 -245 17
-256 5z m241 -67 c47 -24 80 -71 92 -131 21 -99 -6 -196 -67 -242 -30 -23 -47
-27 -119 -31 l-84 -5 0 210 c0 115 3 213 8 217 11 13 137 -1 170 -18z"/>
<path d="M15545 3158 c-3 -13 -4 -133 -3 -268 l3 -245 33 -3 32 -3 0 105 0
106 63 0 c138 1 225 92 198 210 -20 89 -77 120 -220 120 -96 0 -101 -1 -106
-22z m174 -34 c52 -11 81 -49 81 -106 0 -41 -5 -54 -29 -79 -27 -26 -36 -29
-95 -29 l-66 0 0 103 c0 57 3 107 7 110 8 9 61 9 102 1z"/>
<path d="M16315 3158 c-3 -13 -4 -133 -3 -268 l3 -245 32 -3 33 -3 2 243 3
243 94 -242 c93 -239 95 -243 123 -243 34 0 31 -5 148 285 40 99 77 184 81
190 5 5 9 -97 9 -233 l0 -242 30 0 30 0 0 270 0 270 -49 0 c-28 0 -53 -6 -60
-13 -6 -8 -47 -101 -91 -208 -45 -107 -84 -197 -89 -202 -4 -4 -45 87 -91 202
-46 116 -90 213 -97 216 -8 3 -34 5 -59 5 -37 0 -44 -3 -49 -22z"/>
<path d="M17105 3158 c-3 -13 -4 -133 -3 -268 l3 -245 33 -3 32 -3 0 105 0
106 63 0 c138 1 225 92 198 210 -20 89 -77 120 -220 120 -96 0 -101 -1 -106
-22z m174 -34 c52 -11 81 -49 81 -106 0 -41 -5 -54 -29 -79 -27 -26 -36 -29
-95 -29 l-66 0 0 103 c0 57 3 107 7 110 8 9 61 9 102 1z"/>
<path d="M17595 3167 c-3 -7 -4 -127 -3 -267 l3 -255 33 -3 32 -3 0 120 0 121
51 0 c66 0 88 -23 138 -145 34 -85 38 -90 69 -93 24 -2 32 1 32 13 0 32 -76
199 -102 226 -26 26 -27 28 -9 34 11 3 34 22 50 41 56 64 37 165 -39 204 -32
16 -59 20 -145 20 -76 0 -107 -4 -110 -13z m195 -50 c43 -15 65 -55 55 -103
-9 -49 -52 -74 -127 -74 l-58 0 0 88 c0 49 3 92 7 95 10 11 85 7 123 -6z"/>
<path d="M18905 3158 c-3 -13 -4 -133 -3 -268 l3 -245 33 -3 32 -3 0 105 0
106 63 0 c138 1 225 92 198 210 -20 89 -77 120 -220 120 -96 0 -101 -1 -106
-22z m174 -34 c52 -11 81 -49 81 -106 0 -41 -5 -54 -29 -79 -27 -26 -36 -29
-95 -29 l-66 0 0 103 c0 57 3 107 7 110 8 9 61 9 102 1z"/>
<path d="M20005 3158 c-3 -13 -4 -133 -3 -268 l3 -245 33 -3 32 -3 0 233 0
233 70 -128 c188 -345 189 -346 247 -335 17 3 18 21 21 271 l2 267 -30 0 -30
0 -2 -219 -3 -220 -99 182 c-146 269 -138 257 -191 257 -38 0 -45 -3 -50 -22z"/>
<path d="M20617 3173 c-13 -12 -8 -508 5 -521 8 -8 56 -12 150 -12 l138 0 0
30 0 30 -115 0 -116 0 3 98 3 97 98 3 c95 3 97 3 97 27 0 24 -2 24 -97 27
l-98 3 0 85 0 85 113 3 c112 3 112 3 112 27 l0 25 -143 0 c-79 0 -147 -3 -150
-7z"/>
<path d="M22355 3170 c-3 -6 -3 -19 0 -30 6 -18 17 -20 139 -22 l134 -3 -104
-234 c-57 -128 -104 -236 -104 -238 0 -2 17 -3 37 -1 l38 3 103 235 c56 129
103 249 105 265 l2 30 -172 3 c-110 1 -174 -1 -178 -8z"/>
<path d="M21292 2853 l3 -28 95 0 95 0 3 28 3 27 -101 0 -101 0 3 -27z"/>
<path d="M10400 2690 c0 -25 -11 -63 -30 -100 -16 -33 -30 -62 -30 -65 0 -3
11 -5 24 -5 36 0 106 111 106 168 0 41 -1 42 -35 42 -34 0 -35 -1 -35 -40z"/>
<path d="M15040 2690 c0 -25 -11 -63 -30 -100 -16 -33 -30 -62 -30 -65 0 -3
11 -5 24 -5 36 0 106 111 106 168 0 41 -1 42 -35 42 -34 0 -35 -1 -35 -40z"/>
<path d="M18390 2690 c0 -25 -11 -63 -30 -100 -16 -33 -30 -62 -30 -65 0 -3
11 -5 24 -5 36 0 106 111 106 168 0 41 -1 42 -35 42 -34 0 -35 -1 -35 -40z"/>
<path d="M5600 1475 l0 -725 8575 0 8575 0 0 725 0 725 -8575 0 -8575 0 0
-725z m3768 348 c42 -30 62 -80 62 -150 l0 -63 -75 0 -74 0 -3 61 c-3 69 -23
94 -52 70 -24 -20 -24 -412 0 -432 30 -25 49 1 54 77 l5 69 73 3 72 3 0 -68
c-1 -141 -62 -199 -201 -191 -73 4 -104 20 -143 72 -19 25 -21 44 -24 224 -2
108 -1 212 3 230 8 42 58 99 99 112 52 16 173 6 204 -17z m1450 0 c14 -11 35
-32 46 -47 20 -26 21 -41 21 -251 0 -246 -1 -248 -69 -299 -40 -30 -182 -30
-222 0 -67 49 -69 57 -72 272 -2 108 -1 212 3 230 8 42 58 99 99 112 50 15
164 6 194 -17z m1520 0 c14 -11 35 -32 46 -47 20 -26 21 -41 21 -251 0 -246
-1 -248 -69 -299 -40 -30 -182 -30 -222 0 -67 49 -69 57 -72 272 -2 108 -1
212 3 230 8 42 58 99 99 112 50 15 164 6 194 -17z m2869 2 c47 -28 63 -63 63
-144 l0 -71 -75 0 -75 0 0 59 c0 41 -5 62 -16 72 -19 15 -47 2 -52 -25 -8 -38
11 -67 87 -129 95 -80 121 -119 128 -196 11 -121 -53 -190 -177 -191 -76 0
-121 15 -156 51 -27 28 -29 37 -32 120 l-4 89 76 0 76 0 0 -74 c0 -66 2 -75
20 -81 30 -10 50 12 50 54 0 33 -9 45 -95 126 -101 96 -125 136 -125 207 0 63
27 109 80 136 38 20 56 23 120 19 49 -2 87 -10 107 -22z m450 0 c47 -28 63
-63 63 -144 l0 -71 -75 0 -75 0 0 59 c0 41 -5 62 -16 72 -19 15 -47 2 -52 -25
-8 -38 11 -67 87 -129 95 -80 121 -119 128 -196 11 -121 -53 -190 -177 -191
-76 0 -121 15 -156 51 -27 28 -29 37 -32 120 l-4 89 76 0 76 0 0 -74 c0 -66 2
-75 20 -81 30 -10 50 12 50 54 0 33 -9 45 -95 126 -101 96 -125 136 -125 207
0 63 27 109 80 136 38 20 56 23 120 19 49 -2 87 -10 107 -22z m651 -2 c14 -11
35 -32 46 -47 20 -26 21 -41 21 -251 0 -246 -1 -248 -69 -299 -40 -30 -182
-30 -222 0 -67 49 -69 57 -72 272 -2 108 -1 212 3 230 8 42 58 99 99 112 50
15 164 6 194 -17z m1159 1 c53 -40 68 -71 68 -137 -1 -78 -22 -119 -107 -212
-72 -79 -102 -120 -112 -152 -7 -23 -7 -23 108 -23 l116 0 0 -45 0 -45 -191 0
-192 0 5 74 c6 91 29 142 108 232 90 103 113 140 114 180 1 43 -23 66 -51 48
-13 -8 -19 -27 -21 -73 l-3 -61 -74 0 -75 0 0 58 c1 132 62 186 203 179 58 -3
85 -9 104 -23z m431 6 c33 -15 47 -29 62 -62 17 -38 20 -66 20 -243 0 -241 -8
-268 -85 -305 -39 -19 -58 -22 -114 -18 -84 6 -125 29 -151 83 -18 37 -20 62
-20 236 0 182 1 198 23 239 41 83 164 116 265 70z m459 -6 c53 -40 68 -71 68
-137 -1 -78 -22 -119 -107 -212 -72 -79 -102 -120 -112 -152 -7 -23 -7 -23
108 -23 l116 0 0 -45 0 -45 -191 0 -192 0 5 74 c6 91 29 142 108 232 90 103
113 140 114 180 1 43 -23 66 -51 48 -13 -8 -19 -27 -21 -73 l-3 -61 -74 0 -75
0 0 58 c1 132 62 186 203 179 58 -3 85 -9 104 -23z m441 2 c50 -26 72 -70 72
-144 0 -76 -19 -118 -63 -137 -20 -9 -25 -14 -14 -15 10 0 32 -13 48 -29 27
-28 29 -34 29 -113 0 -141 -43 -183 -190 -183 -138 0 -180 40 -180 174 l0 71
75 0 74 0 3 -66 c2 -49 7 -70 20 -77 32 -20 48 8 48 84 0 78 -10 89 -79 89
l-41 0 0 50 0 50 43 0 c62 0 79 21 75 95 -2 41 -8 61 -20 68 -30 19 -48 -8
-48 -74 l0 -59 -75 0 -75 0 0 65 c0 95 23 134 97 161 49 18 157 13 201 -10z
m949 -2 c53 -40 68 -71 68 -137 -1 -78 -22 -119 -107 -212 -72 -79 -102 -120
-112 -152 -7 -23 -7 -23 108 -23 l116 0 0 -45 0 -45 -191 0 -192 0 5 74 c6 91
29 142 108 232 90 103 113 140 114 180 1 43 -23 66 -51 48 -13 -8 -19 -27 -21
-73 l-3 -61 -74 0 -75 0 0 58 c1 132 62 186 203 179 58 -3 85 -9 104 -23z
m441 6 c33 -15 47 -29 62 -62 17 -38 20 -66 20 -243 0 -241 -8 -268 -85 -305
-39 -19 -58 -22 -114 -18 -84 6 -125 29 -151 83 -18 37 -20 62 -20 236 0 182
1 198 23 239 41 83 164 116 265 70z m449 -6 c53 -40 68 -71 68 -137 -1 -78
-22 -119 -107 -212 -72 -79 -102 -120 -112 -152 -7 -23 -7 -23 108 -23 l116 0
0 -45 0 -45 -191 0 -192 0 5 74 c6 91 29 142 108 232 90 103 113 140 114 180
1 43 -23 66 -51 48 -13 -8 -19 -27 -21 -73 l-3 -61 -74 0 -75 0 0 58 c1 132
62 186 203 179 58 -3 85 -9 104 -23z m-13187 14 c0 -2 18 -140 40 -308 22
-168 40 -308 40 -312 0 -5 -33 -8 -74 -8 l-74 0 -7 75 -7 75 -39 0 c-42 0 -44
-3 -55 -92 l-6 -58 -65 0 -65 0 5 28 c3 15 27 156 54 315 l48 287 102 0 c57 0
103 -1 103 -2z m431 -8 c19 -6 46 -22 60 -36 23 -24 24 -32 24 -144 0 -112 -1
-120 -25 -145 -34 -37 -79 -55 -140 -55 l-50 0 0 -120 0 -120 -75 0 -75 0 0
315 0 315 123 0 c67 0 138 -5 158 -10z m440 0 c19 -6 46 -22 60 -36 23 -24 24
-32 24 -144 0 -112 -1 -120 -25 -145 -34 -37 -79 -55 -140 -55 l-50 0 0 -120
0 -120 -75 0 -75 0 0 315 0 315 123 0 c67 0 138 -5 158 -10z m319 -255 l0
-264 78 -3 77 -3 3 -47 3 -48 -155 0 -156 0 0 315 0 315 75 0 75 0 0 -265z
m360 -50 l0 -315 -75 0 -75 0 0 315 0 315 75 0 75 0 0 -315z m810 313 c0 -2
18 -140 40 -308 22 -168 40 -308 40 -312 0 -5 -33 -8 -74 -8 l-74 0 -7 75 -7
75 -39 0 c-42 0 -44 -3 -55 -92 l-6 -58 -65 0 -65 0 5 28 c3 15 27 156 54 315
l48 287 102 0 c57 0 103 -1 103 -2z m420 -48 l0 -50 -50 0 -50 0 0 -265 0
-265 -75 0 -75 0 0 265 0 265 -50 0 -50 0 0 50 0 50 175 0 175 0 0 -50z m220
-265 l0 -315 -75 0 -75 0 0 315 0 315 75 0 75 0 0 -315z m714 298 c2 -10 22
-103 43 -207 l38 -189 3 206 2 207 60 0 60 0 0 -315 0 -315 -94 0 c-82 0 -95
2 -100 18 -2 9 -26 123 -53 252 l-48 235 -3 -252 -2 -253 -60 0 -60 0 0 315 0
315 104 0 c91 0 105 -2 110 -17z m824 -30 l-3 -48 -77 -3 -78 -3 0 -64 0 -65
75 0 75 0 0 -50 0 -50 -75 0 -75 0 0 -150 0 -150 -75 0 -75 0 0 315 0 315 156
0 155 0 -3 -47z m810 24 c81 -44 82 -197 2 -245 l-31 -19 32 -13 c45 -19 59
-61 59 -179 0 -55 4 -111 10 -125 l10 -26 -75 0 c-93 0 -95 3 -95 142 0 111
-13 148 -51 148 -18 0 -19 -8 -19 -145 l0 -145 -75 0 -75 0 0 316 0 316 138
-4 c108 -3 144 -7 170 -21z m672 21 c0 -2 18 -140 40 -308 22 -168 40 -308 40
-312 0 -5 -33 -8 -74 -8 l-74 0 -7 75 -7 75 -39 0 c-42 0 -44 -3 -55 -92 l-6
-58 -65 0 -65 0 5 28 c3 15 27 156 54 315 l48 287 102 0 c57 0 103 -1 103 -2z
m457 -24 c53 -39 58 -62 61 -277 3 -185 2 -200 -18 -241 -32 -66 -67 -80 -222
-84 l-128 -4 0 317 0 317 139 -4 c123 -3 143 -6 168 -24z m372 -136 c12 -90
24 -187 28 -216 3 -29 7 -51 9 -49 2 2 15 88 29 193 14 104 28 199 31 212 4
21 9 22 109 22 l105 0 0 -315 0 -315 -65 0 -65 0 -1 258 c-1 141 -4 248 -6
237 -3 -11 -22 -126 -42 -255 l-37 -235 -66 -3 -65 -3 -33 208 c-18 114 -36
226 -40 248 -5 23 -8 -63 -9 -207 l-1 -248 -60 0 -60 0 0 315 0 315 108 0 109
0 22 -162z m541 -153 l0 -315 -75 0 -75 0 0 315 0 315 75 0 75 0 0 -315z
m1100 0 l0 -315 -75 0 -75 0 0 315 0 315 75 0 75 0 0 -315z m714 298 c2 -10
22 -103 43 -207 l38 -189 3 206 2 207 60 0 60 0 0 -315 0 -315 -94 0 c-82 0
-95 2 -100 18 -2 9 -26 123 -53 252 l-48 235 -3 -252 -2 -253 -60 0 -60 0 0
315 0 315 104 0 c91 0 105 -2 110 -17z m4466 -178 l0 -195 25 0 c23 0 25 -3
25 -50 0 -47 -2 -50 -25 -50 -24 0 -25 -2 -25 -70 l0 -70 -70 0 -70 0 0 70 0
70 -105 0 -105 0 0 51 c0 41 13 81 71 212 39 89 78 177 85 195 l14 32 90 0 90
0 0 -195z m-1740 -150 l0 -55 -100 0 -100 0 0 48 c0 27 3 52 7 55 3 4 48 7
100 7 l93 0 0 -55z"/>
<path d="M10682 1738 c-9 -9 -12 -70 -12 -214 0 -172 2 -203 16 -215 11 -9 20
-10 32 -2 15 9 17 36 20 213 2 202 -2 230 -32 230 -7 0 -17 -5 -24 -12z"/>
<path d="M12202 1738 c-9 -9 -12 -70 -12 -214 0 -172 2 -203 16 -215 11 -9 20
-10 32 -2 15 9 17 36 20 213 2 202 -2 230 -32 230 -7 0 -17 -5 -24 -12z"/>
<path d="M16172 1738 c-9 -9 -12 -70 -12 -214 0 -172 2 -203 16 -215 11 -9 20
-10 32 -2 15 9 17 36 20 213 2 202 -2 230 -32 230 -7 0 -17 -5 -24 -12z"/>
<path d="M17772 1738 c-9 -9 -12 -70 -12 -214 0 -172 2 -203 16 -215 11 -9 20
-10 32 -2 15 9 17 36 20 213 2 202 -2 230 -32 230 -7 0 -17 -5 -24 -12z"/>
<path d="M20062 1738 c-9 -9 -12 -70 -12 -214 0 -172 2 -203 16 -215 11 -9 20
-10 32 -2 15 9 17 36 20 213 2 202 -2 230 -32 230 -7 0 -17 -5 -24 -12z"/>
<path d="M7320 1653 c0 -16 -3 -65 -7 -110 -6 -82 -6 -83 17 -83 23 0 23 1 17
83 -4 45 -7 94 -7 110 0 15 -4 27 -10 27 -5 0 -10 -12 -10 -27z"/>
<path d="M7750 1645 c0 -97 1 -105 19 -105 38 0 51 27 51 105 0 78 -13 105
-51 105 -18 0 -19 -8 -19 -105z"/>
<path d="M8190 1645 c0 -97 1 -105 19 -105 38 0 51 27 51 105 0 78 -13 105
-51 105 -18 0 -19 -8 -19 -105z"/>
<path d="M9680 1653 c0 -16 -3 -65 -7 -110 -6 -82 -6 -83 17 -83 23 0 23 1 17
83 -4 45 -7 94 -7 110 0 15 -4 27 -10 27 -5 0 -10 -12 -10 -27z"/>
<path d="M12640 1670 c0 -87 10 -100 50 -60 40 40 15 140 -35 140 -12 0 -15
-16 -15 -80z"/>
<path d="M13340 1653 c0 -16 -3 -65 -7 -110 -6 -82 -6 -83 17 -83 23 0 23 1
17 83 -4 45 -7 94 -7 110 0 15 -4 27 -10 27 -5 0 -10 -12 -10 -27z"/>
<path d="M13770 1525 c0 -240 1 -242 48 -209 21 15 22 20 22 209 0 206 -4 225
-51 225 -18 0 -19 -9 -19 -225z"/>
<path d="M20924 1573 l-51 -118 49 -3 c28 -2 52 -1 54 1 3 2 3 57 2 122 l-3
117 -51 -119z"/>
<path d="M2018 1967 c-106 -30 -163 -106 -184 -244 l-7 -48 41 37 c54 49 105
74 177 87 125 23 198 10 450 -84 225 -83 344 -114 460 -120 l90 -5 -78 15
c-169 32 -305 91 -542 234 -202 122 -307 155 -407 128z"/>
<path d="M4351 1969 c-62 -12 -151 -56 -307 -150 -206 -123 -347 -184 -506
-214 l-73 -15 86 5 c115 6 235 38 468 125 228 84 314 100 422 82 82 -14 134
-39 191 -90 l41 -37 -6 52 c-20 176 -151 276 -316 242z"/>
<path d="M2030 1669 c-97 -16 -176 -48 -225 -91 -98 -86 -115 -173 -87 -455
22 -216 32 -248 101 -300 47 -36 113 -59 201 -69 l60 -7 0 177 0 176 -41 0
c-23 0 -56 7 -73 15 -45 21 -100 80 -93 98 3 8 32 25 64 38 49 19 77 22 183
22 139 0 208 -11 540 -83 361 -78 398 -84 580 -84 186 -1 205 2 588 85 406 89
560 106 682 78 47 -11 130 -48 130 -59 0 -3 -17 -23 -37 -44 -44 -45 -88 -66
-138 -66 l-35 0 0 -176 0 -176 63 7 c120 14 216 66 254 139 21 40 52 323 48
441 -4 111 -24 172 -77 226 -105 108 -356 146 -628 94 -47 -9 -193 -43 -325
-75 -476 -117 -560 -116 -1070 10 -341 85 -507 105 -665 79z m349 -34 c52 -9
193 -40 313 -71 283 -71 422 -94 560 -94 145 0 206 10 518 85 332 81 415 95
552 95 227 0 362 -53 421 -165 24 -47 33 -167 22 -302 l-7 -88 -18 35 c-65
126 -217 190 -414 176 -117 -9 -213 -26 -506 -91 -332 -73 -421 -87 -580 -86
-153 0 -245 14 -596 90 -341 73 -357 76 -514 76 -114 0 -156 -4 -197 -18 -62
-22 -136 -84 -166 -141 l-22 -41 -6 65 c-11 105 -10 215 2 270 22 103 109 174
249 204 87 19 274 19 389 1z m-505 -479 c27 -37 116 -86 153 -86 23 0 23 0 23
-146 l0 -147 -54 6 c-97 10 -187 63 -223 130 -18 35 -19 128 -2 171 16 40 59
106 69 106 4 0 19 -15 34 -34z m2826 -12 c93 -148 44 -294 -117 -344 -36 -11
-80 -20 -99 -20 l-34 0 0 143 0 142 51 12 c54 13 106 47 136 88 10 13 21 25
26 25 4 0 21 -21 37 -46z"/>
<path d="M4266 1541 c-3 -5 -12 -35 -19 -68 l-14 -58 -21 49 c-12 27 -22 52
-22 57 0 5 -9 9 -20 9 -11 0 -20 -3 -20 -6 0 -3 15 -39 34 -80 48 -103 66
-102 92 9 10 45 18 84 17 87 -3 10 -21 11 -27 1z"/>
<path d="M4332 1463 l3 -88 58 -3 c45 -2 57 0 57 12 0 10 -13 16 -42 18 -36 2
-44 7 -46 26 -3 20 1 22 42 22 34 0 46 4 46 15 0 11 -11 15 -40 15 -31 0 -40
4 -40 18 0 13 9 17 42 17 22 0 43 5 45 11 5 14 -29 24 -85 24 l-43 0 3 -87z"/>
<path d="M2035 1520 c-16 -18 -17 -21 -1 -44 9 -14 31 -29 49 -34 17 -4 32
-15 32 -23 0 -20 -39 -23 -55 -4 -15 19 -40 20 -40 2 0 -24 35 -47 71 -47 42
0 59 15 59 51 0 30 -12 42 -54 56 -39 12 -46 33 -12 33 14 0 26 -4 26 -10 0
-5 9 -10 20 -10 24 0 26 13 4 34 -22 23 -77 20 -99 -4z"/>
<path d="M2186 1459 c-4 -44 -6 -83 -4 -85 2 -2 30 -6 61 -10 49 -6 57 -4 57
10 0 12 -10 16 -40 16 -37 0 -40 2 -40 26 0 25 2 26 41 21 34 -4 40 -3 37 11
-2 12 -15 18 -41 20 -30 3 -37 7 -35 20 3 13 12 16 46 14 32 -3 42 0 42 11 0
13 -56 27 -105 27 -8 0 -15 -27 -19 -81z"/>
<path d="M2341 1445 c-14 -96 -14 -95 4 -95 9 0 18 12 22 30 8 42 30 37 49
-10 11 -27 22 -40 35 -40 23 0 23 3 3 42 -15 28 -14 31 5 49 44 41 16 81 -65
94 l-41 6 -12 -76z m97 13 c3 -14 -3 -18 -27 -18 -25 0 -31 4 -31 21 0 16 5
20 27 17 17 -2 29 -10 31 -20z"/>
<path d="M4001 1484 c-24 -30 -26 -48 -10 -93 16 -45 63 -64 114 -45 42 16 50
104 14 143 -30 32 -91 29 -118 -5z m102 -37 c13 -40 -5 -77 -37 -77 -28 0 -46
25 -46 62 0 54 66 66 83 15z"/>
<path d="M2501 1483 c0 -10 6 -52 12 -93 16 -100 34 -101 88 -7 43 76 46 87
24 87 -8 0 -27 -24 -42 -52 -25 -50 -27 -52 -34 -28 -4 14 -7 39 -8 57 -1 21
-8 36 -21 43 -17 9 -20 8 -19 -7z"/>
<path d="M3858 1388 c8 -46 16 -84 17 -85 1 -2 27 2 59 8 65 14 71 35 9 31
l-41 -2 -12 65 c-9 50 -16 65 -29 65 -16 0 -17 -6 -3 -82z"/>
<path d="M2656 1448 c-7 -21 -26 -130 -26 -145 0 -19 28 -16 34 5 12 41 25
135 20 143 -8 13 -24 11 -28 -3z"/>
<path d="M2725 1415 c-36 -35 -35 -105 1 -134 34 -27 66 -27 90 0 15 17 16 22
4 29 -10 6 -21 3 -33 -8 -40 -36 -75 34 -42 84 19 29 41 31 57 4 16 -26 38
-26 38 -1 0 24 -36 51 -68 51 -12 0 -34 -11 -47 -25z"/>
<path d="M3717 1405 c3 -19 2 -35 -3 -35 -5 0 -18 -3 -30 -6 -17 -5 -22 0 -27
25 -4 18 -13 31 -22 31 -19 0 -19 -11 1 -99 11 -50 21 -71 31 -71 12 0 14 8 9
39 -5 36 -4 39 21 46 28 7 43 -6 43 -37 0 -9 5 -20 11 -24 23 -14 27 14 12 89
-13 62 -19 77 -34 77 -15 0 -17 -6 -12 -35z"/>
<path d="M2861 1341 c-15 -96 -15 -99 19 -105 17 -3 44 -9 60 -12 23 -4 30 -2
30 10 0 10 -13 18 -37 22 -50 9 -52 11 -46 34 5 17 11 19 43 14 23 -4 40 -2
44 5 7 11 1 15 -46 25 -17 4 -28 13 -28 23 0 13 8 15 45 10 35 -5 45 -3 45 7
0 12 -73 36 -109 36 -4 0 -13 -31 -20 -69z"/>
<path d="M3523 1398 c-28 -6 -43 -15 -43 -25 0 -11 6 -14 24 -9 23 6 25 3 36
-64 11 -63 24 -83 42 -65 3 3 -1 34 -7 70 -13 69 -12 75 17 75 10 0 18 7 18
15 0 17 -23 18 -87 3z"/>
<path d="M3434 1358 c17 -83 16 -107 -3 -118 -27 -14 -51 11 -51 53 0 48 -11
77 -27 77 -13 0 -14 -10 -9 -62 9 -74 19 -96 49 -103 28 -8 76 10 83 30 4 8 3
45 -1 80 -6 55 -10 65 -26 65 -15 0 -18 -5 -15 -22z"/>
<path d="M3063 1357 c2 -7 12 -13 23 -15 18 -3 19 -9 16 -72 -4 -58 -2 -70 11
-70 11 0 17 17 22 69 7 68 7 70 35 69 l29 -1 -1 -71 c-1 -58 2 -72 15 -74 14
-3 17 5 17 38 0 37 2 40 19 30 11 -5 28 -24 38 -40 9 -17 25 -30 35 -30 24 0
23 7 -6 45 -23 30 -24 32 -5 43 26 17 24 58 -3 76 -30 19 -252 22 -245 3z
m230 -34 c12 -11 -14 -33 -39 -33 -17 0 -24 6 -24 20 0 15 7 20 28 20 16 0 32
-3 35 -7z"/>
</g>
</svg>
